<?xml version="1.0" standalone="no"?>
<!DOCTYPE svg PUBLIC "-//W3C//DTD SVG 1.1//EN" "http://www.w3.org/Graphics/SVG/1.1/DTD/svg11.dtd" >
<svg xmlns="http://www.w3.org/2000/svg">
<metadata>
Created by FontPrep 20130207 at Tue Dec  1 12:15:18 2015
 By Greg Greenhaw
(c) 2015 Apple Inc. All rights reserved.
</metadata>
<defs>
<font id="7a7c5d2c10b62e045352253376048bac" horiz-adv-x='1024' >
  <font-face 
    font-family=".HelveticaNeueDeskInterface-MediumItalicP4"
    font-weight="500"
    font-style="italic"
    font-stretch="normal"
    units-per-em="2048"
    panose-1="0 0 4 0 0 0 0 0 0 0"
    ascent="1638"
    descent="-410"
    x-height="1089"
    cap-height="1443"
    bbox="-557 -572 2955 2197"
    underline-thickness="50"
    underline-position="-25"
    slope="-12"
    unicode-range="U+0020-FB02"
  />
<missing-glyph horiz-adv-x="1293" 
d="M772 1031q62 0 100.5 -30.5t38.5 -74.5t-27 -70t-98 -67q-116 -67 -155.5 -114.5t-49.5 -121.5l-6 -42h150l7 39q8 44 33 68t97 65q123 71 167 125t44 114q0 114 -81.5 178t-214.5 64q-132 0 -216 -69t-92 -187h152q9 57 49 90t102 33zM514 304q0 -46 31 -73.5t81 -27.5
t83 28.5t33 74.5t-31.5 74.5t-82.5 28.5t-82.5 -29.5t-31.5 -75.5zM345 1365h1053l-290 -1365h-1053z" />
    <glyph glyph-name=".notdef" horiz-adv-x="1293" 
d="M772 1031q62 0 100.5 -30.5t38.5 -74.5t-27 -70t-98 -67q-116 -67 -155.5 -114.5t-49.5 -121.5l-6 -42h150l7 39q8 44 33 68t97 65q123 71 167 125t44 114q0 114 -81.5 178t-214.5 64q-132 0 -216 -69t-92 -187h152q9 57 49 90t102 33zM514 304q0 -46 31 -73.5t81 -27.5
t83 28.5t33 74.5t-31.5 74.5t-82.5 28.5t-82.5 -29.5t-31.5 -75.5zM345 1365h1053l-290 -1365h-1053z" />
    <glyph glyph-name=".null" 
 />
    <glyph glyph-name="nonmarkingreturn" 
 />
    <glyph glyph-name="space" unicode=" " horiz-adv-x="560" 
 />
    <glyph glyph-name="exclam" unicode="!" horiz-adv-x="669" 
d="M185 20.5q-43 43.5 -43 91.5q0 83 43 127t110 44t111 -42.5t44 -92.5q0 -49 -11 -77.5t-42.5 -61t-100.5 -32.5q-68 0 -111 43.5zM698 1444l-226 -966h-202l185 966h243z" />
    <glyph glyph-name="quotedbl" unicode="&#x22;" horiz-adv-x="939" 
d="M698 872l120 571h193l-120 -571h-193zM291 872l120 571h192l-120 -571h-192z" />
    <glyph glyph-name="numbersign" unicode="#" horiz-adv-x="1319" 
d="M537 567h285l138 324h-287zM1129 882l-131 -304h209l-69 -178h-210l-167 -400h-179l168 400h-274l-168 -400h-178l167 400h-208l70 178h209l130 304h-207l68 177h209l162 384h178l-161 -384h273l162 384h180l-163 -384h210l-70 -177h-210z" />
    <glyph glyph-name="dollar" unicode="$" horiz-adv-x="1360" 
d="M1231 404q0 -86 -40 -168t-150 -171t-346 -89h-15l-25 -116h-136l28 132q-165 37 -271 147t-114 263h218q12 -83 66.5 -138.5t141.5 -78.5l99 467l-53 20q-146 56 -225.5 151t-79.5 205q0 203 142.5 321t374.5 118h15l27 128h136l-31 -146q154 -38 247 -147t95 -250h-215
q-23 154 -169 201l-92 -433l28 -11q257 -99 300.5 -209t43.5 -196zM558 1047q0 -106 176 -178l85 403q-114 -2 -187.5 -60.5t-73.5 -164.5zM1002 409q0 113 -189 194l-92 -433q129 2 205 64t76 175z" />
    <glyph glyph-name="percent" unicode="%" horiz-adv-x="1680" 
d="M1082.5 17.5q-109.5 46.5 -109.5 276.5q0 155 104.5 273t242.5 118q139 0 217 -84t78 -238t-104.5 -273t-248.5 -119q-70 0 -179.5 46.5zM1334 529q-78 0 -129 -75t-51 -160q0 -84 30 -125t72 -41q77 0 128 75t51 161t-29 125.5t-72 39.5zM334.5 841.5
q-77.5 83.5 -77.5 238.5t104.5 273.5t242.5 118.5q139 0 217 -84t78 -239q0 -154 -105.5 -272.5t-243.5 -118.5t-215.5 83.5zM147 0l718 756l626 687h233l-730 -768l-613 -675h-234zM618 1315q-78 0 -129 -75t-51 -160q0 -84 30 -124.5t72 -40.5q77 0 127.5 75.5t50.5 160.5
q0 86 -28.5 125t-71.5 39z" />
    <glyph glyph-name="ampersand" unicode="&#x26;" horiz-adv-x="1482" 
d="M1024 87q-178 -114 -404 -114t-369.5 114.5t-143.5 284.5q0 286 368 428l66 27q-116 167 -116 303t118 239t284 103t270.5 -84t104.5 -212q0 -201 -143.5 -291t-245.5 -126l265 -377q113 136 128 335l4 45h195l-4 -51q-27 -290 -218 -492l145 -219h-246zM575 663
q-255 -92 -255 -282q0 -96 81 -162t216 -66q187 0 312 86l-300 443zM1003 1154q0 68 -48 108.5t-106 40.5q-101 0 -162 -58.5t-61 -141.5t99 -213q211 66 244.5 147t33.5 117z" />
    <glyph glyph-name="quotesingle" unicode="'" horiz-adv-x="531" 
d="M291 872l120 571h192l-120 -571h-192z" />
    <glyph glyph-name="parenleft" unicode="(" horiz-adv-x="755" 
d="M303 -277q-115 244 -115 634q0 117 63 437.5t391 648.5h234q-339 -342 -403.5 -659t-64.5 -480q0 -309 90 -581h-195z" />
    <glyph glyph-name="parenright" unicode=")" horiz-adv-x="754" 
d="M561 1443q115 -244 115 -634q0 -117 -63 -437.5t-391 -648.5h-233q338 344 402.5 660t64.5 479q0 301 -90 581h195z" />
    <glyph glyph-name="asterisk" unicode="*" horiz-adv-x="1032" 
d="M705 916l-42 -311l-165 9l91 314l-299 -159l-52 161l315 107l-257 158l115 145l221 -208l44 316l165 -9l-93 -318l300 160l52 -160l-314 -106l256 -159l-114 -145z" />
    <glyph glyph-name="plus" unicode="+" horiz-adv-x="1359" 
d="M722 60h-191l91 424h-423l40 196h421l91 423h191l-90 -423h426l-41 -196h-424z" />
    <glyph glyph-name="comma" unicode="," horiz-adv-x="662" 
d="M44 -376l215 598h233l-268 -598h-180z" />
    <glyph glyph-name="hyphen" unicode="-" horiz-adv-x="976" 
d="M196 476l43 211h656l-42 -211h-657z" />
    <glyph glyph-name="period" unicode="." horiz-adv-x="645" 
d="M159.5 25.5q-42.5 42.5 -42.5 88.5t11 74t31 48.5t46.5 32.5t74.5 12t89.5 -43.5t41.5 -89.5t-11 -73.5t-42 -59.5t-93.5 -32t-105 42.5z" />
    <glyph glyph-name="slash" unicode="/" horiz-adv-x="734" 
d="M-78 -309l804 1752h197l-807 -1752h-194z" />
    <glyph glyph-name="zero" unicode="0" horiz-adv-x="1330" 
d="M420 508q0 -92 16.5 -153.5t47.5 -104t76 -65.5t103 -23t113 28.5t128.5 107.5t133.5 260t60 404t-91.5 270.5t-149.5 47.5t-113 -28.5t-104 -80.5t-89.5 -124.5t-69.5 -160t-45 -187t-16 -191.5zM196 500q0 418 195 698t482 280q203 0 326 -146.5t123 -390.5
q0 -420 -194 -698t-483 -278q-202 0 -325.5 145t-123.5 390z" />
    <glyph glyph-name="one" unicode="1" horiz-adv-x="989" 
d="M691 1184h-17l-417 -253l50 244l437 268h224l-307 -1443h-224z" />
    <glyph glyph-name="two" unicode="2" horiz-adv-x="1266" 
d="M294 1047q20 190 165 310.5t346 120.5t330.5 -108t129.5 -270q0 -126 -85.5 -240t-332.5 -324l-387 -319l-4 -17h676l-40 -200h-998l35 176l594 503q195 167 242.5 226t60.5 95t13 79q0 89 -69 146.5t-175 57.5q-170 0 -223.5 -90.5t-63.5 -143.5v-3h-10h-52z" />
    <glyph glyph-name="three" unicode="3" horiz-adv-x="1314" 
d="M787 835q125 0 208.5 72t83.5 169q0 98 -70 153t-183 55q-154 0 -212 -78t-72 -123h-214q38 179 178.5 287t339 108t328.5 -103.5t130 -252.5t-93 -253t-241 -128l-3 -17q121 -26 185 -101.5t64 -184.5q0 -212 -155.5 -342.5t-386.5 -130.5t-375 114t-144 286q0 18 3 44
h213v-6q-4 -105 80.5 -172.5t223.5 -67.5t226.5 75t87.5 199q0 94 -80 153t-205 59h-157l37 186h203z" />
    <glyph glyph-name="four" unicode="4" horiz-adv-x="1352" 
d="M367 474h492l166 772h-13q-384 -427 -643 -758zM817 279h-706l36 218q200 263 436.5 533t362.5 413h333l-206 -964h199l-40 -200h-199l-61 -279h-216z" />
    <glyph glyph-name="five" unicode="5" horiz-adv-x="1301" 
d="M525 843q113 105 286 105t296 -118t123 -297q0 -251 -154.5 -409.5t-408.5 -158.5q-210 0 -351.5 117t-141.5 290v8q0 9 2 24h214v-5q0 -104 79 -170.5t217 -66.5q137 0 229.5 96.5t92.5 232.5t-77 206.5t-196 70.5q-169 0 -273 -120h-213l243 795h833l-42 -200h-649
l-125 -398z" />
    <glyph glyph-name="six" unicode="6" horiz-adv-x="1341" 
d="M523 665.5q-101 -97.5 -101 -226.5t77 -203t210 -74q134 0 232 100t98 229t-76.5 200.5t-207.5 71.5t-232 -97.5zM1264 517q0 -106 -44 -209t-164 -223t-356 -120t-370.5 147.5t-134.5 400.5q0 378 178 661q93 148 225.5 226t312.5 78t313.5 -115.5t139.5 -295.5h-225
q-10 97 -81.5 155t-165.5 58q-173 0 -287 -136.5t-164 -380.5l17 -1q67 90 164.5 138t201.5 48t183 -30.5t136 -86t89 -132t32 -182.5z" />
    <glyph glyph-name="seven" unicode="7" horiz-adv-x="1193" 
d="M1039 1227l3 17h-725l41 199h958l-41 -203l-894 -1240h-244z" />
    <glyph glyph-name="eight" unicode="8" horiz-adv-x="1347" 
d="M637.5 897q69.5 -56 187.5 -56t198.5 72t80.5 171q0 98 -70.5 153t-188.5 55t-197.5 -71t-79.5 -169q0 -99 69.5 -155zM377 389q0 -113 81.5 -175t223.5 -62t235.5 78.5t93.5 190.5t-84.5 176.5t-220.5 64.5q-142 0 -235.5 -80t-93.5 -193zM538 792q-187 80 -187 292
q0 66 38.5 143t146 164t315.5 87t343 -103.5t135 -249.5t-89 -247.5t-234 -127.5l-4 -17q110 -40 173.5 -123t63.5 -212q0 -76 -42.5 -160t-161 -178.5t-358.5 -94.5t-387.5 108.5t-147.5 277.5q0 168 109.5 285t282.5 139z" />
    <glyph glyph-name="nine" unicode="9" horiz-adv-x="1341" 
d="M687 494q-189 0 -311.5 117t-122.5 302q0 241 164 403t401 162t370.5 -147t133.5 -402q0 -377 -178 -661q-93 -148 -225.5 -225.5t-311.5 -77.5t-312.5 113.5t-141.5 290.5h225q8 -92 80.5 -149t168.5 -57q175 0 288.5 135t163.5 380l-17 2q-137 -186 -375 -186z
M1095 1005q0 129 -77.5 201.5t-210.5 72.5t-230.5 -99.5t-97.5 -228.5t75.5 -200.5t200.5 -71.5q139 0 239.5 98.5t100.5 227.5z" />
    <glyph glyph-name="colon" unicode=":" horiz-adv-x="645" 
d="M319 781q-43 43 -43 89t11 74t31 48t46.5 32t74.5 12t89.5 -43.5t41.5 -89.5q0 -45 -11 -72.5t-42 -60t-93 -32.5t-105 43zM159.5 25.5q-42.5 42.5 -42.5 88.5t11 74t31 48.5t46.5 32.5t74.5 12t89.5 -43.5t41.5 -89.5t-11 -73.5t-42 -59.5t-93.5 -32t-105 42.5z" />
    <glyph glyph-name="semicolon" unicode=";" horiz-adv-x="645" 
d="M319 781q-43 43 -43 89t11 74t31 48t46.5 32t74.5 12t89.5 -43.5t41.5 -89.5q0 -45 -11 -72.5t-42 -60t-93 -32.5t-105 43zM-20 -376l215 598h233l-268 -598h-180z" />
    <glyph glyph-name="less" unicode="&#x3c;" horiz-adv-x="1359" 
d="M1068 -29l-799 561l37 183l1014 445l-49 -239l-766 -306l-3 -17l612 -396z" />
    <glyph glyph-name="equal" unicode="=" horiz-adv-x="1360" 
d="M247 698l40 197h1031l-39 -197h-1032zM159 270l39 197h1032l-40 -197h-1031z" />
    <glyph glyph-name="greater" unicode="&#x3e;" horiz-adv-x="1360" 
d="M401 1160l798 -561l-36 -182l-1014 -446l48 240l766 306l3 17l-612 395z" />
    <glyph glyph-name="question" unicode="?" horiz-adv-x="1083" 
d="M357.5 19q-43.5 42 -43.5 92q0 84 43 128.5t113 44.5q105 0 129.5 -58.5t24.5 -91.5t-11.5 -62t-43 -62t-100.5 -33q-68 0 -111.5 42zM1031.5 1357.5q119.5 -98.5 119.5 -234.5t-77.5 -241.5t-197.5 -159.5t-167 -99.5t-61 -122.5l-10 -52h-212l16 74q25 127 83 193.5
t176 119.5q118 54 169 115.5t51 137.5t-58 125.5t-158 49.5q-142 0 -191.5 -72.5t-62.5 -117.5h-210q31 174 156 278.5t320 104.5t314.5 -98.5z" />
    <glyph glyph-name="at" unicode="@" horiz-adv-x="1887" 
d="M1206 798.5q-48 55.5 -115 55.5q-117 0 -187.5 -95.5t-70.5 -230.5t65.5 -162t111.5 -27t91.5 24.5t99 92t53.5 177.5t-48 165.5zM648 516q0 211 117.5 356.5t288.5 145.5q137 0 184.5 -63.5t55.5 -98.5l17 -1l26 125h175l-128 -583q-4 -28 -4 -34q0 -87 103 -87
t187.5 151t84.5 344q0 231 -171 379t-438 148q-209 0 -385 -104.5t-278 -285t-102 -397.5q0 -275 190.5 -441.5t507.5 -166.5q124 0 193 20l-30 -142q-101 -21 -245 -21q-145 0 -292 54t-312 206t-165 475q0 267 153.5 540t399 339t393.5 66t284.5 -50t293.5 -188.5
t157 -416.5q0 -279 -136 -465.5t-335 -186.5q-99 0 -162.5 47.5t-63.5 120.5l1 20l-17 -1q-78 -140 -229 -140t-235 92t-84 244z" />
    <glyph glyph-name="A" unicode="A" horiz-adv-x="1423" 
d="M554 571h440l-82 608h-16zM1012 383h-554l-215 -383h-237l836 1443h232l212 -1443h-224z" />
    <glyph glyph-name="B" unicode="B" horiz-adv-x="1373" 
d="M1063 455q0 203 -274 203h-308l-101 -465h339q149 0 246.5 74.5t97.5 187.5zM795 834q150 0 244.5 68t94.5 176q0 177 -262 177h-262l-92 -421h277zM1042 742q253 -47 253 -307q0 -78 -41 -162t-156 -178.5t-357 -94.5h-626l307 1443h532q186 0 297.5 -86.5t111.5 -226.5
t-87.5 -242.5t-229.5 -128.5z" />
    <glyph glyph-name="C" unicode="C" horiz-adv-x="1488" 
d="M932 1267q-93 0 -189 -52.5t-207.5 -198t-111.5 -436.5q0 -187 99 -296t250 -109q152 0 259.5 66t145.5 175h229q-52 -208 -224 -329.5t-423 -121.5t-409 162t-158 428t126.5 531.5t330.5 328.5t320 63q236 0 395 -140.5t159 -349.5v-8q0 -8 -1 -14h-223q0 2 -2 38
t-29 90t-73 92.5t-108.5 59.5t-155.5 21z" />
    <glyph glyph-name="D" unicode="D" horiz-adv-x="1504" 
d="M725 202q228 0 375.5 172t147.5 437q0 202 -110.5 316t-307.5 114h-221l-226 -1039h342zM864 1443q292 0 453.5 -163t161.5 -449q0 -179 -57 -331.5t-157.5 -263.5t-237.5 -173.5t-297 -62.5h-614l306 1443h442z" />
    <glyph glyph-name="E" unicode="E" horiz-adv-x="1238" 
d="M1033 0h-918l307 1443h917l-41 -204h-690l-91 -408h654l-40 -194h-653l-96 -433h691z" />
    <glyph glyph-name="F" unicode="F" horiz-adv-x="1193" 
d="M115 0l307 1443h902l-42 -204h-674l-98 -443h618l-40 -198h-619l-127 -598h-227z" />
    <glyph glyph-name="G" unicode="G" horiz-adv-x="1540" 
d="M784 -35q-267 0 -428 165t-161 437q0 398 160.5 586.5t301.5 256.5t283 68q256 0 414 -129.5t170 -328.5q1 -6 1 -8v-27h-223q-10 129 -105.5 205.5t-226.5 76.5q-243 0 -393.5 -195t-150.5 -485q0 -191 102.5 -301t271.5 -110t286 93t149 248l9 42h-367l39 188h590
l-40 -191q-91 -437 -319.5 -514t-362.5 -77z" />
    <glyph glyph-name="H" unicode="H" horiz-adv-x="1552" 
d="M1078 0l137 633h-738l-136 -633h-226l307 1443h227l-130 -606h737l130 606h228l-307 -1443h-229z" />
    <glyph glyph-name="I" unicode="I" horiz-adv-x="587" 
d="M115 0l307 1443h227l-307 -1443h-227z" />
    <glyph glyph-name="J" unicode="J" horiz-adv-x="1148" 
d="M314 370v-4q2 -87 57 -137t150 -50q193 0 246 243l218 1021h223l-225 -1063q-42 -201 -163.5 -308t-312.5 -107t-308 111t-107 281v13h222z" />
    <glyph glyph-name="K" unicode="K" horiz-adv-x="1387" 
d="M115 0l307 1443h223l-145 -672h17l731 672h279l-690 -643l425 -800h-257l-349 657l-216 -194l-102 -463h-223z" />
    <glyph glyph-name="L" unicode="L" horiz-adv-x="1184" 
d="M1016 0h-901l307 1443h227l-266 -1237h675z" />
    <glyph glyph-name="M" unicode="M" horiz-adv-x="1823" 
d="M115 0l307 1443h252l223 -1096h17l696 1096h275l-307 -1443h-212l225 1042h-14l-639 -1000h-170l-204 1000h-13l-225 -1042h-211z" />
    <glyph glyph-name="N" unicode="N" horiz-adv-x="1539" 
d="M115 0l307 1443h196l514 -1055h17l229 1055h223l-307 -1443h-198l-514 1051h-17l-228 -1051h-222z" />
    <glyph glyph-name="O" unicode="O" horiz-adv-x="1593" 
d="M1341 828q0 211 -104 324.5t-272 113.5q-114 0 -212.5 -52t-212 -194.5t-113.5 -432.5q0 -184 104 -297.5t276 -113.5q230 0 341.5 142t152 266.5t40.5 243.5zM317.5 182q-123.5 126 -123.5 386t101.5 467t280 325t402.5 118q263 0 429.5 -170.5t166.5 -433.5
q0 -397 -221 -653t-570 -256q-122 0 -232 45.5t-233.5 171.5z" />
    <glyph glyph-name="P" unicode="P" horiz-adv-x="1327" 
d="M770 683q169 0 269.5 89t100.5 246q0 108 -72 167.5t-198 59.5h-261l-123 -562h284zM936 1443q190 0 312.5 -111t122.5 -293q0 -255 -167 -404t-425 -149h-333l-104 -486h-227l307 1443h514z" />
    <glyph glyph-name="Q" unicode="Q" horiz-adv-x="1593" 
d="M426 587q0 -186 105 -299t268 -113q78 0 130 14l-128 254h223l79 -142q173 130 206 298t33 259q0 183 -104 296.5t-273 113.5q-114 0 -212.5 -52t-212.5 -196t-114 -433zM194 567q0 261 102 468.5t281 325t401 117.5q263 0 429.5 -170.5t166.5 -433.5q0 -389 -143 -557.5
t-231 -226.5l120 -243h-226l-77 149q-98 -31 -227 -31q-259 0 -427.5 170.5t-168.5 431.5z" />
    <glyph glyph-name="R" unicode="R" horiz-adv-x="1367" 
d="M816 741q150 0 243.5 80.5t93.5 193.5t-63 172t-172 59h-309l-111 -505h318zM946 1443q197 0 318 -108t121 -279t-101.5 -299t-274.5 -176l204 -581h-243l-182 550h-328l-118 -550h-227l307 1443h524z" />
    <glyph glyph-name="S" unicode="S" horiz-adv-x="1307" 
d="M874 198.5q121 34.5 121 197.5q0 108 -90 153.5t-156 67.5l-142 48q-152 51 -235.5 150t-83.5 231q0 186 151 309t373 123t368 -120.5t160 -311.5h-219q-34 165 -143 199.5t-201.5 34.5t-174.5 -59.5t-82 -139.5t52.5 -132t165.5 -90l137 -47q352 -120 352 -372
q0 -222 -155.5 -348.5t-397.5 -126.5q-241 0 -388 117.5t-171 322.5h221q22 -110 116.5 -175.5t231.5 -65.5q69 0 190 34.5z" />
    <glyph glyph-name="T" unicode="T" horiz-adv-x="1312" 
d="M477 0l266 1239h-452l41 204h1131l-41 -204h-452l-265 -1239h-228z" />
    <glyph glyph-name="U" unicode="U" horiz-adv-x="1538" 
d="M754 -35q-248 0 -387.5 127.5t-141.5 330.5q-2 59 13 127l187 893h228l-186 -882q-46 -213 55 -299t255 -86q229 0 303 124t91 201l201 942h227l-210 -992q-78 -355 -291.5 -420.5t-343.5 -65.5z" />
    <glyph glyph-name="V" unicode="V" horiz-adv-x="1415" 
d="M522 0l-210 1443h224l155 -1159h17l629 1159h250l-820 -1443h-245z" />
    <glyph glyph-name="W" unicode="W" horiz-adv-x="2013" 
d="M630 0h-216l-83 1443h214l43 -1105h14l539 1105h192l81 -1105h14l506 1105h231l-689 -1443h-218l-88 1059h-13z" />
    <glyph glyph-name="X" unicode="X" horiz-adv-x="1427" 
d="M670 749l-318 694h254l236 -539h16l469 539h253l-644 -729l329 -714h-245l-251 542h-16l-478 -542h-250z" />
    <glyph glyph-name="Y" unicode="Y" horiz-adv-x="1383" 
d="M513 0l126 582l-327 861h234l242 -631h17l497 631h251l-693 -881l-120 -562h-227z" />
    <glyph glyph-name="Z" unicode="Z" horiz-adv-x="1365" 
d="M108 161l1000 1061l3 17h-746l41 204h1041l-32 -161l-998 -1061l-2 -17h785l-41 -204h-1083z" />
    <glyph glyph-name="bracketleft" unicode="[" horiz-adv-x="791" 
d="M931 1444l-35 -174h-288l-288 -1337h300l-35 -173h-508l358 1684h496z" />
    <glyph glyph-name="backslash" unicode="\" horiz-adv-x="733" 
d="M301 1443h189l52 -1752h-187z" />
    <glyph glyph-name="bracketright" unicode="]" horiz-adv-x="790" 
d="M481 -240h-499l35 174h290l288 1337h-297l35 172h506z" />
    <glyph glyph-name="asciicircum" unicode="^" horiz-adv-x="885" 
d="M368 818h-204l411 606h210l153 -606h-193l-88 424h-17z" />
    <glyph glyph-name="underscore" unicode="_" horiz-adv-x="926" 
d="M-129 -278l33 171h941l-34 -171h-940z" />
    <glyph glyph-name="grave" unicode="`" horiz-adv-x="1085" 
d="M779 1271l-222 344h247l191 -344h-216z" />
    <glyph glyph-name="a" unicode="a" horiz-adv-x="1153" 
d="M674 923q-173 0 -222 -119h-215q37 142 159 224t301 82t292.5 -85t113.5 -227q0 -46 -9 -88l-150 -710h-209l30 139h-17q-54 -73 -139 -115t-169 -42q-154 0 -248 85.5t-94 213.5q0 163 124 258t350 103l295 12l15 71q6 32 6 46q0 72 -56.5 112t-157.5 40zM381 432.5
q-67 -46.5 -67 -117.5t53.5 -112.5t123.5 -41.5q125 0 210.5 63t107.5 160l25 112l-265 -12q-121 -5 -188 -51.5z" />
    <glyph glyph-name="b" unicode="b" horiz-adv-x="1288" 
d="M674 177q66 0 131.5 36t141 136.5t75.5 302.5q0 127 -64 195t-158 68q-173 0 -279.5 -136.5t-106.5 -330.5t97 -232.5t163 -38.5zM866 1107q165 0 272.5 -117t107.5 -285t-42.5 -297t-117 -223.5t-175 -148.5t-215.5 -54t-208 61t-123 156h-17l-43 -199h-208l322 1514
h215l-121 -575h17q122 168 336 168z" />
    <glyph glyph-name="c" unicode="c" horiz-adv-x="1161" 
d="M368 462q0 -137 67 -213.5t171 -76.5q207 0 267 165h215q-32 -158 -164.5 -258t-329.5 -100t-321.5 125.5t-124.5 334.5q0 291 164.5 481t418.5 190q170 0 288.5 -94.5t139.5 -232.5q2 -11 2.5 -23t1.5 -23h-212q-6 80 -72.5 130.5t-176.5 50.5q-62 0 -126 -35
t-136 -131.5t-72 -289.5z" />
    <glyph glyph-name="d" unicode="d" horiz-adv-x="1293" 
d="M980 642q0 126 -68 198t-182 72q-154 0 -258 -130.5t-104 -329.5q0 -127 69 -202.5t189 -75.5q66 0 133 36.5t144 136.5t77 295zM546 -18q-180 0 -291 119.5t-111 314.5q0 298 161 494.5t396 196.5q180 0 243 -83t77 -129h17l131 619h218l-322 -1514h-208l32 150h-17
q-58 -78 -145 -123t-181 -45z" />
    <glyph glyph-name="e" unicode="e" horiz-adv-x="1203" 
d="M940 704q0 89 -61.5 156t-169.5 67q-174 0 -238 -107t-81 -169h547q3 15 3 53zM619 167q185 0 252 126h218q-37 -141 -166 -227.5t-323 -86.5t-322.5 123t-128.5 338q0 299 160.5 484.5t413.5 185.5q183 0 306.5 -121.5t123.5 -325.5q0 -91 -14 -170h-775q-1 -11 -1 -14
v-62q0 -43 22 -96.5t75 -103.5t159 -50z" />
    <glyph glyph-name="f" unicode="f" horiz-adv-x="775" 
d="M801 1328q-145 0 -173 -149l-19 -95h239l-36 -181h-237l-190 -903h-219l191 903h-178l37 181h176l22 114q31 162 124.5 234t260.5 72q65 0 143 -15l-34 -171q-35 10 -107 10z" />
    <glyph glyph-name="g" unicode="g" horiz-adv-x="1276" 
d="M626 198q66 0 131 33t140 124.5t75 286.5q0 124 -69 197t-185 73q-152 0 -249 -121.5t-97 -317.5t94 -235.5t160 -39.5zM149 443q0 287 154.5 475.5t385.5 188.5q179 0 247.5 -83.5t84.5 -130.5h17l42 196h209l-245 -1138q-37 -170 -175.5 -268t-346.5 -98
q-207 0 -334.5 92.5t-133.5 226.5h221q16 -99 106.5 -121t152.5 -22q123 0 199 57.5t101 161.5l46 197l-17 1q-113 -160 -325 -160q-167 0 -278 119.5t-111 305.5z" />
    <glyph glyph-name="h" unicode="h" horiz-adv-x="1267" 
d="M864 1109q154 0 249.5 -93.5t95.5 -227.5q0 -57 -14 -127l-140 -661h-217l133 623q12 62 12 102q0 84 -60 137.5t-162 53.5q-175 0 -235 -101t-72 -157l-140 -658h-217l323 1510h217l-127 -584h17q124 183 337 183z" />
    <glyph glyph-name="i" unicode="i" horiz-adv-x="546" 
d="M408.5 1317.5q-39.5 37.5 -39.5 78.5q0 42 10.5 66t29 42t44 28.5t70.5 10.5t84.5 -37.5t39.5 -78.5q0 -42 -10.5 -66t-40 -52.5t-89 -28.5t-99 37.5zM331 1089h218l-232 -1089h-219z" />
    <glyph glyph-name="j" unicode="j" horiz-adv-x="546" 
d="M408.5 1317.5q-39.5 37.5 -39.5 78.5q0 42 10.5 66t29 42t44 28.5t70.5 10.5t84.5 -37.5t39.5 -78.5q0 -42 -10.5 -66t-40 -52.5t-89 -28.5t-99 37.5zM-53 -200q48 0 85.5 33t54.5 110l245 1146h215l-251 -1173q-63 -303 -367 -303q-59 0 -99 7l38 184q31 -4 79 -4z" />
    <glyph glyph-name="k" unicode="k" horiz-adv-x="1131" 
d="M980 1089h268l-552 -472l350 -617h-244l-280 490l-123 -94l-85 -396h-217l322 1514h216l-182 -854h17z" />
    <glyph glyph-name="l" unicode="l" horiz-adv-x="544" 
d="M419 1514h218l-321 -1514h-219z" />
    <glyph glyph-name="m" unicode="m" horiz-adv-x="1822" 
d="M1463 1110q133 0 219.5 -84.5t86.5 -214.5q0 -57 -14 -127l-145 -684h-217l138 647q12 65 12 98q0 74 -48.5 122.5t-130.5 48.5q-143 0 -198 -92.5t-67 -149.5l-143 -674h-213l137 647q12 65 12 98q0 74 -48.5 122.5t-134.5 48.5t-160.5 -64t-98.5 -170l-145 -682h-217
l231 1093h209l-36 -173h16q72 132 164.5 161t145.5 29q107 0 183.5 -58.5t95.5 -138.5h17q122 197 349 197z" />
    <glyph glyph-name="n" unicode="n" horiz-adv-x="1249" 
d="M859 1110q143 0 238 -93.5t95 -228.5q0 -60 -15 -127l-139 -661h-217l132 623q12 54 12 97q0 88 -59.5 142t-164.5 54t-188.5 -72.5t-107.5 -185.5l-140 -658h-217l231 1093h209l-35 -167h17q118 184 349 184z" />
    <glyph glyph-name="o" unicode="o" horiz-adv-x="1243" 
d="M624 -21q-223 0 -349.5 128t-126.5 334q0 283 162 476t428 193q206 0 331.5 -127.5t125.5 -333.5q0 -279 -116.5 -420t-225.5 -195.5t-229 -54.5zM374 474q0 -146 68 -224.5t195 -78.5t229 130t102 332t-95 244t-163 42t-132.5 -35.5t-109.5 -98t-69.5 -147t-24.5 -164.5
z" />
    <glyph glyph-name="p" unicode="p" horiz-adv-x="1283" 
d="M847 1107q178 0 286 -117.5t108 -285.5q0 -167 -42.5 -296t-117 -223.5t-175.5 -148.5t-218 -54q-179 0 -242.5 84.5t-77.5 132.5h-16l-120 -552h-216l307 1442h208l-31 -150h16q59 78 148 123t183 45zM668 177q66 0 132 36t141.5 136.5t75.5 302.5q0 127 -64.5 195
t-158.5 68q-173 0 -279 -136.5t-106 -330.5t96.5 -232.5t162.5 -38.5z" />
    <glyph glyph-name="q" unicode="q" horiz-adv-x="1282" 
d="M144 413q0 296 117 442t218 199t218 53q177 0 246 -83t84 -129h16l42 194h208l-306 -1442h-215l106 503h-17q-124 -168 -337 -168q-164 0 -272 119.5t-108 311.5zM590 174q173 0 279 136.5t106 330.5t-96 232.5t-163 38.5t-132.5 -35t-141 -133.5t-75.5 -294.5
q0 -133 64.5 -204t158.5 -71z" />
    <glyph glyph-name="r" unicode="r" horiz-adv-x="833" 
d="M710 899q-102 0 -175 -67t-104 -207l-133 -625h-217l232 1089h208l-30 -143h17q101 161 283 161q87 0 132 -18l-45 -210q-65 20 -168 20z" />
    <glyph glyph-name="s" unicode="s" horiz-adv-x="1087" 
d="M706.5 193.5q62.5 40.5 62.5 94.5q0 53 -28 85t-99 55l-167 56q-254 85 -254 273q0 167 119.5 260t301.5 93t295 -84t131 -225h-206q-14 62 -73 98t-125 36q-112 0 -171.5 -39t-59.5 -93q0 -53 35.5 -84t105.5 -54l157 -54q257 -83 257 -275q0 -166 -126.5 -261.5
t-319.5 -95.5t-316.5 88.5t-133.5 233.5h215q17 -65 78.5 -106.5t159.5 -41.5q99 0 161.5 40.5z" />
    <glyph glyph-name="t" unicode="t" horiz-adv-x="781" 
d="M449 282q0 -108 142 -108q40 0 63 3l-37 -179q-51 -8 -111 -8q-131 0 -208.5 57.5t-77.5 167.5q0 41 11 94l128 590h-179l37 181h179l56 269h217l-57 -269h244l-36 -181h-244l-116 -535q-11 -49 -11 -82z" />
    <glyph glyph-name="u" unicode="u" horiz-adv-x="1247" 
d="M385 365q0 -189 207 -189q180 0 240.5 104t73.5 163l138 646h216l-230 -1089h-208l34 155h-17q-73 -123 -178 -149.5t-172 -26.5q-141 0 -235 88.5t-94 228.5q0 65 15 140l136 653h218l-131 -618q-13 -68 -13 -106z" />
    <glyph glyph-name="v" unicode="v" horiz-adv-x="1136" 
d="M445 1089l103 -835h17l441 835h235l-618 -1089h-237l-158 1089h217z" />
    <glyph glyph-name="w" unicode="w" horiz-adv-x="1640" 
d="M1209 0h-224l-57 797h-17l-391 -797h-221l-68 1089h202l34 -824h16l391 824h214l46 -831h16l374 831h216z" />
    <glyph glyph-name="x" unicode="x" horiz-adv-x="1117" 
d="M571 383l-316 -383h-246l476 550l-248 539h235l160 -382h17l313 382h248l-475 -545l248 -544h-226l-169 383h-17z" />
    <glyph glyph-name="y" unicode="y" horiz-adv-x="1146" 
d="M264 -177.5q49 34.5 96 120.5l33 60l-164 1086h216l105 -842h17l448 842h233l-666 -1173q-98 -178 -194.5 -245.5t-239.5 -67.5q-51 0 -123 9l33 185q29 -9 93 -9t113 34.5z" />
    <glyph glyph-name="z" unicode="z" horiz-adv-x="1124" 
d="M96 146l737 744l2 17h-571l38 182h852l-34 -157l-719 -733l-3 -17h567l-37 -182h-862z" />
    <glyph glyph-name="braceleft" unicode="{" horiz-adv-x="860" 
d="M424 -28q0 -72 45 -104.5t145 -32.5h45l-35 -171h-66q-160 0 -253.5 68.5t-93.5 181.5q0 61 14 117l56 258q12 57 12 108q0 101 -142 101l47 229q99 0 146 46t73 165l53 239q39 184 157.5 263.5t324.5 79.5h67l-35 -175h-45q-178 0 -219.5 -79t-53.5 -138l-59 -270
q-25 -115 -84 -171.5t-157 -65.5l-3 -17q67 -13 107 -54.5t40 -94.5t-10 -99l-65 -301q-11 -53 -11 -83z" />
    <glyph glyph-name="bar" unicode="|" horiz-adv-x="703" 
d="M124 -310l373 1753h191l-373 -1753h-191z" />
    <glyph glyph-name="braceright" unicode="}" horiz-adv-x="860" 
d="M557 1212q0 72 -45 104.5t-145 32.5h-45l35 171h66q160 0 253.5 -68.5t93.5 -180.5q0 -56 -13 -118l-57 -258q-12 -56 -12 -107q0 -102 142 -102l-46 -229q-100 0 -147 -46.5t-73 -163.5l-53 -240q-57 -268 -219 -305.5t-262 -37.5h-68l35 175h45q178 0 219.5 79
t54.5 138l59 270q24 115 83 171.5t157 66.5l3 17q-67 13 -107 54t-40 94t10 99l66 301q10 48 10 83z" />
    <glyph glyph-name="asciitilde" unicode="~" horiz-adv-x="1210" 
d="M743 701q102 0 133 164h192q-24 -177 -111.5 -272t-210.5 -95q-122 0 -204 94.5t-111.5 115t-57.5 20.5q-101 0 -132 -163h-192q24 177 113.5 272t209.5 95q119 0 205 -97.5t112 -115.5t54 -18z" />
    <glyph glyph-name="nonbreakingspace" unicode="&#xa0;" horiz-adv-x="560" 
 />
    <glyph glyph-name="exclamdown" unicode="&#xa1;" horiz-adv-x="669" 
d="M588 1091.5q44 -42.5 44 -91.5q0 -83 -43 -127.5t-95 -44.5q-83 0 -126.5 42.5t-43.5 92.5q0 49 11 77.5t43.5 61t99.5 32.5q66 0 110 -42.5zM76 -333l226 966h202l-185 -966h-243z" />
    <glyph glyph-name="cent" unicode="&#xa2;" horiz-adv-x="1359" 
d="M275 646q0 111 40 229.5t151.5 257t349.5 156.5l33 156h197l-37 -176q111 -35 193 -124.5t84.5 -152.5t3.5 -74h-212q-6 80 -72.5 130.5t-152.5 50.5q-161 0 -259 -131.5t-98 -325.5q0 -137 66.5 -215t170.5 -78q207 0 267 164h215q-31 -149 -150 -245.5t-292 -110.5
l-38 -180h-197l42 200q-141 42 -223 159.5t-82 309.5z" />
    <glyph glyph-name="sterling" unicode="&#xa3;" horiz-adv-x="1360" 
d="M479 1022q0 84 34.5 173t142.5 186t387 97q220 0 370 -70l-41 -193q-120 65 -315 65q-252 0 -301 -107t-49 -180t11 -172h412l-35 -175h-366q16 -175 -60.5 -281.5t-197.5 -146.5l-3 -16h746l-40 -200h-1084l39 198q139 18 257 121t124 261q0 26 -4 64h-313l35 175h264
q-13 117 -13 201z" />
    <glyph glyph-name="currency" unicode="&#xa4;" horiz-adv-x="1359" 
d="M1136 653q0 -144 -86 -257l103 -132l-150 -129l-106 137q-82 -39 -173 -39q-147 0 -260 94l-230 -192l-104 138l226 189q-45 90 -45 191q0 144 87 256l-105 133l150 129l107 -138q82 39 174 39q144 0 258 -93l230 191l104 -138l-226 -188q46 -90 46 -191zM470 653
q0 -51 20 -97t54.5 -80t81 -54t98.5 -20t98 20t80.5 54t54.5 80t20 97t-20 96.5t-54.5 79.5t-80.5 54t-98 20t-98.5 -20t-81 -54t-54.5 -79.5t-20 -96.5z" />
    <glyph glyph-name="yen" unicode="&#xa5;" horiz-adv-x="1360" 
d="M781 242l-51 -242h-228l52 242h-275l31 150h276l32 152h-275l31 150h215l-288 749h233l242 -631h17l497 631h252l-594 -749h200l-32 -150h-272l-33 -152h273l-32 -150h-271z" />
    <glyph glyph-name="brokenbar" unicode="&#xa6;" horiz-adv-x="703" 
d="M124 -310l142 669h191l-142 -669h-191zM355 774l142 669h191l-142 -669h-191z" />
    <glyph glyph-name="section" unicode="&#xa7;" horiz-adv-x="1032" 
d="M167 -181.5q-117 89.5 -125 233.5h204q23 -104 97.5 -126.5t118.5 -22.5q91 0 149 41.5t58 96.5t-25 88.5t-92 59.5l-152 64q-237 97 -237 288q0 165 104 219.5t163 67.5l3 18q-118 72 -134.5 136t-16.5 120t30 117t112.5 127.5t255.5 66.5q172 0 278 -86.5t122 -228.5
h-199q-11 64 -65 102.5t-116 38.5q-103 0 -157.5 -40.5t-54.5 -94.5t31.5 -86t97.5 -58l136 -60q184 -77 214 -156t30 -157.5t-69.5 -160.5t-192.5 -110l-3 -14q115 -75 130.5 -137.5t15.5 -118.5t-31.5 -117.5t-120 -130.5t-265.5 -69t-294 89.5zM790 576q0 96 -118 142
l-93 40q-90 -10 -151 -61.5t-61 -108.5q0 -58 32.5 -95t99.5 -63l97 -43q137 29 165.5 90t28.5 99z" />
    <glyph glyph-name="dieresis" unicode="&#xa8;" horiz-adv-x="1085" 
d="M987 1265q-57 0 -95 38t-38 81t10 68t28 43t42.5 28.5t66.5 10.5t81 -39t39 -82t-10.5 -67.5t-38.5 -52.5t-85 -28zM560 1265q-57 0 -95 38t-38 81t10 68t28 43t42.5 28.5t66.5 10.5t81 -39t39 -82t-10.5 -67.5t-38.5 -52.5t-85 -28z" />
    <glyph glyph-name="copyright" unicode="&#xa9;" horiz-adv-x="1742" 
d="M935 373q140 0 186 113h155q-28 -115 -122 -183t-235 -68t-232 94.5t-91 248.5q0 207 119 342t301 135q139 0 225.5 -76.5t90.5 -199.5h-151q-6 96 -72 118.5t-111 22.5t-92 -25.5t-101 -95t-54 -191.5q0 -121 49 -178t135 -57zM899 -6q113 0 204.5 25t212 95t215 231.5
t94.5 356.5q0 250 -170 414.5t-428 164.5q-195 0 -358 -94.5t-258.5 -256.5t-95.5 -356q0 -245 126 -368t235.5 -167.5t222.5 -44.5zM910 -155q-320 0 -533.5 207.5t-213.5 508.5q0 243 115.5 442t315.5 313t446 114q317 0 527 -205.5t210 -508.5q0 -242 -114 -442
t-315.5 -314.5t-437.5 -114.5z" />
    <glyph glyph-name="ordfeminine" unicode="&#xaa;" horiz-adv-x="974" 
d="M458 517q-118 0 -196.5 71t-78.5 196q0 124 102.5 202.5t291.5 84.5l243 8l13 57q5 31 4 38q1 57 -43.5 88t-122.5 31q-135 0 -174 -92h-198q30 121 132 191t258 70t252.5 -74t96.5 -195q0 -43 -7 -73l-126 -590h-194l23 111l-15 1q-92 -125 -261 -125zM384 800
q0 -56 42 -88.5t98 -32.5q98 0 164 48.5t84 125.5l19 88l-206 -8q-95 -5 -148 -41t-53 -92z" />
    <glyph glyph-name="guillemotleft" unicode="&#xab;" horiz-adv-x="1410" 
d="M433 554l-2 -13l247 -393h-216l-262 413l2 8l431 414h248zM922 552l-3 -14l249 -390h-216l-262 413l2 8l435 414h243z" />
    <glyph glyph-name="logicalnot" unicode="&#xac;" horiz-adv-x="1360" 
d="M1128 97h-186l82 387h-797l39 196h983z" />
    <glyph glyph-name="registered" unicode="&#xae;" horiz-adv-x="1261" 
d="M1047 1182.5q-118 116.5 -291 116.5q-174 0 -293 -119t-119 -291t118 -289t289 -117q172 0 293 119t121 291q0 173 -118 289.5zM381.5 1262.5q152.5 152.5 374.5 152.5t372.5 -151t150.5 -371t-153.5 -372.5t-373.5 -152.5q-221 0 -372 151t-151 371t152.5 372.5z
M774 923q102 0 102 77q0 24 -18 40.5t-54 16.5h-117l-29 -134h116zM842 1153q65 0 110 -41t45 -103q0 -63 -41 -106.5t-105 -55.5l91 -188h-128l-85 175h-90l-38 -175h-107l105 494h243z" />
    <glyph glyph-name="macron" unicode="&#xaf;" horiz-adv-x="1086" 
d="M405 1299l32 155h696l-32 -155h-696z" />
    <glyph glyph-name="degree" unicode="&#xb0;" horiz-adv-x="815" 
d="M594 1041q30 0 58 11.5t48 31.5t32 46.5t12 72t-44 88t-90 42.5t-73 -11.5t-47.5 -31t-32.5 -46.5t-12 -57t12 -56.5t32.5 -46.5t47.5 -31.5t57 -11.5zM388 1394q84 86 205 86t206.5 -86.5t85.5 -207.5t-85.5 -206.5t-206.5 -85.5t-205 85.5t-84 207t84 207.5z" />
    <glyph glyph-name="plusminus" unicode="&#xb1;" horiz-adv-x="1360" 
d="M790 390h-188l58 267h-411l35 174h411l59 266h188l-59 -266h412l-35 -174h-412zM130 94l36 182h1011l-37 -182h-1010z" />
    <glyph glyph-name="two.sups" unicode="&#xb2;" horiz-adv-x="877" 
d="M939 1764.5q88 -72.5 88 -167.5q0 -96 -57.5 -172.5t-148.5 -144t-112.5 -84.5t-46.5 -36.5t-47.5 -36.5t-38 -29t-18.5 -14l-2 -11h388l-35 -171h-673l32 155l344 269q131 102 170.5 148.5t39.5 93.5q0 46 -34.5 75.5t-91.5 29.5t-99 -34.5t-53 -94.5v-2h-191
q10 131 112.5 215t243.5 84q142 0 230 -72.5z" />
    <glyph glyph-name="three.sups" unicode="&#xb3;" horiz-adv-x="895" 
d="M684 1444q67 0 111.5 35t44.5 86t-36 79t-92 28t-97 -27.5t-56 -74.5h-190q24 120 121 193.5t235 73.5t227 -68.5t89 -165.5t-60 -161t-156 -76l-1 -12q77 -17 118 -66t41 -118t-27.5 -122.5t-76 -92.5t-116 -60.5t-189.5 -21.5t-221 88t-83 220h195q-1 -60 40 -97
t113 -37t116 37.5t44 92.5t-40 85.5t-104 30.5h-99l30 151h119z" />
    <glyph glyph-name="acute" unicode="&#xb4;" horiz-adv-x="1085" 
d="M819 1615h252l-354 -344h-222z" />
    <glyph glyph-name="paragraph" unicode="&#xb6;" horiz-adv-x="1399" 
d="M1301 1443h216l-356 -1680h-216zM328 935q0 99 42.5 194.5t162.5 202.5t381 111h233l-357 -1680h-216l164 762q-184 8 -297 117.5t-113 292.5z" />
    <glyph glyph-name="periodcentered" unicode="&#xb7;" horiz-adv-x="663" 
d="M311 623q-44 44 -44 95t11.5 80.5t32 51t49.5 33.5t81 12t95 -44.5t43 -95.5t-11 -80.5t-43 -62.5t-101 -33t-113 44z" />
    <glyph glyph-name="cedilla" unicode="&#xb8;" horiz-adv-x="1086" 
d="M356 -364q93 0 93 66t-127 65h-54l14 102l107 166h156l-105 -165q172 -23 172 -160q0 -89 -70 -145.5t-178 -56.5t-184 36l25 119q58 -27 151 -27z" />
    <glyph glyph-name="one.sups" unicode="&#xb9;" horiz-adv-x="708" 
d="M594 1603h-12l-254 -150l41 199l269 160h207l-194 -914h-208z" />
    <glyph glyph-name="ordmasculine" unicode="&#xba;" horiz-adv-x="1053" 
d="M624 503q-190 0 -296 111.5t-106 301.5q0 236 145.5 393t361.5 157q182 0 286 -111.5t104 -302.5q0 -234 -106 -349.5t-198 -157.5t-191 -42zM907 1027q0 259 -209 259q-104 0 -183.5 -102.5t-79.5 -237.5q0 -134 51.5 -199t155.5 -65t184.5 106.5t80.5 238.5z" />
    <glyph glyph-name="guillemotright" unicode="&#xbb;" horiz-adv-x="1413" 
d="M844 983h217l262 -414l-2 -8l-432 -413h-247l447 429l3 13zM352 983h216l262 -414l-2 -8l-434 -413h-244l449 431l2 14z" />
    <glyph glyph-name="onequarter" unicode="&#xbc;" horiz-adv-x="2135" 
d="M1048 757l450 686h210l-502 -733l-464 -710h-210zM608 1234h-12l-254 -150l41 199l269 160h207l-194 -914h-208zM1474 318h270l94 437h-10q-200 -225 -352 -427zM1706 153h-449l34 192q142 193 473 569h300l-126 -589h116l-34 -172h-117l-33 -153h-197z" />
    <glyph glyph-name="onehalf" unicode="&#xbd;" horiz-adv-x="2126" 
d="M1048 757l450 686h210l-502 -733l-464 -710h-210zM608 1234h-12l-254 -150l41 199l269 160h207l-194 -914h-208zM2106 699q0 -96 -57.5 -172.5t-148.5 -144t-112.5 -84.5t-46.5 -36.5t-47.5 -36.5t-38 -29t-18.5 -14l-2 -11h388l-35 -171h-673l32 155l344 269
q131 102 170.5 148.5t39.5 93.5q0 46 -34.5 75.5t-91.5 29.5t-99 -34.5t-53 -94.5v-2h-191q10 131 112.5 215t246.5 84q139 0 227 -72t88 -168z" />
    <glyph glyph-name="threequarters" unicode="&#xbe;" horiz-adv-x="2270" 
d="M1183 757l450 686h210l-502 -733l-464 -710h-210zM1609 318h270l94 437h-10q-200 -225 -352 -427zM1841 153h-449l34 192q142 193 473 569h300l-126 -589h116l-34 -172h-117l-33 -153h-197zM626 1075q67 0 111.5 35t44.5 86t-36 79t-92 28t-97 -27.5t-56 -74.5h-190
q24 120 121 193.5t235 73.5t227 -68.5t89 -165.5t-60 -161t-156 -76l-1 -12q77 -17 118 -66t41 -118t-27.5 -122.5t-76 -92.5t-116 -60.5t-189.5 -21.5t-221 88t-83 220h195q-1 -60 40 -97t113 -37t116 37.5t44 92.5t-40 85.5t-104 30.5h-99l30 151h119z" />
    <glyph glyph-name="questiondown" unicode="&#xbf;" horiz-adv-x="1082" 
d="M156.5 -246.5q-120.5 98.5 -120.5 244.5q0 193 111 280.5t171 113.5q115 51 161.5 97.5t60.5 120.5l10 52h212l-16 -73q-36 -180 -120 -234t-171 -94q-189 -87 -189 -242q0 -72 58 -121.5t155 -49.5q98 0 164.5 50t92.5 139h210q-31 -174 -155.5 -278t-319.5 -104
q-194 0 -314.5 98.5zM829.5 1092q43.5 -42 43.5 -92t-11.5 -79t-32 -50t-49 -32.5t-62.5 -11.5t-62.5 11t-49 31t-32 47.5t-11.5 60.5t11.5 62t43.5 62t100 33t111.5 -42z" />
    <glyph glyph-name="Agrave" unicode="&#xc0;" horiz-adv-x="1423" 
d="M1088 1582h-213l-210 306h242zM554 571h440l-82 608h-16zM1012 383h-554l-215 -383h-237l836 1443h232l212 -1443h-224z" />
    <glyph glyph-name="Aacute" unicode="&#xc1;" horiz-adv-x="1423" 
d="M1238 1888h258l-390 -306h-230zM554 571h440l-82 608h-16zM1012 383h-554l-215 -383h-237l836 1443h232l212 -1443h-224z" />
    <glyph glyph-name="Acircumflex" unicode="&#xc2;" horiz-adv-x="1423" 
d="M1343 1582h-208l-100 188h-17l-179 -188h-231l316 314h234zM554 571h440l-82 608h-16zM1012 383h-554l-215 -383h-237l836 1443h232l212 -1443h-224z" />
    <glyph glyph-name="Atilde" unicode="&#xc3;" horiz-adv-x="1423" 
d="M1171 1728q87 0 108 112h156q-18 -121 -90.5 -192.5t-171.5 -71.5q-100 0 -181.5 77.5t-122.5 77.5q-87 0 -108 -112h-156q20 122 92 193t157 71t128.5 -28.5t65.5 -49t54.5 -49t68.5 -28.5zM554 571h440l-82 608h-16zM1012 383h-554l-215 -383h-237l836 1443h232
l212 -1443h-224z" />
    <glyph glyph-name="Adieresis" unicode="&#xc4;" horiz-adv-x="1423" 
d="M1228 1577q-57 0 -95 38t-38 81t10 68t28 43t42.5 28.5t66.5 10.5t81 -39t39 -82t-10.5 -67.5t-38.5 -52.5t-85 -28zM801 1577q-57 0 -95 38t-38 81t10 68t28 43t42.5 28.5t66.5 10.5t81 -39t39 -82t-10.5 -67.5t-38.5 -52.5t-85 -28zM554 571h440l-82 608h-16zM1012 383
h-554l-215 -383h-237l836 1443h232l212 -1443h-224z" />
    <glyph glyph-name="Aring" unicode="&#xc5;" horiz-adv-x="1423" 
d="M1035 1693q51 0 83.5 32.5t32.5 69.5t-9 58t-24.5 36.5t-36.5 24t-59 8.5t-70.5 -32t-32.5 -82t32.5 -82.5t83.5 -32.5zM798 1808q0 99 68.5 166t168.5 67t168.5 -67t68.5 -166t-69 -166.5t-168 -67.5t-168 67.5t-69 166.5zM554 571h440l-82 608h-16zM1012 383h-554
l-215 -383h-237l836 1443h232l212 -1443h-224z" />
    <glyph glyph-name="AE" unicode="&#xc6;" horiz-adv-x="1999" 
d="M1020 417h-505l-280 -417h-230l938 1443h1163l-42 -204h-655l-91 -415h619l-40 -195h-618l-95 -425h656l-41 -204h-871zM1056 1253l-427 -647h429l139 647h-141z" />
    <glyph glyph-name="Ccedilla" unicode="&#xc7;" horiz-adv-x="1490" 
d="M698 -365q93 -1 93 65t-127 66h-54l14 102l65 101q-225 24 -360.5 183t-135.5 414t126.5 520.5t330.5 328.5t320 63q236 0 395 -140.5t159 -349.5v-8q0 -8 -1 -14h-223q0 2 -2 38t-29 90t-98 113.5t-202 59.5q-242 0 -393.5 -198t-151.5 -489q0 -187 99 -296t250 -109
q152 0 259.5 66t145.5 175h229q-74 -291 -264 -364.5t-298 -83.5l-63 -99q172 -23 172 -160q0 -89 -70 -145.5t-178 -56.5t-184 36l25 119q58 -27 151 -27z" />
    <glyph glyph-name="Egrave" unicode="&#xc8;" horiz-adv-x="1239" 
d="M1033 0h-918l307 1443h917l-41 -204h-690l-91 -408h654l-40 -194h-653l-96 -433h691zM1010 1582h-213l-210 306h242z" />
    <glyph glyph-name="Eacute" unicode="&#xc9;" horiz-adv-x="1239" 
d="M1033 0h-918l307 1443h917l-41 -204h-690l-91 -408h654l-40 -194h-653l-96 -433h691zM1160 1888h258l-390 -306h-230z" />
    <glyph glyph-name="Ecircumflex" unicode="&#xca;" horiz-adv-x="1239" 
d="M1033 0h-918l307 1443h917l-41 -204h-690l-91 -408h654l-40 -194h-653l-96 -433h691zM1265 1582h-208l-100 188h-17l-179 -188h-231l316 314h234z" />
    <glyph glyph-name="Edieresis" unicode="&#xcb;" horiz-adv-x="1239" 
d="M1033 0h-918l307 1443h917l-41 -204h-690l-91 -408h654l-40 -194h-653l-96 -433h691zM1150 1577q-57 0 -95 38t-38 81t10 68t28 43t42.5 28.5t66.5 10.5t81 -39t39 -82t-10.5 -67.5t-38.5 -52.5t-85 -28zM723 1577q-57 0 -95 38t-38 81t10 68t28 43t42.5 28.5t66.5 10.5
t81 -39t39 -82t-10.5 -67.5t-38.5 -52.5t-85 -28z" />
    <glyph glyph-name="Igrave" unicode="&#xcc;" horiz-adv-x="587" 
d="M666 1582h-213l-210 306h242zM115 0l307 1443h227l-307 -1443h-227z" />
    <glyph glyph-name="Iacute" unicode="&#xcd;" horiz-adv-x="587" 
d="M816 1888h258l-390 -306h-230zM115 0l307 1443h227l-307 -1443h-227z" />
    <glyph glyph-name="Icircumflex" unicode="&#xce;" horiz-adv-x="587" 
d="M921 1582h-208l-100 188h-17l-179 -188h-231l316 314h234zM115 0l307 1443h227l-307 -1443h-227z" />
    <glyph glyph-name="Idieresis" unicode="&#xcf;" horiz-adv-x="587" 
d="M806 1577q-57 0 -95 38t-38 81t10 68t28 43t42.5 28.5t66.5 10.5t81 -39t39 -82t-10.5 -67.5t-38.5 -52.5t-85 -28zM379 1577q-57 0 -95 38t-38 81t10 68t28 43t42.5 28.5t66.5 10.5t81 -39t39 -82t-10.5 -67.5t-38.5 -52.5t-85 -28zM115 0l307 1443h227l-307 -1443h-227
z" />
    <glyph glyph-name="Eth" unicode="&#xd0;" horiz-adv-x="1497" 
d="M864 1443q292 0 453.5 -163t161.5 -449q0 -179 -57 -331.5t-157.5 -263.5t-237.5 -173.5t-297 -62.5h-614l136 643h-190l39 191h192l129 609h442zM725 202q228 0 375.5 172t147.5 437q0 202 -110.5 316t-307.5 114h-221l-89 -407h192l-39 -191h-194l-96 -441h342z" />
    <glyph glyph-name="Ntilde" unicode="&#xd1;" horiz-adv-x="1539" 
d="M115 0l307 1443h196l514 -1055h17l229 1055h223l-307 -1443h-198l-514 1051h-17l-228 -1051h-222zM1224 1728q87 0 108 112h156q-18 -121 -90.5 -192.5t-171.5 -71.5q-100 0 -181.5 77.5t-122.5 77.5q-87 0 -108 -112h-156q20 122 92 193t157 71t128.5 -28.5t65.5 -49
t54.5 -49t68.5 -28.5z" />
    <glyph glyph-name="Ograve" unicode="&#xd2;" horiz-adv-x="1593" 
d="M1341 828q0 211 -104 324.5t-272 113.5q-114 0 -212.5 -52t-212 -194.5t-113.5 -432.5q0 -184 104 -297.5t276 -113.5q230 0 341.5 142t152 266.5t40.5 243.5zM317.5 182q-123.5 126 -123.5 386t101.5 467t280 325t402.5 118q263 0 429.5 -170.5t166.5 -433.5
q0 -397 -221 -653t-570 -256q-122 0 -232 45.5t-233.5 171.5zM1106 1580h-213l-210 306h242z" />
    <glyph glyph-name="Oacute" unicode="&#xd3;" horiz-adv-x="1593" 
d="M1341 828q0 211 -104 324.5t-272 113.5q-114 0 -212.5 -52t-212 -194.5t-113.5 -432.5q0 -184 104 -297.5t276 -113.5q230 0 341.5 142t152 266.5t40.5 243.5zM317.5 182q-123.5 126 -123.5 386t101.5 467t280 325t402.5 118q263 0 429.5 -170.5t166.5 -433.5
q0 -397 -221 -653t-570 -256q-122 0 -232 45.5t-233.5 171.5zM1256 1886h258l-390 -306h-230z" />
    <glyph glyph-name="Ocircumflex" unicode="&#xd4;" horiz-adv-x="1593" 
d="M1341 828q0 211 -104 324.5t-272 113.5q-114 0 -212.5 -52t-212 -194.5t-113.5 -432.5q0 -184 104 -297.5t276 -113.5q230 0 341.5 142t152 266.5t40.5 243.5zM317.5 182q-123.5 126 -123.5 386t101.5 467t280 325t402.5 118q263 0 429.5 -170.5t166.5 -433.5
q0 -397 -221 -653t-570 -256q-122 0 -232 45.5t-233.5 171.5zM1361 1580h-208l-100 188h-17l-179 -188h-231l316 314h234z" />
    <glyph glyph-name="Otilde" unicode="&#xd5;" horiz-adv-x="1593" 
d="M1189 1726q87 0 108 112h156q-18 -121 -90.5 -192.5t-171.5 -71.5q-100 0 -181.5 77.5t-122.5 77.5q-87 0 -108 -112h-156q20 122 92 193t157 71t128.5 -28.5t65.5 -49t54.5 -49t68.5 -28.5zM1341 828q0 211 -104 324.5t-272 113.5q-114 0 -212.5 -52t-212 -194.5
t-113.5 -432.5q0 -184 104 -297.5t276 -113.5q230 0 341.5 142t152 266.5t40.5 243.5zM317.5 182q-123.5 126 -123.5 386t101.5 467t280 325t402.5 118q263 0 429.5 -170.5t166.5 -433.5q0 -397 -221 -653t-570 -256q-122 0 -232 45.5t-233.5 171.5z" />
    <glyph glyph-name="Odieresis" unicode="&#xd6;" horiz-adv-x="1593" 
d="M1341 828q0 211 -104 324.5t-272 113.5q-114 0 -212.5 -52t-212 -194.5t-113.5 -432.5q0 -184 104 -297.5t276 -113.5q230 0 341.5 142t152 266.5t40.5 243.5zM317.5 182q-123.5 126 -123.5 386t101.5 467t280 325t402.5 118q263 0 429.5 -170.5t166.5 -433.5
q0 -397 -221 -653t-570 -256q-122 0 -232 45.5t-233.5 171.5zM1246 1575q-57 0 -95 38t-38 81t10 68t28 43t42.5 28.5t66.5 10.5t81 -39t39 -82t-10.5 -67.5t-38.5 -52.5t-85 -28zM819 1575q-57 0 -95 38t-38 81t10 68t28 43t42.5 28.5t66.5 10.5t81 -39t39 -82t-10.5 -67.5
t-38.5 -52.5t-85 -28z" />
    <glyph glyph-name="multiply" unicode="&#xd7;" horiz-adv-x="1359" 
d="M716 437l-368 -295l-112 155l368 295l-237 311l157 127l235 -306l369 295l112 -156l-368 -295l234 -311l-157 -127z" />
    <glyph glyph-name="Oslash" unicode="&#xd8;" horiz-adv-x="1566" 
d="M1574 874q0 -397 -181.5 -607t-334.5 -256t-265 -46q-182 0 -323 86l-78 -107l-101 71l81 111q-178 170 -178 436t101.5 473t280 325t380.5 118t342 -84l74 102l101 -64l-80 -110q181 -170 181 -448zM965 1266q-114 0 -212.5 -52t-212 -194.5t-113.5 -432.5
q0 -162 83 -272l655 897q-86 54 -200 54zM1341 855q0 166 -86 277l-654 -900q89 -56 205 -56q231 0 383 193.5t152 485.5z" />
    <glyph glyph-name="Ugrave" unicode="&#xd9;" horiz-adv-x="1538" 
d="M754 -35q-248 0 -387.5 127.5t-141.5 330.5q-2 59 13 127l187 893h228l-186 -882q-46 -213 55 -299t255 -86q229 0 303 124t91 201l201 942h227l-210 -992q-78 -355 -291.5 -420.5t-343.5 -65.5zM1140 1582h-213l-210 306h242z" />
    <glyph glyph-name="Uacute" unicode="&#xda;" horiz-adv-x="1538" 
d="M754 -35q-248 0 -387.5 127.5t-141.5 330.5q-2 59 13 127l187 893h228l-186 -882q-46 -213 55 -299t255 -86q229 0 303 124t91 201l201 942h227l-210 -992q-78 -355 -291.5 -420.5t-343.5 -65.5zM1290 1888h258l-390 -306h-230z" />
    <glyph glyph-name="Ucircumflex" unicode="&#xdb;" horiz-adv-x="1538" 
d="M754 -35q-248 0 -387.5 127.5t-141.5 330.5q-2 59 13 127l187 893h228l-186 -882q-46 -213 55 -299t255 -86q229 0 303 124t91 201l201 942h227l-210 -992q-78 -355 -291.5 -420.5t-343.5 -65.5zM1395 1582h-208l-100 188h-17l-179 -188h-231l316 314h234z" />
    <glyph glyph-name="Udieresis" unicode="&#xdc;" horiz-adv-x="1538" 
d="M754 -35q-248 0 -387.5 127.5t-141.5 330.5q-2 59 13 127l187 893h228l-186 -882q-46 -213 55 -299t255 -86q229 0 303 124t91 201l201 942h227l-210 -992q-78 -355 -291.5 -420.5t-343.5 -65.5zM1280 1577q-57 0 -95 38t-38 81t10 68t28 43t42.5 28.5t66.5 10.5t81 -39
t39 -82t-10.5 -67.5t-38.5 -52.5t-85 -28zM853 1577q-57 0 -95 38t-38 81t10 68t28 43t42.5 28.5t66.5 10.5t81 -39t39 -82t-10.5 -67.5t-38.5 -52.5t-85 -28z" />
    <glyph glyph-name="Yacute" unicode="&#xdd;" horiz-adv-x="1383" 
d="M1212 1888h258l-390 -306h-230zM513 0l126 582l-327 861h234l242 -631h17l497 631h251l-693 -881l-120 -562h-227z" />
    <glyph glyph-name="Thorn" unicode="&#xde;" horiz-adv-x="1317" 
d="M723 521q163 0 256.5 72.5t93.5 201.5q0 93 -61.5 145.5t-183.5 52.5h-277l-102 -472h274zM901 1192q177 0 289.5 -105t112.5 -269q0 -217 -156 -356t-407 -139h-331l-70 -323h-223l307 1443h223l-55 -251h310z" />
    <glyph glyph-name="germandbls" unicode="&#xdf;" horiz-adv-x="1362" 
d="M727 174q144 0 230 73t86 174t-77 156.5t-207 55.5h-72l41 202h77q105 0 179.5 63.5t74.5 151.5t-60.5 140t-161.5 52t-170 -61t-94 -175l-214 -1006h-216l230 1079q36 166 162.5 261.5t312.5 95.5t307 -98t121 -241t-89.5 -238t-230.5 -111l-4 -19q217 -28 261.5 -135
t44.5 -187t-37.5 -161t-141.5 -172.5t-326 -91.5q-121 0 -223 37l39 188q76 -33 158 -33z" />
    <glyph glyph-name="agrave" unicode="&#xe0;" horiz-adv-x="1153" 
d="M619 1271l-222 344h247l191 -344h-216zM674 923q-173 0 -222 -119h-215q37 142 159 224t301 82t292.5 -85t113.5 -227q0 -46 -9 -88l-150 -710h-209l30 139h-17q-54 -73 -139 -115t-169 -42q-154 0 -248 85.5t-94 213.5q0 163 124 258t350 103l295 12l15 71q6 32 6 46
q0 72 -56.5 112t-157.5 40zM381 432.5q-67 -46.5 -67 -117.5t53.5 -112.5t123.5 -41.5q125 0 210.5 63t107.5 160l25 112l-265 -12q-121 -5 -188 -51.5z" />
    <glyph glyph-name="aacute" unicode="&#xe1;" horiz-adv-x="1153" 
d="M960 1615h252l-354 -344h-222zM674 923q-173 0 -222 -119h-215q37 142 159 224t301 82t292.5 -85t113.5 -227q0 -46 -9 -88l-150 -710h-209l30 139h-17q-54 -73 -139 -115t-169 -42q-154 0 -248 85.5t-94 213.5q0 163 124 258t350 103l295 12l15 71q6 32 6 46
q0 72 -56.5 112t-157.5 40zM381 432.5q-67 -46.5 -67 -117.5t53.5 -112.5t123.5 -41.5q125 0 210.5 63t107.5 160l25 112l-265 -12q-121 -5 -188 -51.5z" />
    <glyph glyph-name="acircumflex" unicode="&#xe2;" horiz-adv-x="1153" 
d="M1123 1238h-210l-120 219h-17l-213 -219h-233l352 346h234zM674 923q-173 0 -222 -119h-215q37 142 159 224t301 82t292.5 -85t113.5 -227q0 -46 -9 -88l-150 -710h-209l30 139h-17q-54 -73 -139 -115t-169 -42q-154 0 -248 85.5t-94 213.5q0 163 124 258t350 103l295 12
l15 71q6 32 6 46q0 72 -56.5 112t-157.5 40zM381 432.5q-67 -46.5 -67 -117.5t53.5 -112.5t123.5 -41.5q125 0 210.5 63t107.5 160l25 112l-265 -12q-121 -5 -188 -51.5z" />
    <glyph glyph-name="atilde" unicode="&#xe3;" horiz-adv-x="1153" 
d="M940 1230q-47 0 -79.5 13t-58 32.5t-46 42t-52 55t-68.5 32.5q-83 0 -107 -132h-157q16 133 88 208.5t175 75.5t167 -72t87.5 -87.5t47.5 -15.5q84 0 108 132h157q-24 -203 -119.5 -243.5t-142.5 -40.5zM674 923q-173 0 -222 -119h-215q37 142 159 224t301 82t292.5 -85
t113.5 -227q0 -46 -9 -88l-150 -710h-209l30 139h-17q-54 -73 -139 -115t-169 -42q-154 0 -248 85.5t-94 213.5q0 163 124 258t350 103l295 12l15 71q6 32 6 46q0 72 -56.5 112t-157.5 40zM381 432.5q-67 -46.5 -67 -117.5t53.5 -112.5t123.5 -41.5q125 0 210.5 63
t107.5 160l25 112l-265 -12q-121 -5 -188 -51.5z" />
    <glyph glyph-name="adieresis" unicode="&#xe4;" horiz-adv-x="1153" 
d="M979 1238q-57 0 -95 38t-38 81t10 68t28 43t42.5 28.5t66.5 10.5t81 -39t39 -82t-10.5 -67.5t-38.5 -52.5t-85 -28zM552 1238q-57 0 -95 38t-38 81t10 68t28 43t42.5 28.5t66.5 10.5t81 -39t39 -82t-10.5 -67.5t-38.5 -52.5t-85 -28zM674 923q-173 0 -222 -119h-215
q37 142 159 224t301 82t292.5 -85t113.5 -227q0 -46 -9 -88l-150 -710h-209l30 139h-17q-54 -73 -139 -115t-169 -42q-154 0 -248 85.5t-94 213.5q0 163 124 258t350 103l295 12l15 71q6 32 6 46q0 72 -56.5 112t-157.5 40zM381 432.5q-67 -46.5 -67 -117.5t53.5 -112.5
t123.5 -41.5q125 0 210.5 63t107.5 160l25 112l-265 -12q-121 -5 -188 -51.5z" />
    <glyph glyph-name="aring" unicode="&#xe5;" horiz-adv-x="1153" 
d="M800 1357q51 0 83.5 32.5t32.5 69.5t-9 58t-24.5 36.5t-36.5 24t-59 8.5t-70.5 -32t-32.5 -82t32.5 -82.5t83.5 -32.5zM563 1472q0 99 68.5 166t168.5 67t168.5 -67t68.5 -166t-69 -166.5t-168 -67.5t-168 67.5t-69 166.5zM674 923q-173 0 -222 -119h-215q37 142 159 224
t301 82t292.5 -85t113.5 -227q0 -46 -9 -88l-150 -710h-209l30 139h-17q-54 -73 -139 -115t-169 -42q-154 0 -248 85.5t-94 213.5q0 163 124 258t350 103l295 12l15 71q6 32 6 46q0 72 -56.5 112t-157.5 40zM381 432.5q-67 -46.5 -67 -117.5t53.5 -112.5t123.5 -41.5
q125 0 210.5 63t107.5 160l25 112l-265 -12q-121 -5 -188 -51.5z" />
    <glyph glyph-name="ae" unicode="&#xe6;" horiz-adv-x="1887" 
d="M513 158q105 0 190 64.5t107 161.5l25 112l-266 -12q-121 -5 -188 -51t-67 -123q0 -103 75 -127.5t124 -24.5zM1624 702q0 91 -61 158t-169 67q-174 0 -238 -107t-81 -169h547q2 11 2 51zM456 -21q-153 0 -255.5 87.5t-102.5 216.5q0 167 122.5 260.5t352.5 101.5l294 12
l16 68q5 25 5 46q0 72 -56.5 112t-156.5 40q-173 0 -222 -119h-216q36 143 158 224.5t294 81.5q120 0 209.5 -42.5t133.5 -120.5h17q142 163 363 163q180 0 303 -121.5t123 -325.5q0 -85 -15 -170h-774q-2 -22 -2 -71t22 -102.5t76 -103t159 -49.5q184 0 251 126h218
q-35 -139 -166.5 -226.5t-325.5 -87.5q-195 0 -279 86t-106 137h-16q-94 -151 -222 -187t-202 -36z" />
    <glyph glyph-name="ccedilla" unicode="&#xe7;" horiz-adv-x="1170" 
d="M476 -365q93 -1 93 65t-127 66h-54l14 102l80 123q-155 34 -244.5 153t-89.5 279q0 307 164.5 497t418.5 190q170 0 288.5 -94.5t139.5 -232.5q2 -11 2.5 -23t1.5 -23h-212q-6 80 -72.5 130.5t-152.5 50.5q-162 0 -260 -131.5t-98 -324.5q0 -137 67 -213.5t171 -76.5
q207 0 267 165h215q-30 -151 -154 -250t-304 -107l-70 -111q172 -23 172 -160q0 -89 -70 -145.5t-178 -56.5t-184 36l25 119q58 -27 151 -27z" />
    <glyph glyph-name="egrave" unicode="&#xe8;" horiz-adv-x="1198" 
d="M940 704q0 89 -61.5 156t-169.5 67q-174 0 -238 -107t-81 -169h547q3 15 3 53zM619 167q185 0 252 126h218q-37 -141 -166 -227.5t-323 -86.5t-322.5 123t-128.5 338q0 299 160.5 484.5t413.5 185.5q183 0 306.5 -121.5t123.5 -325.5q0 -91 -14 -170h-775q-1 -11 -1 -14
v-62q0 -43 22 -96.5t75 -103.5t159 -50zM617 1271l-222 344h247l191 -344h-216z" />
    <glyph glyph-name="eacute" unicode="&#xe9;" horiz-adv-x="1198" 
d="M940 704q0 89 -61.5 156t-169.5 67q-174 0 -238 -107t-81 -169h547q3 15 3 53zM619 167q185 0 252 126h218q-37 -141 -166 -227.5t-323 -86.5t-322.5 123t-128.5 338q0 299 160.5 484.5t413.5 185.5q183 0 306.5 -121.5t123.5 -325.5q0 -91 -14 -170h-775q-1 -11 -1 -14
v-62q0 -43 22 -96.5t75 -103.5t159 -50zM958 1615h252l-354 -344h-222z" />
    <glyph glyph-name="ecircumflex" unicode="&#xea;" horiz-adv-x="1198" 
d="M940 704q0 89 -61.5 156t-169.5 67q-174 0 -238 -107t-81 -169h547q3 15 3 53zM619 167q185 0 252 126h218q-37 -141 -166 -227.5t-323 -86.5t-322.5 123t-128.5 338q0 299 160.5 484.5t413.5 185.5q183 0 306.5 -121.5t123.5 -325.5q0 -91 -14 -170h-775q-1 -11 -1 -14
v-62q0 -43 22 -96.5t75 -103.5t159 -50zM1133 1238h-210l-120 219h-17l-213 -219h-233l352 346h234z" />
    <glyph glyph-name="edieresis" unicode="&#xeb;" horiz-adv-x="1198" 
d="M989 1238q-57 0 -95 38t-38 81t10 68t28 43t42.5 28.5t66.5 10.5t81 -39t39 -82t-10.5 -67.5t-38.5 -52.5t-85 -28zM562 1238q-57 0 -95 38t-38 81t10 68t28 43t42.5 28.5t66.5 10.5t81 -39t39 -82t-10.5 -67.5t-38.5 -52.5t-85 -28zM940 704q0 89 -61.5 156t-169.5 67
q-174 0 -238 -107t-81 -169h547q3 15 3 53zM619 167q185 0 252 126h218q-37 -141 -166 -227.5t-323 -86.5t-322.5 123t-128.5 338q0 299 160.5 484.5t413.5 185.5q183 0 306.5 -121.5t123.5 -325.5q0 -91 -14 -170h-775q-1 -11 -1 -14v-62q0 -43 22 -96.5t75 -103.5t159 -50
z" />
    <glyph glyph-name="igrave" unicode="&#xec;" horiz-adv-x="546" 
d="M331 1089h215l-231 -1089h-215zM339 1271l-222 344h247l191 -344h-216z" />
    <glyph glyph-name="iacute" unicode="&#xed;" horiz-adv-x="546" 
d="M331 1089h215l-231 -1089h-215zM680 1615h252l-354 -344h-222z" />
    <glyph glyph-name="icircumflex" unicode="&#xee;" horiz-adv-x="546" 
d="M331 1089h215l-231 -1089h-215zM855 1238h-210l-120 219h-17l-213 -219h-233l352 346h234z" />
    <glyph glyph-name="idieresis" unicode="&#xef;" horiz-adv-x="546" 
d="M711 1238q-57 0 -95 38t-38 81t10 68t28 43t42.5 28.5t66.5 10.5t81 -39t39 -82t-10.5 -67.5t-38.5 -52.5t-85 -28zM284 1238q-57 0 -95 38t-38 81t10 68t28 43t42.5 28.5t66.5 10.5t81 -39t39 -82t-10.5 -67.5t-38.5 -52.5t-85 -28zM331 1089h215l-231 -1089h-215z" />
    <glyph glyph-name="eth" unicode="&#xf0;" horiz-adv-x="1229" 
d="M972 596q0 132 -76.5 207t-207.5 75t-228.5 -125.5t-97.5 -307.5q0 -124 69.5 -197t198.5 -73t206 95.5t106.5 174.5t29.5 151zM1081 1297q128 -252 128 -532t-117 -481t-251.5 -253t-236.5 -52q-204 0 -336 125.5t-132 317.5q0 272 150 457.5t375 185.5q174 0 245 -70
t88 -110l16 -1q-6 168 -108 354l-337 -101l-13 138l274 83q-38 53 -135 152h241q58 -64 78 -93l240 75l14 -139z" />
    <glyph glyph-name="ntilde" unicode="&#xf1;" horiz-adv-x="1247" 
d="M859 1110q143 0 238 -93.5t95 -228.5q0 -60 -15 -127l-139 -661h-217l132 623q12 54 12 97q0 88 -59.5 142t-164.5 54t-188.5 -72.5t-107.5 -185.5l-140 -658h-217l231 1093h209l-35 -167h17q118 184 349 184zM1002 1232q-47 0 -79.5 13t-58 32.5t-46 42t-52 55
t-68.5 32.5q-83 0 -107 -132h-157q16 133 88 208.5t175 75.5t167 -72t87.5 -87.5t47.5 -15.5q84 0 108 132h157q-24 -203 -119.5 -243.5t-142.5 -40.5z" />
    <glyph glyph-name="ograve" unicode="&#xf2;" horiz-adv-x="1238" 
d="M624 -21q-223 0 -349.5 128t-126.5 334q0 283 162 476t428 193q206 0 331.5 -127.5t125.5 -333.5q0 -279 -116.5 -420t-225.5 -195.5t-229 -54.5zM374 474q0 -146 68 -224.5t195 -78.5t229 130t102 332t-95 244t-163 42t-132.5 -35.5t-109.5 -98t-69.5 -147t-24.5 -164.5
zM634 1271l-222 344h247l191 -344h-216z" />
    <glyph glyph-name="oacute" unicode="&#xf3;" horiz-adv-x="1238" 
d="M624 -21q-223 0 -349.5 128t-126.5 334q0 283 162 476t428 193q206 0 331.5 -127.5t125.5 -333.5q0 -279 -116.5 -420t-225.5 -195.5t-229 -54.5zM374 474q0 -146 68 -224.5t195 -78.5t229 130t102 332t-95 244t-163 42t-132.5 -35.5t-109.5 -98t-69.5 -147t-24.5 -164.5
zM975 1615h252l-354 -344h-222z" />
    <glyph glyph-name="ocircumflex" unicode="&#xf4;" horiz-adv-x="1238" 
d="M624 -21q-223 0 -349.5 128t-126.5 334q0 283 162 476t428 193q206 0 331.5 -127.5t125.5 -333.5q0 -279 -116.5 -420t-225.5 -195.5t-229 -54.5zM374 474q0 -146 68 -224.5t195 -78.5t229 130t102 332t-95 244t-163 42t-132.5 -35.5t-109.5 -98t-69.5 -147t-24.5 -164.5
zM1150 1238h-210l-120 219h-17l-213 -219h-233l352 346h234z" />
    <glyph glyph-name="otilde" unicode="&#xf5;" horiz-adv-x="1238" 
d="M624 -21q-223 0 -349.5 128t-126.5 334q0 283 162 476t428 193q206 0 331.5 -127.5t125.5 -333.5q0 -279 -116.5 -420t-225.5 -195.5t-229 -54.5zM374 474q0 -146 68 -224.5t195 -78.5t229 130t102 332t-95 244t-163 42t-132.5 -35.5t-109.5 -98t-69.5 -147t-24.5 -164.5
zM967 1230q-47 0 -79.5 13t-58 32.5t-46 42t-52 55t-68.5 32.5q-83 0 -107 -132h-157q16 133 88 208.5t175 75.5t167 -72t87.5 -87.5t47.5 -15.5q84 0 108 132h157q-24 -203 -119.5 -243.5t-142.5 -40.5z" />
    <glyph glyph-name="odieresis" unicode="&#xf6;" horiz-adv-x="1238" 
d="M624 -21q-223 0 -349.5 128t-126.5 334q0 283 162 476t428 193q206 0 331.5 -127.5t125.5 -333.5q0 -279 -116.5 -420t-225.5 -195.5t-229 -54.5zM374 474q0 -146 68 -224.5t195 -78.5t229 130t102 332t-95 244t-163 42t-132.5 -35.5t-109.5 -98t-69.5 -147t-24.5 -164.5
zM1006 1238q-57 0 -95 38t-38 81t10 68t28 43t42.5 28.5t66.5 10.5t81 -39t39 -82t-10.5 -67.5t-38.5 -52.5t-85 -28zM579 1238q-57 0 -95 38t-38 81t10 68t28 43t42.5 28.5t66.5 10.5t81 -39t39 -82t-10.5 -67.5t-38.5 -52.5t-85 -28z" />
    <glyph glyph-name="divide" unicode="&#xf7;" horiz-adv-x="1360" 
d="M551 108.5q-39 40.5 -39 84.5q0 45 10.5 71.5t29 45.5t44 30t71 11t85 -39.5t39.5 -85.5t-10 -72t-39 -56t-90.5 -30t-100.5 40.5zM808 813q-62 0 -101 40.5t-39 84.5q0 45 10.5 71t29 45t44 30t71 11t85 -39.5t39.5 -85.5t-10 -72t-38.5 -55.5t-90.5 -29.5zM200 491
l36 182h1041l-37 -182h-1040z" />
    <glyph glyph-name="oslash" unicode="&#xf8;" horiz-adv-x="1243" 
d="M1195 649q0 -279 -161.5 -474.5t-426.5 -195.5q-164 0 -282 85l-101 -117l-89 67l110 127q-97 122 -97 280q0 304 162 496.5t428 192.5q162 0 277 -82l99 114l88 -62l-108 -125q101 -124 101 -306zM728 919q-164 0 -259 -132t-95 -331q0 -76 26 -137l475 548
q-61 52 -147 52zM612 171q152 0 254 130t102 318q0 90 -28 157l-474 -549q64 -56 146 -56z" />
    <glyph glyph-name="ugrave" unicode="&#xf9;" horiz-adv-x="1247" 
d="M385 365q0 -189 207 -189q180 0 240.5 104t73.5 163l138 646h216l-230 -1089h-208l34 155h-17q-73 -123 -178 -149.5t-172 -26.5q-141 0 -235 88.5t-94 228.5q0 65 15 140l136 653h218l-131 -618q-13 -68 -13 -106zM680 1271l-222 344h247l191 -344h-216z" />
    <glyph glyph-name="uacute" unicode="&#xfa;" horiz-adv-x="1247" 
d="M385 365q0 -189 207 -189q180 0 240.5 104t73.5 163l138 646h216l-230 -1089h-208l34 155h-17q-73 -123 -178 -149.5t-172 -26.5q-141 0 -235 88.5t-94 228.5q0 65 15 140l136 653h218l-131 -618q-13 -68 -13 -106zM1021 1615h252l-354 -344h-222z" />
    <glyph glyph-name="ucircumflex" unicode="&#xfb;" horiz-adv-x="1247" 
d="M385 365q0 -189 207 -189q180 0 240.5 104t73.5 163l138 646h216l-230 -1089h-208l34 155h-17q-73 -123 -178 -149.5t-172 -26.5q-141 0 -235 88.5t-94 228.5q0 65 15 140l136 653h218l-131 -618q-13 -68 -13 -106zM1196 1238h-210l-120 219h-17l-213 -219h-233l352 346
h234z" />
    <glyph glyph-name="udieresis" unicode="&#xfc;" horiz-adv-x="1247" 
d="M1052 1238q-57 0 -95 38t-38 81t10 68t28 43t42.5 28.5t66.5 10.5t81 -39t39 -82t-10.5 -67.5t-38.5 -52.5t-85 -28zM625 1238q-57 0 -95 38t-38 81t10 68t28 43t42.5 28.5t66.5 10.5t81 -39t39 -82t-10.5 -67.5t-38.5 -52.5t-85 -28zM385 365q0 -189 207 -189
q180 0 240.5 104t73.5 163l138 646h216l-230 -1089h-208l34 155h-17q-73 -123 -178 -149.5t-172 -26.5q-141 0 -235 88.5t-94 228.5q0 65 15 140l136 653h218l-131 -618q-13 -68 -13 -106z" />
    <glyph glyph-name="yacute" unicode="&#xfd;" horiz-adv-x="1146" 
d="M980 1615h252l-354 -344h-222zM264 -177.5q49 34.5 96 120.5l33 60l-164 1086h216l105 -842h17l448 842h233l-666 -1173q-98 -178 -194.5 -245.5t-239.5 -67.5q-51 0 -123 9l33 185q29 -9 93 -9t113 34.5z" />
    <glyph glyph-name="thorn" unicode="&#xfe;" horiz-adv-x="1288" 
d="M865 1108q163 0 271.5 -118t108.5 -286q0 -167 -42.5 -296t-117 -223.5t-175.5 -148.5t-218 -54t-204 60t-115 157h-17l-120 -552h-216l397 1859h214l-119 -567h17q123 169 336 169zM672 177q66 0 132 36t141.5 136.5t75.5 302.5q0 127 -64.5 195t-158.5 68
q-173 0 -279 -136.5t-106 -330.5t96.5 -232.5t162.5 -38.5z" />
    <glyph glyph-name="ydieresis" unicode="&#xff;" horiz-adv-x="1146" 
d="M1011 1238q-57 0 -95 38t-38 81t10 68t28 43t42.5 28.5t66.5 10.5t81 -39t39 -82t-10.5 -67.5t-38.5 -52.5t-85 -28zM584 1238q-57 0 -95 38t-38 81t10 68t28 43t42.5 28.5t66.5 10.5t81 -39t39 -82t-10.5 -67.5t-38.5 -52.5t-85 -28zM264 -177.5q49 34.5 96 120.5l33 60
l-164 1086h216l105 -842h17l448 842h233l-666 -1173q-98 -178 -194.5 -245.5t-239.5 -67.5q-51 0 -123 9l33 185q29 -9 93 -9t113 34.5z" />
    <glyph glyph-name="Amacron" unicode="&#x100;" horiz-adv-x="1423" 
d="M647 1625l32 156h699l-32 -156h-699zM554 571h440l-82 608h-16zM1012 383h-554l-215 -383h-237l836 1443h232l212 -1443h-224z" />
    <glyph glyph-name="amacron" unicode="&#x101;" horiz-adv-x="1153" 
d="M403 1299l32 155h696l-32 -155h-696zM674 923q-173 0 -222 -119h-215q37 142 159 224t301 82t292.5 -85t113.5 -227q0 -46 -9 -88l-150 -710h-209l30 139h-17q-54 -73 -139 -115t-169 -42q-154 0 -248 85.5t-94 213.5q0 163 124 258t350 103l295 12l15 71q6 32 6 46
q0 72 -56.5 112t-157.5 40zM381 432.5q-67 -46.5 -67 -117.5t53.5 -112.5t123.5 -41.5q125 0 210.5 63t107.5 160l25 112l-265 -12q-121 -5 -188 -51.5z" />
    <glyph glyph-name="Abreve" unicode="&#x102;" horiz-adv-x="1423" 
d="M646 1891h170v-16q0 -65 53.5 -108t137.5 -43t139 44t75 123h172q-24 -143 -130.5 -228.5t-261.5 -85.5q-156 0 -255.5 82.5t-99.5 212.5v19zM554 571h440l-82 608h-16zM1012 383h-554l-215 -383h-237l836 1443h232l212 -1443h-224z" />
    <glyph glyph-name="abreve" unicode="&#x103;" horiz-adv-x="1153" 
d="M571 1536q0 -64 53 -107.5t139 -43.5q201 0 229 191h174q-25 -238 -173.5 -288t-234.5 -50q-167 0 -263 83.5t-96 210.5q0 21 3 44h171q-2 -12 -2 -40zM674 923q-173 0 -222 -119h-215q37 142 159 224t301 82t292.5 -85t113.5 -227q0 -46 -9 -88l-150 -710h-209l30 139
h-17q-54 -73 -139 -115t-169 -42q-154 0 -248 85.5t-94 213.5q0 163 124 258t350 103l295 12l15 71q6 32 6 46q0 72 -56.5 112t-157.5 40zM381 432.5q-67 -46.5 -67 -117.5t53.5 -112.5t123.5 -41.5q125 0 210.5 63t107.5 160l25 112l-265 -12q-121 -5 -188 -51.5z" />
    <glyph glyph-name="Aogonek" unicode="&#x104;" horiz-adv-x="1423" 
d="M1077 -202q0 -90 110 -90q46 0 65 7l-28 -143q-41 -15 -101 -15q-109 0 -170.5 51.5t-61.5 135.5t45 149.5t141 123.5l1 5h-19l-47 361h-554l-215 -383h-237l836 1443h232l209 -1419q-206 -105 -206 -226zM554 571h440l-82 608h-16z" />
    <glyph glyph-name="aogonek" unicode="&#x105;" horiz-adv-x="1153" 
d="M512 161q104 0 189.5 63t107.5 160l25 112l-265 -12q-121 -5 -188 -51t-67 -123q0 -103 75 -126t123 -23zM748 139q-115 -157 -332 -157q-128 0 -223 85.5t-95 213.5q0 249 180.5 303t293.5 58l295 12l15 71q6 27 6 46q0 72 -56.5 112t-157.5 40q-173 0 -222 -119h-215
q37 142 159 224t301 82t292.5 -85t113.5 -227q0 -46 -9 -88l-145 -686q-186 -94 -204 -204q-9 -52 18.5 -82t81.5 -30t73 7l-29 -143q-43 -15 -104 -15q-119 0 -180.5 63t-43.5 165q11 69 56.5 121.5t133.5 98.5l1 5h-13l26 129h-17z" />
    <glyph glyph-name="Cacute" unicode="&#x106;" horiz-adv-x="1490" 
d="M932 1267q-93 0 -189 -52.5t-207.5 -198t-111.5 -436.5q0 -187 99 -296t250 -109q152 0 259.5 66t145.5 175h229q-52 -208 -224 -329.5t-423 -121.5t-409 162t-158 428t126.5 531.5t330.5 328.5t320 63q236 0 395 -140.5t159 -349.5v-8q0 -8 -1 -14h-223q0 2 -2 38
t-29 90t-73 92.5t-108.5 59.5t-155.5 21zM1239 1890h258l-390 -306h-230z" />
    <glyph glyph-name="cacute" unicode="&#x107;" horiz-adv-x="1172" 
d="M994 1615h252l-354 -344h-222zM368 462q0 -137 67 -213.5t171 -76.5q207 0 267 165h215q-32 -158 -164.5 -258t-329.5 -100t-321.5 125.5t-124.5 334.5q0 291 164.5 481t418.5 190q170 0 288.5 -94.5t139.5 -232.5q2 -11 2.5 -23t1.5 -23h-212q-6 80 -72.5 130.5
t-176.5 50.5q-62 0 -126 -35t-136 -131.5t-72 -289.5z" />
    <glyph glyph-name="Ccircumflex" unicode="&#x108;" horiz-adv-x="1490" 
d="M1344 1584h-208l-100 188h-17l-179 -188h-231l316 314h234zM932 1267q-93 0 -189 -52.5t-207.5 -198t-111.5 -436.5q0 -187 99 -296t250 -109q152 0 259.5 66t145.5 175h229q-52 -208 -224 -329.5t-423 -121.5t-409 162t-158 428t126.5 531.5t330.5 328.5t320 63
q236 0 395 -140.5t159 -349.5v-8q0 -8 -1 -14h-223q0 2 -2 38t-29 90t-73 92.5t-108.5 59.5t-155.5 21z" />
    <glyph glyph-name="ccircumflex" unicode="&#x109;" horiz-adv-x="1172" 
d="M368 462q0 -137 67 -213.5t171 -76.5q207 0 267 165h215q-32 -158 -164.5 -258t-329.5 -100t-321.5 125.5t-124.5 334.5q0 291 164.5 481t418.5 190q170 0 288.5 -94.5t139.5 -232.5q2 -11 2.5 -23t1.5 -23h-212q-6 80 -72.5 130.5t-176.5 50.5q-62 0 -126 -35
t-136 -131.5t-72 -289.5zM1169 1238h-210l-120 219h-17l-213 -219h-233l352 346h234z" />
    <glyph glyph-name="Cdotaccent" unicode="&#x10a;" horiz-adv-x="1490" 
d="M932 1267q-93 0 -189 -52.5t-207.5 -198t-111.5 -436.5q0 -187 99 -296t250 -109q152 0 259.5 66t145.5 175h229q-52 -208 -224 -329.5t-423 -121.5t-409 162t-158 428t126.5 531.5t330.5 328.5t320 63q236 0 395 -140.5t159 -349.5v-8q0 -8 -1 -14h-223q0 2 -2 38
t-29 90t-73 92.5t-108.5 59.5t-155.5 21zM1016 1579q-28 0 -52.5 10.5t-42.5 29t-28 43.5t-10 68.5t38 83t81 39.5t67.5 -10.5t42.5 -29t28.5 -43.5t10.5 -54t-10.5 -54t-28.5 -43.5t-43 -29t-53 -10.5z" />
    <glyph glyph-name="cdotaccent" unicode="&#x10b;" horiz-adv-x="1172" 
d="M824 1281q-29 0 -54.5 11t-44.5 30.5t-30 46t-11 56.5t11 56t30 45.5t44.5 30.5t54.5 11t54.5 -11t44.5 -30.5t30 -45.5t11 -56t-11 -56.5t-30 -46t-44.5 -30.5t-54.5 -11zM368 462q0 -137 67 -213.5t171 -76.5q207 0 267 165h215q-32 -158 -164.5 -258t-329.5 -100
t-321.5 125.5t-124.5 334.5q0 291 164.5 481t418.5 190q170 0 288.5 -94.5t139.5 -232.5q2 -11 2.5 -23t1.5 -23h-212q-6 80 -72.5 130.5t-176.5 50.5q-62 0 -126 -35t-136 -131.5t-72 -289.5z" />
    <glyph glyph-name="Ccaron" unicode="&#x10c;" horiz-adv-x="1490" 
d="M697 1898h208l101 -188h16l179 188h232l-317 -314h-234zM932 1267q-93 0 -189 -52.5t-207.5 -198t-111.5 -436.5q0 -187 99 -296t250 -109q152 0 259.5 66t145.5 175h229q-52 -208 -224 -329.5t-423 -121.5t-409 162t-158 428t126.5 531.5t330.5 328.5t320 63
q236 0 395 -140.5t159 -349.5v-8q0 -8 -1 -14h-223q0 2 -2 38t-29 90t-73 92.5t-108.5 59.5t-155.5 21z" />
    <glyph glyph-name="ccaron" unicode="&#x10d;" horiz-adv-x="1172" 
d="M368 462q0 -137 67 -213.5t171 -76.5q207 0 267 165h215q-32 -158 -164.5 -258t-329.5 -100t-321.5 125.5t-124.5 334.5q0 291 164.5 481t418.5 190q170 0 288.5 -94.5t139.5 -232.5q2 -11 2.5 -23t1.5 -23h-212q-6 80 -72.5 130.5t-176.5 50.5q-62 0 -126 -35
t-136 -131.5t-72 -289.5zM681 1238l-206 346h208l120 -219h16l214 219h235l-353 -346h-234z" />
    <glyph glyph-name="Dcaron" unicode="&#x10e;" horiz-adv-x="1504" 
d="M725 202q228 0 375.5 172t147.5 437q0 202 -110.5 316t-307.5 114h-221l-226 -1039h342zM864 1443q292 0 453.5 -163t161.5 -449q0 -179 -57 -331.5t-157.5 -263.5t-237.5 -173.5t-297 -62.5h-614l306 1443h442zM540 1896h208l101 -188h16l179 188h232l-317 -314h-234z
" />
    <glyph glyph-name="dcaron" unicode="&#x10f;" horiz-adv-x="1430" 
d="M980 642q0 126 -68 198t-182 72q-154 0 -258 -130.5t-104 -329.5q0 -127 69 -202.5t189 -75.5q66 0 133 36.5t144 136.5t77 295zM546 -18q-180 0 -291 119.5t-111 314.5q0 298 161 494.5t396 196.5q180 0 243 -83t77 -129h17l131 619h218l-322 -1514h-208l32 150h-17
q-58 -78 -145 -123t-181 -45zM1710 1514l-155 -496h-149l105 496h199z" />
    <glyph glyph-name="Dcroat" unicode="&#x110;" horiz-adv-x="1476" 
d="M864 1443q292 0 453.5 -163t161.5 -449q0 -179 -57 -331.5t-157.5 -263.5t-237.5 -173.5t-297 -62.5h-614l136 643h-181l40 191h182l129 609h442zM725 202q228 0 375.5 172t147.5 437q0 202 -110.5 316t-307.5 114h-221l-89 -407h201l-39 -191h-203l-96 -441h342z" />
    <glyph glyph-name="dcroat" unicode="&#x111;" horiz-adv-x="1289" 
d="M546 -18q-180 0 -291 119.5t-111 314.5q0 298 161 494.5t396 196.5q180 0 243 -83t77 -129h17l80 380h-211l28 136h212l22 103h218l-22 -103h144l-28 -136h-145l-271 -1275h-208l32 150h-17q-58 -78 -145 -123t-181 -45zM980 642q0 126 -68 198t-182 72
q-154 0 -258 -130.5t-104 -329.5q0 -127 69 -202.5t189 -75.5q66 0 133 36.5t144 136.5t77 295z" />
    <glyph glyph-name="Emacron" unicode="&#x112;" horiz-adv-x="1239" 
d="M569 1625l32 156h699l-32 -156h-699zM1033 0h-918l307 1443h917l-41 -204h-690l-91 -408h654l-40 -194h-653l-96 -433h691z" />
    <glyph glyph-name="emacron" unicode="&#x113;" horiz-adv-x="1198" 
d="M413 1299l32 155h696l-32 -155h-696zM940 704q0 89 -61.5 156t-169.5 67q-174 0 -238 -107t-81 -169h547q3 15 3 53zM619 167q185 0 252 126h218q-37 -141 -166 -227.5t-323 -86.5t-322.5 123t-128.5 338q0 299 160.5 484.5t413.5 185.5q183 0 306.5 -121.5t123.5 -325.5
q0 -91 -14 -170h-775q-1 -11 -1 -14v-62q0 -43 22 -96.5t75 -103.5t159 -50z" />
    <glyph glyph-name="Ebreve" unicode="&#x114;" horiz-adv-x="1239" 
d="M568 1891h170v-16q0 -65 53.5 -108t137.5 -43t139 44t75 123h172q-24 -143 -130.5 -228.5t-261.5 -85.5q-156 0 -255.5 82.5t-99.5 212.5v19zM1033 0h-918l307 1443h917l-41 -204h-690l-91 -408h654l-40 -194h-653l-96 -433h691z" />
    <glyph glyph-name="ebreve" unicode="&#x115;" horiz-adv-x="1198" 
d="M581 1536q0 -64 53 -107.5t139 -43.5q201 0 229 191h174q-25 -238 -173.5 -288t-234.5 -50q-167 0 -263 83.5t-96 210.5q0 21 3 44h171q-2 -12 -2 -40zM940 704q0 89 -61.5 156t-169.5 67q-174 0 -238 -107t-81 -169h547q3 15 3 53zM619 167q185 0 252 126h218
q-37 -141 -166 -227.5t-323 -86.5t-322.5 123t-128.5 338q0 299 160.5 484.5t413.5 185.5q183 0 306.5 -121.5t123.5 -325.5q0 -91 -14 -170h-775q-1 -11 -1 -14v-62q0 -43 22 -96.5t75 -103.5t159 -50z" />
    <glyph glyph-name="Edotaccent" unicode="&#x116;" horiz-adv-x="1239" 
d="M1033 0h-918l307 1443h917l-41 -204h-690l-91 -408h654l-40 -194h-653l-96 -433h691zM938 1577q-28 0 -53 10.5t-43 29t-28 43.5t-10 68.5t38 83t81 39.5t67.5 -10.5t42.5 -29t28.5 -43.5t10.5 -54t-10.5 -54t-28.5 -43.5t-42.5 -29t-52.5 -10.5z" />
    <glyph glyph-name="edotaccent" unicode="&#x117;" horiz-adv-x="1198" 
d="M940 704q0 89 -61.5 156t-169.5 67q-174 0 -238 -107t-81 -169h547q3 15 3 53zM619 167q185 0 252 126h218q-37 -141 -166 -227.5t-323 -86.5t-322.5 123t-128.5 338q0 299 160.5 484.5t413.5 185.5q183 0 306.5 -121.5t123.5 -325.5q0 -91 -14 -170h-775q-1 -11 -1 -14
v-62q0 -43 22 -96.5t75 -103.5t159 -50zM788 1281q-29 0 -54.5 11t-44.5 30.5t-30 46t-11 56.5t11 56t30 45.5t44.5 30.5t54.5 11t54.5 -11t44.5 -30.5t30 -45.5t11 -56t-11 -56.5t-30 -46t-44.5 -30.5t-54.5 -11z" />
    <glyph glyph-name="Eogonek" unicode="&#x118;" horiz-adv-x="1239" 
d="M609 -250q0 140 151 245v5h-645l307 1443h917l-41 -204h-690l-91 -408h654l-40 -194h-653l-96 -433h691l-35 -165q-118 -45 -180.5 -107t-62.5 -134q0 -41 29.5 -65.5t77.5 -24.5t68 7l-28 -143q-41 -15 -101 -15q-109 0 -170.5 51.5t-61.5 141.5z" />
    <glyph glyph-name="eogonek" unicode="&#x119;" horiz-adv-x="1203" 
d="M940 706q0 93 -64 157t-167 64q-172 0 -236.5 -106t-82.5 -170h547q3 15 3 55zM684 -201q0 -95 124 -95q31 0 45 3l-29 -140q-28 -10 -86 -10q-110 0 -174.5 53t-64.5 134q0 129 115 219l-1 16h-15q-201 2 -325 128t-124 333q0 297 159.5 483.5t414.5 186.5
q191 0 310.5 -125t119.5 -322q0 -95 -14 -170h-775q-1 -16 -1 -19v-25q0 -128 69.5 -205t186.5 -77q185 0 252 126h218q-20 -75 -73 -137t-152 -131q-100 -68 -140 -120.5t-40 -105.5z" />
    <glyph glyph-name="Ecaron" unicode="&#x11a;" horiz-adv-x="1239" 
d="M1033 0h-918l307 1443h917l-41 -204h-690l-91 -408h654l-40 -194h-653l-96 -433h691zM618 1896h208l101 -188h16l179 188h232l-317 -314h-234z" />
    <glyph glyph-name="ecaron" unicode="&#x11b;" horiz-adv-x="1198" 
d="M940 704q0 89 -61.5 156t-169.5 67q-174 0 -238 -107t-81 -169h547q3 15 3 53zM619 167q185 0 252 126h218q-37 -141 -166 -227.5t-323 -86.5t-322.5 123t-128.5 338q0 299 160.5 484.5t413.5 185.5q183 0 306.5 -121.5t123.5 -325.5q0 -91 -14 -170h-775q-1 -11 -1 -14
v-62q0 -43 22 -96.5t75 -103.5t159 -50zM645 1238l-206 346h208l120 -219h16l214 219h235l-353 -346h-234z" />
    <glyph glyph-name="Gcircumflex" unicode="&#x11c;" horiz-adv-x="1542" 
d="M784 -35q-267 0 -428 165t-161 437q0 398 160.5 586.5t301.5 256.5t283 68q256 0 414 -129.5t170 -328.5q1 -6 1 -8v-27h-223q-10 129 -105.5 205.5t-226.5 76.5q-243 0 -393.5 -195t-150.5 -485q0 -191 102.5 -301t271.5 -110t286 93t149 248l9 42h-367l39 188h590
l-40 -191q-91 -437 -319.5 -514t-362.5 -77zM1341 1582h-208l-100 188h-17l-179 -188h-231l316 314h234z" />
    <glyph glyph-name="gcircumflex" unicode="&#x11d;" horiz-adv-x="1276" 
d="M626 198q66 0 131 33t140 124.5t75 286.5q0 124 -69 197t-185 73q-152 0 -249 -121.5t-97 -317.5t94 -235.5t160 -39.5zM149 443q0 287 154.5 475.5t385.5 188.5q179 0 247.5 -83.5t84.5 -130.5h17l42 196h209l-245 -1138q-37 -170 -175.5 -268t-346.5 -98
q-207 0 -334.5 92.5t-133.5 226.5h221q16 -99 106.5 -121t152.5 -22q123 0 199 57.5t101 161.5l46 197l-17 1q-113 -160 -325 -160q-167 0 -278 119.5t-111 305.5zM1164 1238h-210l-120 219h-17l-213 -219h-233l352 346h234z" />
    <glyph glyph-name="Gbreve" unicode="&#x11e;" horiz-adv-x="1542" 
d="M644 1891h170v-16q0 -65 53.5 -108t137.5 -43t139 44t75 123h172q-24 -143 -130.5 -228.5t-261.5 -85.5q-156 0 -255.5 82.5t-99.5 212.5v19zM784 -35q-267 0 -428 165t-161 437q0 398 160.5 586.5t301.5 256.5t283 68q256 0 414 -129.5t170 -328.5q1 -6 1 -8v-27h-223
q-10 129 -105.5 205.5t-226.5 76.5q-243 0 -393.5 -195t-150.5 -485q0 -191 102.5 -301t271.5 -110t286 93t149 248l9 42h-367l39 188h590l-40 -191q-91 -437 -319.5 -514t-362.5 -77z" />
    <glyph glyph-name="gbreve" unicode="&#x11f;" horiz-adv-x="1276" 
d="M626 198q66 0 131 33t140 124.5t75 286.5q0 124 -69 197t-185 73q-152 0 -249 -121.5t-97 -317.5t94 -235.5t160 -39.5zM149 443q0 287 154.5 475.5t385.5 188.5q179 0 247.5 -83.5t84.5 -130.5h17l42 196h209l-245 -1138q-37 -170 -175.5 -268t-346.5 -98
q-207 0 -334.5 92.5t-133.5 226.5h221q16 -99 106.5 -121t152.5 -22q123 0 199 57.5t101 161.5l46 197l-17 1q-113 -160 -325 -160q-167 0 -278 119.5t-111 305.5zM612 1536q0 -64 53 -107.5t139 -43.5q201 0 229 191h174q-25 -238 -173.5 -288t-234.5 -50q-167 0 -263 83.5
t-96 210.5q0 21 3 44h171q-2 -12 -2 -40z" />
    <glyph glyph-name="Gdotaccent" unicode="&#x120;" horiz-adv-x="1542" 
d="M784 -35q-267 0 -428 165t-161 437q0 398 160.5 586.5t301.5 256.5t283 68q256 0 414 -129.5t170 -328.5q1 -6 1 -8v-27h-223q-10 129 -105.5 205.5t-226.5 76.5q-243 0 -393.5 -195t-150.5 -485q0 -191 102.5 -301t271.5 -110t286 93t149 248l9 42h-367l39 188h590
l-40 -191q-91 -437 -319.5 -514t-362.5 -77zM1014 1577q-28 0 -53 10.5t-43 29t-28 43.5t-10 68.5t38 83t81 39.5t67.5 -10.5t42.5 -29t28.5 -43.5t10.5 -54t-10.5 -54t-28.5 -43.5t-42.5 -29t-52.5 -10.5z" />
    <glyph glyph-name="gdotaccent" unicode="&#x121;" horiz-adv-x="1276" 
d="M626 198q66 0 131 33t140 124.5t75 286.5q0 124 -69 197t-185 73q-152 0 -249 -121.5t-97 -317.5t94 -235.5t160 -39.5zM149 443q0 287 154.5 475.5t385.5 188.5q179 0 247.5 -83.5t84.5 -130.5h17l42 196h209l-245 -1138q-37 -170 -175.5 -268t-346.5 -98
q-207 0 -334.5 92.5t-133.5 226.5h221q16 -99 106.5 -121t152.5 -22q123 0 199 57.5t101 161.5l46 197l-17 1q-113 -160 -325 -160q-167 0 -278 119.5t-111 305.5zM819 1281q-29 0 -54.5 11t-44.5 30.5t-30 46t-11 56.5t11 56t30 45.5t44.5 30.5t54.5 11t54.5 -11
t44.5 -30.5t30 -45.5t11 -56t-11 -56.5t-30 -46t-44.5 -30.5t-54.5 -11z" />
    <glyph glyph-name="Gcommaaccent" unicode="&#x122;" horiz-adv-x="1542" 
d="M784 -35q-267 0 -428 165t-161 437q0 398 160.5 586.5t301.5 256.5t283 68q256 0 414 -129.5t170 -328.5q1 -6 1 -8v-27h-223q-10 129 -105.5 205.5t-226.5 76.5q-243 0 -393.5 -195t-150.5 -485q0 -191 102.5 -301t271.5 -110t286 93t149 248l9 42h-367l39 188h590
l-40 -191q-91 -437 -319.5 -514t-362.5 -77zM492 -514l178 368h222l-200 -368h-200z" />
    <glyph glyph-name="gcommaaccent" unicode="&#x123;" horiz-adv-x="1277" 
d="M626 198q66 0 131 33t140 124.5t75 286.5q0 124 -69 197t-185 73q-152 0 -249 -121.5t-97 -317.5t94 -235.5t160 -39.5zM149 443q0 287 154.5 475.5t385.5 188.5q179 0 247.5 -83.5t84.5 -130.5h17l42 196h209l-245 -1138q-37 -170 -175.5 -268t-346.5 -98
q-207 0 -334.5 92.5t-133.5 226.5h221q16 -99 106.5 -121t152.5 -22q123 0 199 57.5t101 161.5l46 197l-17 1q-113 -160 -325 -160q-167 0 -278 119.5t-111 305.5zM1290 1657l-178 -368h-222l200 368h200z" />
    <glyph glyph-name="Hcircumflex" unicode="&#x124;" horiz-adv-x="1552" 
d="M1402 1582h-208l-100 188h-17l-179 -188h-231l316 314h234zM1078 0l137 633h-738l-136 -633h-226l307 1443h227l-130 -606h737l130 606h228l-307 -1443h-229z" />
    <glyph glyph-name="hcircumflex" unicode="&#x125;" horiz-adv-x="1267" 
d="M912 1649h-208l-100 188h-17l-179 -188h-231l316 314h234zM864 1109q154 0 249.5 -93.5t95.5 -227.5q0 -57 -14 -127l-140 -661h-217l133 623q12 62 12 102q0 84 -60 137.5t-162 53.5q-175 0 -235 -101t-72 -157l-140 -658h-217l323 1510h217l-127 -584h17
q124 183 337 183z" />
    <glyph glyph-name="Hbar" unicode="&#x126;" horiz-adv-x="1503" 
d="M1641 1066h-130l-227 -1066h-229l137 633h-738l-136 -633h-226l227 1066h-133l34 171h135l44 206h227l-44 -206h737l44 206h228l-44 -206h128zM1282 1066h-737l-49 -229h737z" />
    <glyph glyph-name="hbar" unicode="&#x127;" horiz-adv-x="1283" 
d="M864 1109q154 0 249.5 -93.5t95.5 -227.5q0 -57 -14 -127l-140 -661h-217l133 623q12 62 12 102q0 84 -60 137.5t-162 53.5q-175 0 -235 -101t-72 -157l-140 -658h-217l273 1275h-156l29 139h156l21 96h217l-21 -96h228l-29 -139h-229l-76 -349h17q124 183 337 183z" />
    <glyph glyph-name="Itilde" unicode="&#x128;" horiz-adv-x="587" 
d="M1013 1840q-18 -121 -90.5 -192.5t-171.5 -71.5q-100 0 -181.5 77.5t-122.5 77.5q-87 0 -108 -112h-156q20 122 92 193t157 71t128.5 -28.5t65.5 -49t54.5 -49t68.5 -28.5q87 0 108 112h156zM115 0l307 1443h227l-307 -1443h-227z" />
    <glyph glyph-name="itilde" unicode="&#x129;" horiz-adv-x="546" 
d="M672 1230q-47 0 -79.5 13t-58 32.5t-46 42t-52 55t-68.5 32.5q-83 0 -107 -132h-157q16 133 88 208.5t175 75.5t167 -72t87.5 -87.5t47.5 -15.5q84 0 108 132h157q-24 -203 -119.5 -243.5t-142.5 -40.5zM331 1089h215l-231 -1089h-215z" />
    <glyph glyph-name="Imacron" unicode="&#x12a;" horiz-adv-x="587" 
d="M225 1625l32 156h699l-32 -156h-699zM115 0l307 1443h227l-307 -1443h-227z" />
    <glyph glyph-name="imacron" unicode="&#x12b;" horiz-adv-x="546" 
d="M135 1299l32 155h696l-32 -155h-696zM331 1089h215l-231 -1089h-215z" />
    <glyph glyph-name="Ibreve" unicode="&#x12c;" horiz-adv-x="587" 
d="M224 1891h170v-16q0 -65 53.5 -108t137.5 -43t139 44t75 123h172q-24 -143 -130.5 -228.5t-261.5 -85.5q-156 0 -255.5 82.5t-99.5 212.5v19zM115 0l307 1443h227l-307 -1443h-227z" />
    <glyph glyph-name="ibreve" unicode="&#x12d;" horiz-adv-x="546" 
d="M303 1536q0 -64 53 -107.5t139 -43.5q201 0 229 191h174q-25 -238 -173.5 -288t-234.5 -50q-167 0 -263 83.5t-96 210.5q0 21 3 44h171q-2 -12 -2 -40zM331 1089h215l-231 -1089h-215z" />
    <glyph glyph-name="Iogonek" unicode="&#x12e;" horiz-adv-x="587" 
d="M132 -183q0 -109 109 -109q45 0 66 7l-29 -143q-41 -15 -97 -15q-110 0 -173 55t-63 145q0 123 71.5 186t124.5 96l1 4h-18l298 1400h227l-299 -1404q-218 -104 -218 -222z" />
    <glyph glyph-name="iogonek" unicode="&#x12f;" horiz-adv-x="546" 
d="M-77 -243q0 122 74.5 185.5t127.5 96.5l1 4h-18l223 1046h219l-224 -1050q-216 -102 -216 -217q0 -114 109 -114q45 0 66 7l-29 -143q-41 -15 -97 -15q-110 0 -173 55t-63 145zM508 1280q-30 0 -55 10t-44 27.5t-29.5 41t-10.5 51.5t10.5 52.5t29.5 42.5t44 28t55 10
t55 -10t44 -27.5t29.5 -41t10.5 -51.5t-11 -52.5t-29.5 -42.5t-43.5 -28t-55 -10z" />
    <glyph glyph-name="Idotaccent" unicode="&#x130;" horiz-adv-x="587" 
d="M592 1577q-28 0 -52.5 10.5t-42.5 29t-28 43.5t-10 68.5t38 83t81 39.5t67.5 -10.5t42.5 -29t28.5 -43.5t10.5 -54t-10.5 -54t-28.5 -43.5t-43 -29t-53 -10.5zM115 0l307 1443h227l-307 -1443h-227z" />
    <glyph glyph-name="dotlessi" unicode="&#x131;" horiz-adv-x="546" 
d="M331 1089h215l-231 -1089h-215z" />
    <glyph glyph-name="u0132" unicode="&#x132;" horiz-adv-x="1733" 
d="M900 370v-4q2 -87 57 -137t150 -50q193 0 246 243l218 1021h223l-225 -1063q-42 -201 -163.5 -308t-312.5 -107t-308 111t-107 281v13h222zM115 0l307 1443h227l-307 -1443h-227z" />
    <glyph glyph-name="u0133" unicode="&#x133;" horiz-adv-x="1092" 
d="M954.5 1317.5q-39.5 37.5 -39.5 78.5q0 42 10.5 66t29 42t44 28.5t70.5 10.5t84.5 -37.5t39.5 -78.5q0 -42 -10.5 -66t-40 -52.5t-89 -28.5t-99 37.5zM492 -200q48 0 86 33t55 110l245 1146h215l-251 -1173q-63 -303 -367 -303q-59 0 -99 7l38 184q29 -4 78 -4z
M408.5 1317.5q-39.5 37.5 -39.5 78.5q0 42 10.5 66t29 42t44 28.5t70.5 10.5t84.5 -37.5t39.5 -78.5q0 -42 -10.5 -66t-40 -52.5t-89 -28.5t-99 37.5zM331 1089h218l-232 -1089h-219z" />
    <glyph glyph-name="Jcircumflex" unicode="&#x134;" horiz-adv-x="1148" 
d="M1481 1582h-208l-100 188h-17l-179 -188h-231l316 314h234zM314 370v-4q2 -87 57 -137t150 -50q193 0 246 243l218 1021h223l-225 -1063q-42 -201 -163.5 -308t-312.5 -107t-308 111t-107 281v13h222z" />
    <glyph glyph-name="jcircumflex" unicode="&#x135;" horiz-adv-x="546" 
d="M856 1238h-210l-120 219h-17l-213 -219h-233l352 346h234zM-53 -200q48 0 85.5 33t54.5 110l245 1146h215l-251 -1173q-63 -303 -367 -303q-59 0 -99 7l38 184q31 -4 79 -4z" />
    <glyph glyph-name="Kcommaaccent" unicode="&#x136;" horiz-adv-x="1387" 
d="M352 -514l178 368h222l-200 -368h-200zM115 0l307 1443h223l-145 -672h17l731 672h279l-690 -643l425 -800h-257l-349 657l-216 -194l-102 -463h-223z" />
    <glyph glyph-name="kcommaaccent" unicode="&#x137;" horiz-adv-x="1152" 
d="M251 -514l178 368h222l-200 -368h-200zM980 1089h268l-552 -472l350 -617h-244l-280 490l-123 -94l-85 -396h-217l322 1514h216l-182 -854h17z" />
    <glyph glyph-name="Lacute" unicode="&#x139;" horiz-adv-x="1184" 
d="M1016 0h-901l307 1443h227l-266 -1237h675zM815 1888h258l-390 -306h-230z" />
    <glyph glyph-name="lacute" unicode="&#x13a;" horiz-adv-x="545" 
d="M419 1514h218l-321 -1514h-219zM808 1958h258l-390 -306h-230z" />
    <glyph glyph-name="Lcommaaccent" unicode="&#x13b;" horiz-adv-x="1184" 
d="M1016 0h-901l307 1443h227l-266 -1237h675zM262 -514l178 368h222l-200 -368h-200z" />
    <glyph glyph-name="lcommaaccent" unicode="&#x13c;" horiz-adv-x="545" 
d="M419 1514h218l-321 -1514h-219zM-96 -514l178 368h222l-200 -368h-200z" />
    <glyph glyph-name="Lcaron" unicode="&#x13d;" horiz-adv-x="1184" 
d="M1016 0h-901l307 1443h227l-266 -1237h675zM1054 1443l-155 -495h-147l105 495h197z" />
    <glyph glyph-name="lcaron" unicode="&#x13e;" horiz-adv-x="686" 
d="M419 1514h218l-321 -1514h-219zM962 1514l-155 -496h-149l105 496h199z" />
    <glyph glyph-name="Lslash" unicode="&#x141;" horiz-adv-x="1154" 
d="M1068 206l-42 -206h-901l148 696l-180 -79l34 170l183 80l122 576h227l-100 -466l292 129l-34 -171l-295 -130l-129 -599h675z" />
    <glyph glyph-name="lslash" unicode="&#x142;" horiz-adv-x="544" 
d="M624 866l-138 -64l-170 -802h-219l146 689l-132 -62l34 170l135 63l139 654h218l-115 -542l137 64z" />
    <glyph glyph-name="Nacute" unicode="&#x143;" horiz-adv-x="1539" 
d="M115 0l307 1443h196l514 -1055h17l229 1055h223l-307 -1443h-198l-514 1051h-17l-228 -1051h-222zM1291 1888h258l-390 -306h-230z" />
    <glyph glyph-name="nacute" unicode="&#x144;" horiz-adv-x="1247" 
d="M859 1110q143 0 238 -93.5t95 -228.5q0 -60 -15 -127l-139 -661h-217l132 623q12 54 12 97q0 88 -59.5 142t-164.5 54t-188.5 -72.5t-107.5 -185.5l-140 -658h-217l231 1093h209l-35 -167h17q118 184 349 184zM1010 1617h252l-354 -344h-222z" />
    <glyph glyph-name="Ncommaaccent" unicode="&#x145;" horiz-adv-x="1539" 
d="M115 0l307 1443h196l514 -1055h17l229 1055h223l-307 -1443h-198l-514 1051h-17l-228 -1051h-222zM409 -514l178 368h222l-200 -368h-200z" />
    <glyph glyph-name="ncommaaccent" unicode="&#x146;" horiz-adv-x="1247" 
d="M859 1110q143 0 238 -93.5t95 -228.5q0 -60 -15 -127l-139 -661h-217l132 623q12 54 12 97q0 88 -59.5 142t-164.5 54t-188.5 -72.5t-107.5 -185.5l-140 -658h-217l231 1093h209l-35 -167h17q118 184 349 184zM259 -514l178 368h222l-200 -368h-200z" />
    <glyph glyph-name="Ncaron" unicode="&#x147;" horiz-adv-x="1539" 
d="M115 0l307 1443h196l514 -1055h17l229 1055h223l-307 -1443h-198l-514 1051h-17l-228 -1051h-222zM749 1896h208l101 -188h16l179 188h232l-317 -314h-234z" />
    <glyph glyph-name="ncaron" unicode="&#x148;" horiz-adv-x="1247" 
d="M859 1110q143 0 238 -93.5t95 -228.5q0 -60 -15 -127l-139 -661h-217l132 623q12 54 12 97q0 88 -59.5 142t-164.5 54t-188.5 -72.5t-107.5 -185.5l-140 -658h-217l231 1093h209l-35 -167h17q118 184 349 184zM697 1240l-206 346h208l120 -219h16l214 219h235l-353 -346
h-234z" />
    <glyph glyph-name="Omacron" unicode="&#x14c;" horiz-adv-x="1593" 
d="M665 1623l32 156h699l-32 -156h-699zM1341 828q0 211 -104 324.5t-272 113.5q-114 0 -212.5 -52t-212 -194.5t-113.5 -432.5q0 -184 104 -297.5t276 -113.5q230 0 341.5 142t152 266.5t40.5 243.5zM317.5 182q-123.5 126 -123.5 386t101.5 467t280 325t402.5 118
q263 0 429.5 -170.5t166.5 -433.5q0 -397 -221 -653t-570 -256q-122 0 -232 45.5t-233.5 171.5z" />
    <glyph glyph-name="omacron" unicode="&#x14d;" horiz-adv-x="1238" 
d="M624 -21q-223 0 -349.5 128t-126.5 334q0 283 162 476t428 193q206 0 331.5 -127.5t125.5 -333.5q0 -279 -116.5 -420t-225.5 -195.5t-229 -54.5zM374 474q0 -146 68 -224.5t195 -78.5t229 130t102 332t-95 244t-163 42t-132.5 -35.5t-109.5 -98t-69.5 -147t-24.5 -164.5
zM430 1299l32 155h696l-32 -155h-696z" />
    <glyph glyph-name="Obreve" unicode="&#x14e;" horiz-adv-x="1593" 
d="M664 1889h170v-16q0 -65 53.5 -108t137.5 -43t139 44t75 123h172q-24 -143 -130.5 -228.5t-261.5 -85.5q-156 0 -255.5 82.5t-99.5 212.5v19zM1341 828q0 211 -104 324.5t-272 113.5q-114 0 -212.5 -52t-212 -194.5t-113.5 -432.5q0 -184 104 -297.5t276 -113.5
q230 0 341.5 142t152 266.5t40.5 243.5zM317.5 182q-123.5 126 -123.5 386t101.5 467t280 325t402.5 118q263 0 429.5 -170.5t166.5 -433.5q0 -397 -221 -653t-570 -256q-122 0 -232 45.5t-233.5 171.5z" />
    <glyph glyph-name="obreve" unicode="&#x14f;" horiz-adv-x="1238" 
d="M624 -21q-223 0 -349.5 128t-126.5 334q0 283 162 476t428 193q206 0 331.5 -127.5t125.5 -333.5q0 -279 -116.5 -420t-225.5 -195.5t-229 -54.5zM374 474q0 -146 68 -224.5t195 -78.5t229 130t102 332t-95 244t-163 42t-132.5 -35.5t-109.5 -98t-69.5 -147t-24.5 -164.5
zM598 1536q0 -64 53 -107.5t139 -43.5q201 0 229 191h174q-25 -238 -173.5 -288t-234.5 -50q-167 0 -263 83.5t-96 210.5q0 21 3 44h171q-2 -12 -2 -40z" />
    <glyph glyph-name="Ohungarumlaut" unicode="&#x150;" horiz-adv-x="1593" 
d="M1341 828q0 211 -104 324.5t-272 113.5q-114 0 -212.5 -52t-212 -194.5t-113.5 -432.5q0 -184 104 -297.5t276 -113.5q230 0 341.5 142t152 266.5t40.5 243.5zM317.5 182q-123.5 126 -123.5 386t101.5 467t280 325t402.5 118q263 0 429.5 -170.5t166.5 -433.5
q0 -397 -221 -653t-570 -256q-122 0 -232 45.5t-233.5 171.5zM1012 1886h241l-376 -306h-219zM1434 1886h242l-377 -306h-219z" />
    <glyph glyph-name="ohungarumlaut" unicode="&#x151;" horiz-adv-x="1238" 
d="M624 -21q-223 0 -349.5 128t-126.5 334q0 283 162 476t428 193q206 0 331.5 -127.5t125.5 -333.5q0 -279 -116.5 -420t-225.5 -195.5t-229 -54.5zM374 474q0 -146 68 -224.5t195 -78.5t229 130t102 332t-95 244t-163 42t-132.5 -35.5t-109.5 -98t-69.5 -147t-24.5 -164.5
zM775 1615h228l-339 -344h-200zM1188 1615h228l-339 -344h-200z" />
    <glyph glyph-name="OE" unicode="&#x152;" horiz-adv-x="2320" 
d="M319.5 180q-124.5 126 -124.5 386t101.5 467.5t281 326t410.5 118.5t331.5 -101.5t131.5 -158.5l17 1l49 224h898l-42 -204h-690l-91 -408h654l-40 -194h-652l-96 -433h690l-40 -204h-898l27 123h-15q-163 -158 -459 -158q-99 0 -209 44.5t-234.5 170.5zM1344 830
q0 212 -104 325t-273 113q-114 0 -212.5 -52t-212.5 -196t-114 -433q0 -186 105 -299t275 -113q115 0 213.5 51.5t170 142.5t112 216t40.5 245z" />
    <glyph glyph-name="oe" unicode="&#x153;" horiz-adv-x="2012" 
d="M374 474q0 -148 69 -226t197 -78t228 132.5t100 316.5q0 139 -65 219.5t-181 80.5q-154 0 -225.5 -95.5t-97 -180.5t-25.5 -169zM1748 704q0 95 -63 159t-167 64q-172 0 -236.5 -106t-82.5 -170h547q2 11 2 53zM1171 423q0 -40 18.5 -91.5t69.5 -108t169 -56.5
q184 0 251 126h219q-36 -143 -168 -228.5t-316 -85.5q-260 0 -377 207h-16q-152 -207 -416 -207q-206 0 -331.5 127.5t-125.5 333.5q0 292 166 481t423 189q127 0 222 -55t146 -159h17q145 214 410 214q191 0 310.5 -125.5t119.5 -321.5q0 -90 -15 -170h-774q-2 -30 -2 -70z
" />
    <glyph glyph-name="Racute" unicode="&#x154;" horiz-adv-x="1367" 
d="M816 741q150 0 243.5 80.5t93.5 193.5t-63 172t-172 59h-309l-111 -505h318zM946 1443q197 0 318 -108t121 -279t-101.5 -299t-274.5 -176l204 -581h-243l-182 550h-328l-118 -550h-227l307 1443h524zM1113 1888h258l-390 -306h-230z" />
    <glyph glyph-name="racute" unicode="&#x155;" horiz-adv-x="804" 
d="M710 899q-102 0 -175 -67t-104 -207l-133 -625h-217l232 1089h208l-30 -143h17q101 161 283 161q87 0 132 -18l-45 -210q-65 20 -168 20zM823 1615h252l-354 -344h-222z" />
    <glyph glyph-name="Rcommaaccent" unicode="&#x156;" horiz-adv-x="1367" 
d="M349 -514l178 368h222l-200 -368h-200zM816 741q150 0 243.5 80.5t93.5 193.5t-63 172t-172 59h-309l-111 -505h318zM946 1443q197 0 318 -108t121 -279t-101.5 -299t-274.5 -176l204 -581h-243l-182 550h-328l-118 -550h-227l307 1443h524z" />
    <glyph glyph-name="rcommaaccent" unicode="&#x157;" horiz-adv-x="804" 
d="M-106 -514l178 368h222l-200 -368h-200zM710 899q-102 0 -175 -67t-104 -207l-133 -625h-217l232 1089h208l-30 -143h17q101 161 283 161q87 0 132 -18l-45 -210q-65 20 -168 20z" />
    <glyph glyph-name="Rcaron" unicode="&#x158;" horiz-adv-x="1367" 
d="M571 1896h208l101 -188h16l179 188h232l-317 -314h-234zM816 741q150 0 243.5 80.5t93.5 193.5t-63 172t-172 59h-309l-111 -505h318zM946 1443q197 0 318 -108t121 -279t-101.5 -299t-274.5 -176l204 -581h-243l-182 550h-328l-118 -550h-227l307 1443h524z" />
    <glyph glyph-name="rcaron" unicode="&#x159;" horiz-adv-x="804" 
d="M710 899q-102 0 -175 -67t-104 -207l-133 -625h-217l232 1089h208l-30 -143h17q101 161 283 161q87 0 132 -18l-45 -210q-65 20 -168 20zM510 1238l-206 346h208l120 -219h16l214 219h235l-353 -346h-234z" />
    <glyph glyph-name="Sacute" unicode="&#x15a;" horiz-adv-x="1307" 
d="M874 198.5q121 34.5 121 197.5q0 108 -90 153.5t-156 67.5l-142 48q-152 51 -235.5 150t-83.5 231q0 186 151 309t373 123t368 -120.5t160 -311.5h-219q-34 165 -143 199.5t-201.5 34.5t-174.5 -59.5t-82 -139.5t52.5 -132t165.5 -90l137 -47q352 -120 352 -372
q0 -222 -155.5 -348.5t-397.5 -126.5q-241 0 -388 117.5t-171 322.5h221q22 -110 116.5 -175.5t231.5 -65.5q69 0 190 34.5zM1136 1888h258l-390 -306h-230z" />
    <glyph glyph-name="sacute" unicode="&#x15b;" horiz-adv-x="1087" 
d="M898 1615h252l-354 -344h-222zM706.5 193.5q62.5 40.5 62.5 94.5q0 53 -28 85t-99 55l-167 56q-254 85 -254 273q0 167 119.5 260t301.5 93t295 -84t131 -225h-206q-14 62 -73 98t-125 36q-112 0 -171.5 -39t-59.5 -93q0 -53 35.5 -84t105.5 -54l157 -54
q257 -83 257 -275q0 -166 -126.5 -261.5t-319.5 -95.5t-316.5 88.5t-133.5 233.5h215q17 -65 78.5 -106.5t159.5 -41.5q99 0 161.5 40.5z" />
    <glyph glyph-name="Scircumflex" unicode="&#x15c;" horiz-adv-x="1307" 
d="M1241 1582h-208l-100 188h-17l-179 -188h-231l316 314h234zM874 198.5q121 34.5 121 197.5q0 108 -90 153.5t-156 67.5l-142 48q-152 51 -235.5 150t-83.5 231q0 186 151 309t373 123t368 -120.5t160 -311.5h-219q-34 165 -143 199.5t-201.5 34.5t-174.5 -59.5
t-82 -139.5t52.5 -132t165.5 -90l137 -47q352 -120 352 -372q0 -222 -155.5 -348.5t-397.5 -126.5q-241 0 -388 117.5t-171 322.5h221q22 -110 116.5 -175.5t231.5 -65.5q69 0 190 34.5z" />
    <glyph glyph-name="scircumflex" unicode="&#x15d;" horiz-adv-x="1087" 
d="M706.5 193.5q62.5 40.5 62.5 94.5q0 53 -28 85t-99 55l-167 56q-254 85 -254 273q0 167 119.5 260t301.5 93t295 -84t131 -225h-206q-14 62 -73 98t-125 36q-112 0 -171.5 -39t-59.5 -93q0 -53 35.5 -84t105.5 -54l157 -54q257 -83 257 -275q0 -166 -126.5 -261.5
t-319.5 -95.5t-316.5 88.5t-133.5 233.5h215q17 -65 78.5 -106.5t159.5 -41.5q99 0 161.5 40.5zM1073 1238h-210l-120 219h-17l-213 -219h-233l352 346h234z" />
    <glyph glyph-name="Scedilla" unicode="&#x15e;" horiz-adv-x="1307" 
d="M589 -365q93 -1 93 65t-127 66h-54l14 102l65 101q-195 20 -320 135.5t-145 300.5h221q22 -110 116.5 -175.5t232.5 -65.5t224 62t86 170t-90 153.5t-156 67.5l-142 48q-152 51 -235.5 150t-83.5 231q0 186 151 309t373 123t368 -120.5t160 -311.5h-219
q-34 165 -143 199.5t-201.5 34.5t-174.5 -59.5t-82 -139.5t52.5 -132t165.5 -90l137 -47q180 -62 266 -157t86 -234q0 -188 -135 -311.5t-356 -141.5l-63 -99q172 -23 172 -160q0 -89 -70 -145.5t-178 -56.5t-184 36l25 119q58 -27 151 -27z" />
    <glyph glyph-name="scedilla" unicode="&#x15f;" horiz-adv-x="1087" 
d="M436 -365q93 -1 93 65t-127 66h-54l14 102l76 118q-233 34 -287.5 143.5t-58.5 171.5h215q17 -65 78.5 -106.5t134.5 -41.5q124 0 186.5 40.5t62.5 94.5q0 53 -28 85t-99 55l-167 56q-254 85 -254 273q0 167 119.5 260t301.5 93t295 -84t131 -225h-206q-14 62 -73 98
t-125 36q-112 0 -171.5 -39t-59.5 -93q0 -53 35.5 -84t105.5 -54l157 -54q257 -83 257 -272q0 -158 -109.5 -251t-287.5 -107l-71 -112q172 -23 172 -160q0 -89 -70 -145.5t-178 -56.5t-184 36l25 119q58 -27 151 -27z" />
    <glyph glyph-name="Scaron" unicode="&#x160;" horiz-adv-x="1307" 
d="M594 1896h208l101 -188h16l179 188h232l-317 -314h-234zM874 198.5q121 34.5 121 197.5q0 108 -90 153.5t-156 67.5l-142 48q-152 51 -235.5 150t-83.5 231q0 186 151 309t373 123t368 -120.5t160 -311.5h-219q-34 165 -143 199.5t-201.5 34.5t-174.5 -59.5t-82 -139.5
t52.5 -132t165.5 -90l137 -47q352 -120 352 -372q0 -222 -155.5 -348.5t-397.5 -126.5q-241 0 -388 117.5t-171 322.5h221q22 -110 116.5 -175.5t231.5 -65.5q69 0 190 34.5z" />
    <glyph glyph-name="scaron" unicode="&#x161;" horiz-adv-x="1087" 
d="M706.5 193.5q62.5 40.5 62.5 94.5q0 53 -28 85t-99 55l-167 56q-254 85 -254 273q0 167 119.5 260t301.5 93t295 -84t131 -225h-206q-14 62 -73 98t-125 36q-112 0 -171.5 -39t-59.5 -93q0 -53 35.5 -84t105.5 -54l157 -54q257 -83 257 -275q0 -166 -126.5 -261.5
t-319.5 -95.5t-316.5 88.5t-133.5 233.5h215q17 -65 78.5 -106.5t159.5 -41.5q99 0 161.5 40.5zM585 1238l-206 346h208l120 -219h16l214 219h235l-353 -346h-234z" />
    <glyph glyph-name="Tcedilla" unicode="&#x162;" horiz-adv-x="1318" 
d="M502 -365q93 -1 93 65t-127 66h-54l14 102l85 132h-36l266 1239h-452l41 204h1131l-41 -204h-452l-265 -1239h-36l-83 -131q172 -23 172 -160q0 -89 -70 -145.5t-178 -56.5t-184 36l25 119q58 -27 151 -27z" />
    <glyph glyph-name="tcedilla" unicode="&#x163;" horiz-adv-x="781" 
d="M220 215q0 41 11 94l128 590h-179l37 181h179l56 269h217l-57 -269h244l-36 -181h-244l-116 -535q-11 -49 -11 -82q0 -108 142 -108q40 0 63 3l-37 -179q-50 -8 -90 -8t-66 2l-79 -123q172 -23 172 -160q0 -89 -70 -145.5t-178 -56.5t-184 36l25 119q59 -27 151 -27
q93 -1 93 65t-127 66h-54l14 102l104 161q-108 56 -108 186z" />
    <glyph glyph-name="Tcaron" unicode="&#x164;" horiz-adv-x="1318" 
d="M477 0l266 1239h-452l41 204h1131l-41 -204h-452l-265 -1239h-228zM641 1896h208l101 -188h16l179 188h232l-317 -314h-234z" />
    <glyph glyph-name="tcaron" unicode="&#x165;" horiz-adv-x="781" 
d="M449 282q0 -108 142 -108q40 0 63 3l-37 -179q-51 -8 -111 -8q-131 0 -208.5 57.5t-77.5 167.5q0 41 11 94l128 590h-179l37 181h179l56 269h217l-57 -269h244l-36 -181h-244l-116 -535q-11 -49 -11 -82zM789 1232l105 495h199l-155 -495h-149z" />
    <glyph glyph-name="Tbar" unicode="&#x166;" horiz-adv-x="1317" 
d="M970 1239l-95 -443h297l-35 -175h-299l-133 -621h-228l133 621h-291l35 175h294l95 443h-452l41 204h1131l-41 -204h-452z" />
    <glyph glyph-name="tbar" unicode="&#x167;" horiz-adv-x="776" 
d="M449 282q0 -108 142 -108q40 0 63 3l-37 -179q-51 -8 -111 -8q-131 0 -208.5 57.5t-77.5 167.5q0 41 11 94l40 185h-178l32 151h179l55 254h-179l37 181h179l56 269h217l-57 -269h244l-36 -181h-244l-55 -254h231l-32 -151h-232l-28 -130q-11 -49 -11 -82z" />
    <glyph glyph-name="Utilde" unicode="&#x168;" horiz-adv-x="1538" 
d="M1223 1728q87 0 108 112h156q-18 -121 -90.5 -192.5t-171.5 -71.5q-100 0 -181.5 77.5t-122.5 77.5q-87 0 -108 -112h-156q20 122 92 193t157 71t128.5 -28.5t65.5 -49t54.5 -49t68.5 -28.5zM754 -35q-248 0 -387.5 127.5t-141.5 330.5q-2 59 13 127l187 893h228
l-186 -882q-46 -213 55 -299t255 -86q229 0 303 124t91 201l201 942h227l-210 -992q-78 -355 -291.5 -420.5t-343.5 -65.5z" />
    <glyph glyph-name="utilde" unicode="&#x169;" horiz-adv-x="1247" 
d="M1013 1230q-47 0 -79.5 13t-58 32.5t-46 42t-52 55t-68.5 32.5q-83 0 -107 -132h-157q16 133 88 208.5t175 75.5t167 -72t87.5 -87.5t47.5 -15.5q84 0 108 132h157q-24 -203 -119.5 -243.5t-142.5 -40.5zM385 365q0 -189 207 -189q180 0 240.5 104t73.5 163l138 646h216
l-230 -1089h-208l34 155h-17q-73 -123 -178 -149.5t-172 -26.5q-141 0 -235 88.5t-94 228.5q0 65 15 140l136 653h218l-131 -618q-13 -68 -13 -106z" />
    <glyph glyph-name="Umacron" unicode="&#x16a;" horiz-adv-x="1538" 
d="M699 1625l32 156h699l-32 -156h-699zM754 -35q-248 0 -387.5 127.5t-141.5 330.5q-2 59 13 127l187 893h228l-186 -882q-46 -213 55 -299t255 -86q229 0 303 124t91 201l201 942h227l-210 -992q-78 -355 -291.5 -420.5t-343.5 -65.5z" />
    <glyph glyph-name="umacron" unicode="&#x16b;" horiz-adv-x="1247" 
d="M476 1299l32 155h696l-32 -155h-696zM385 365q0 -189 207 -189q180 0 240.5 104t73.5 163l138 646h216l-230 -1089h-208l34 155h-17q-73 -123 -178 -149.5t-172 -26.5q-141 0 -235 88.5t-94 228.5q0 65 15 140l136 653h218l-131 -618q-13 -68 -13 -106z" />
    <glyph glyph-name="Ubreve" unicode="&#x16c;" horiz-adv-x="1538" 
d="M698 1891h170v-16q0 -65 53.5 -108t137.5 -43t139 44t75 123h172q-24 -143 -130.5 -228.5t-261.5 -85.5q-156 0 -255.5 82.5t-99.5 212.5v19zM754 -35q-248 0 -387.5 127.5t-141.5 330.5q-2 59 13 127l187 893h228l-186 -882q-46 -213 55 -299t255 -86q229 0 303 124
t91 201l201 942h227l-210 -992q-78 -355 -291.5 -420.5t-343.5 -65.5z" />
    <glyph glyph-name="ubreve" unicode="&#x16d;" horiz-adv-x="1247" 
d="M644 1536q0 -64 53 -107.5t139 -43.5q201 0 229 191h174q-25 -238 -173.5 -288t-234.5 -50q-167 0 -263 83.5t-96 210.5q0 21 3 44h171q-2 -12 -2 -40zM385 365q0 -189 207 -189q180 0 240.5 104t73.5 163l138 646h216l-230 -1089h-208l34 155h-17q-73 -123 -178 -149.5
t-172 -26.5q-141 0 -235 88.5t-94 228.5q0 65 15 140l136 653h218l-131 -618q-13 -68 -13 -106z" />
    <glyph glyph-name="Uring" unicode="&#x16e;" horiz-adv-x="1538" 
d="M754 -35q-248 0 -387.5 127.5t-141.5 330.5q-2 59 13 127l187 893h228l-186 -882q-46 -213 55 -299t255 -86q229 0 303 124t91 201l201 942h227l-210 -992q-78 -355 -291.5 -420.5t-343.5 -65.5zM1087 1693q51 0 83.5 32.5t32.5 69.5t-9 58t-24.5 36.5t-36.5 24t-59 8.5
t-70.5 -32t-32.5 -82t32.5 -82.5t83.5 -32.5zM850 1808q0 99 68.5 166t168.5 67t168.5 -67t68.5 -166t-69 -166.5t-168 -67.5t-168 67.5t-69 166.5z" />
    <glyph glyph-name="uring" unicode="&#x16f;" horiz-adv-x="1247" 
d="M861 1357q51 0 83.5 32.5t32.5 69.5t-9 58t-24.5 36.5t-36.5 24t-59 8.5t-70.5 -32t-32.5 -82t32.5 -82.5t83.5 -32.5zM624 1472q0 99 68.5 166t168.5 67t168.5 -67t68.5 -166t-69 -166.5t-168 -67.5t-168 67.5t-69 166.5zM385 365q0 -189 207 -189q180 0 240.5 104
t73.5 163l138 646h216l-230 -1089h-208l34 155h-17q-73 -123 -178 -149.5t-172 -26.5q-141 0 -235 88.5t-94 228.5q0 65 15 140l136 653h218l-131 -618q-13 -68 -13 -106z" />
    <glyph glyph-name="Uhungarumlaut" unicode="&#x170;" horiz-adv-x="1538" 
d="M1047 1888h241l-376 -306h-219zM1469 1888h242l-377 -306h-219zM754 -35q-248 0 -387.5 127.5t-141.5 330.5q-2 59 13 127l187 893h228l-186 -882q-46 -213 55 -299t255 -86q229 0 303 124t91 201l201 942h227l-210 -992q-78 -355 -291.5 -420.5t-343.5 -65.5z" />
    <glyph glyph-name="uhungarumlaut" unicode="&#x171;" horiz-adv-x="1247" 
d="M385 365q0 -189 207 -189q180 0 240.5 104t73.5 163l138 646h216l-230 -1089h-208l34 155h-17q-73 -123 -178 -149.5t-172 -26.5q-141 0 -235 88.5t-94 228.5q0 65 15 140l136 653h218l-131 -618q-13 -68 -13 -106zM821 1615h228l-339 -344h-200zM1234 1615h228
l-339 -344h-200z" />
    <glyph glyph-name="Uogonek" unicode="&#x172;" horiz-adv-x="1538" 
d="M909 -200q0 -96 125 -96q35 0 44 3l-29 -140q-28 -10 -87 -10q-112 0 -174.5 53t-62.5 154t105 191l2 17q-22 -5 -112 -5t-186.5 32.5t-202.5 124.5t-106 298q0 73 13 128l187 893h228l-186 -882q-12 -53 -12 -119q0 -65 22.5 -114.5t64 -83t101 -51t171.5 -17.5
t217.5 87t139.5 238l201 942h227l-210 -992q-60 -279 -289 -407q-128 -78 -159.5 -145.5t-31.5 -98.5z" />
    <glyph glyph-name="uogonek" unicode="&#x173;" horiz-adv-x="1247" 
d="M385 365q0 -189 207 -189q116 0 202 73t112 194l138 646h216l-225 -1065q-206 -103 -206 -227q0 -42 27.5 -65.5t77.5 -23.5t70 7l-29 -143q-45 -15 -102 -15q-107 0 -169 51.5t-62 137.5q0 156 195 258v5h-13l32 146h-17q-51 -84 -142 -130t-183 -46q-166 0 -260 89
t-94 228q0 33 3.5 59t6 45t5.5 36l136 653h218l-131 -618q-13 -60 -13 -106z" />
    <glyph glyph-name="Wcircumflex" unicode="&#x174;" horiz-adv-x="2013" 
d="M630 0h-216l-83 1443h214l43 -1105h14l539 1105h192l81 -1105h14l506 1105h231l-689 -1443h-218l-88 1059h-13zM1632 1582h-208l-100 188h-17l-179 -188h-231l316 314h234z" />
    <glyph glyph-name="wcircumflex" unicode="&#x175;" horiz-adv-x="1640" 
d="M1209 0h-224l-57 797h-17l-391 -797h-221l-68 1089h202l34 -824h16l391 824h214l46 -831h16l374 831h216zM1397 1238h-210l-120 219h-17l-213 -219h-233l352 346h234z" />
    <glyph glyph-name="Ycircumflex" unicode="&#x176;" horiz-adv-x="1383" 
d="M1317 1582h-208l-100 188h-17l-179 -188h-231l316 314h234zM513 0l126 582l-327 861h234l242 -631h17l497 631h251l-693 -881l-120 -562h-227z" />
    <glyph glyph-name="ycircumflex" unicode="&#x177;" horiz-adv-x="1146" 
d="M1155 1238h-210l-120 219h-17l-213 -219h-233l352 346h234zM264 -177.5q49 34.5 96 120.5l33 60l-164 1086h216l105 -842h17l448 842h233l-666 -1173q-98 -178 -194.5 -245.5t-239.5 -67.5q-51 0 -123 9l33 185q29 -9 93 -9t113 34.5z" />
    <glyph glyph-name="Ydieresis" unicode="&#x178;" horiz-adv-x="1383" 
d="M1202 1577q-57 0 -95 38t-38 81t10 68t28 43t42.5 28.5t66.5 10.5t81 -39t39 -82t-10.5 -67.5t-38.5 -52.5t-85 -28zM775 1577q-57 0 -95 38t-38 81t10 68t28 43t42.5 28.5t66.5 10.5t81 -39t39 -82t-10.5 -67.5t-38.5 -52.5t-85 -28zM513 0l126 582l-327 861h234
l242 -631h17l497 631h251l-693 -881l-120 -562h-227z" />
    <glyph glyph-name="Zacute" unicode="&#x179;" horiz-adv-x="1365" 
d="M108 161l1000 1061l3 17h-746l41 204h1041l-32 -161l-998 -1061l-2 -17h785l-41 -204h-1083zM1198 1888h258l-390 -306h-230z" />
    <glyph glyph-name="zacute" unicode="&#x17a;" horiz-adv-x="1124" 
d="M96 146l737 744l2 17h-571l38 182h852l-34 -157l-719 -733l-3 -17h567l-37 -182h-862zM969 1615h252l-354 -344h-222z" />
    <glyph glyph-name="Zdotaccent" unicode="&#x17b;" horiz-adv-x="1365" 
d="M108 161l1000 1061l3 17h-746l41 204h1041l-32 -161l-998 -1061l-2 -17h785l-41 -204h-1083zM976 1577q-28 0 -53 10.5t-43 29t-28 43.5t-10 68.5t38 83t81 39.5t67.5 -10.5t42.5 -29t28.5 -43.5t10.5 -54t-10.5 -54t-28.5 -43.5t-42.5 -29t-52.5 -10.5z" />
    <glyph glyph-name="zdotaccent" unicode="&#x17c;" horiz-adv-x="1124" 
d="M96 146l737 744l2 17h-571l38 182h852l-34 -157l-719 -733l-3 -17h567l-37 -182h-862zM799 1281q-29 0 -54.5 11t-44.5 30.5t-30 46t-11 56.5t11 56t30 45.5t44.5 30.5t54.5 11t54.5 -11t44.5 -30.5t30 -45.5t11 -56t-11 -56.5t-30 -46t-44.5 -30.5t-54.5 -11z" />
    <glyph glyph-name="Zcaron" unicode="&#x17d;" horiz-adv-x="1365" 
d="M656 1896h208l101 -188h16l179 188h232l-317 -314h-234zM108 161l1000 1061l3 17h-746l41 204h1041l-32 -161l-998 -1061l-2 -17h785l-41 -204h-1083z" />
    <glyph glyph-name="zcaron" unicode="&#x17e;" horiz-adv-x="1124" 
d="M96 146l737 744l2 17h-571l38 182h852l-34 -157l-719 -733l-3 -17h567l-37 -182h-862zM656 1238l-206 346h208l120 -219h16l214 219h235l-353 -346h-234z" />
    <glyph glyph-name="florin" unicode="&#x192;" horiz-adv-x="1360" 
d="M1302 1274q-82 0 -162.5 -24.5t-138.5 -183.5l-70 -189h358l-36 -176h-384l-129 -348q-134 -373 -472 -373q-104 0 -233 41l42 194q90 -39 166 -39q125 0 184 44.5t97 146.5l125 334h-332l36 176h357l77 210q134 380 502 380q117 0 212 -35l-41 -187q-76 29 -158 29z" />
    <glyph glyph-name="Ohorn" unicode="&#x1a0;" horiz-adv-x="1675" 
d="M1344 826q0 213 -103.5 327t-272.5 114q-114 0 -212.5 -52t-212.5 -195t-114 -429q0 -185 104 -300t275 -115q229 0 342 142t153.5 265.5t40.5 242.5zM1576 877q0 -139 -26.5 -256.5t-101.5 -270t-253 -269t-402 -116.5q-261 0 -429 172t-168 440q0 385 183.5 597
t336 258.5t248.5 46.5t158 -14t117 -38t130 -80.5t98 -56.5q67 0 103.5 31t53.5 105l37 173h184l-49 -231q-22 -109 -87 -167t-156 -58q-12 0 -40 7l-2 -16q65 -118 65 -257z" />
    <glyph glyph-name="ohorn" unicode="&#x1a1;" horiz-adv-x="1398" 
d="M1194 625q0 -110 -40.5 -231.5t-161.5 -268t-386 -146.5q-207 0 -333.5 128t-126.5 334q0 283 162 476t428 193q150 0 217.5 -47t106.5 -74.5t84 -27.5q44 0 81 32t54 107l36 173h184l-49 -234q-35 -168 -117.5 -195.5t-108.5 -27.5t-55 7l-2 -14q27 -74 27 -184z
M372 474q0 -146 68 -224.5t195 -78.5t229 129t102 332t-95 245t-163 42t-132.5 -35.5t-109.5 -98t-69.5 -147t-24.5 -164.5z" />
    <glyph glyph-name="Uhorn" unicode="&#x1af;" horiz-adv-x="1785" 
d="M1675 1119q-95 0 -138 29l-148 -697q-78 -355 -291.5 -420.5t-343.5 -65.5q-248 0 -387.5 127.5t-141.5 330.5q-2 59 13 127l187 893h228l-186 -882q-46 -213 55 -299t255 -86q229 0 303 124t91 201l201 942h227l-27 -129q30 -22 66 -22q66 0 97.5 31.5t46.5 104.5
l37 173h184l-48 -224q-28 -131 -106.5 -194.5t-173.5 -63.5z" />
    <glyph glyph-name="uhorn" unicode="&#x1b0;" horiz-adv-x="1500" 
d="M385 365q0 -189 207 -189q180 0 240.5 104t73.5 163l138 646h216l-19 -91q25 -12 55 -12q60 0 91.5 31.5t46.5 104.5l37 173h184l-48 -224q-28 -131 -106.5 -194.5t-190.5 -63.5q-62 0 -104 20l-176 -833h-208l34 155h-17q-73 -123 -178 -149.5t-172 -26.5
q-141 0 -235 88.5t-94 228.5q0 65 15 140l136 653h218l-131 -618q-13 -68 -13 -106z" />
    <glyph glyph-name="u01C4" unicode="&#x1c4;" horiz-adv-x="2874" 
d="M2164 1896h208l101 -188h16l179 188h232l-317 -314h-234zM1616 161l1000 1061l3 17h-746l41 204h1041l-32 -161l-998 -1061l-2 -17h785l-41 -204h-1083zM725 202q228 0 375.5 172t147.5 437q0 202 -110.5 316t-307.5 114h-221l-226 -1039h342zM864 1443q292 0 453.5 -163
t161.5 -449q0 -179 -57 -331.5t-157.5 -263.5t-237.5 -173.5t-297 -62.5h-614l306 1443h442z" />
    <glyph glyph-name="u01C5" unicode="&#x1c5;" horiz-adv-x="2632" 
d="M1604 146l737 744l2 17h-571l38 182h852l-34 -157l-719 -733l-3 -17h567l-37 -182h-862zM2164 1238l-206 346h208l120 -219h16l214 219h235l-353 -346h-234zM725 202q228 0 375.5 172t147.5 437q0 202 -110.5 316t-307.5 114h-221l-226 -1039h342zM864 1443
q292 0 453.5 -163t161.5 -449q0 -179 -57 -331.5t-157.5 -263.5t-237.5 -173.5t-297 -62.5h-614l306 1443h442z" />
    <glyph glyph-name="u01C6" unicode="&#x1c6;" horiz-adv-x="2410" 
d="M1382 146l737 744l2 17h-571l38 182h852l-34 -157l-719 -733l-3 -17h567l-37 -182h-862zM1942 1238l-206 346h208l120 -219h16l214 219h235l-353 -346h-234zM980 642q0 126 -68 198t-182 72q-154 0 -258 -130.5t-104 -329.5q0 -127 69 -202.5t189 -75.5q66 0 133 36.5
t144 136.5t77 295zM546 -18q-180 0 -291 119.5t-111 314.5q0 298 161 494.5t396 196.5q180 0 243 -83t77 -129h17l131 619h218l-322 -1514h-208l32 150h-17q-58 -78 -145 -123t-181 -45z" />
    <glyph glyph-name="u01C7" unicode="&#x1c7;" horiz-adv-x="2331" 
d="M1016 0h-901l307 1443h227l-266 -1237h675zM1497 370v-4q2 -87 57 -137t150 -50q193 0 246 243l218 1021h223l-225 -1063q-42 -201 -163.5 -308t-312.5 -107t-308 111t-107 281v13h222z" />
    <glyph glyph-name="u01C8" unicode="&#x1c8;" horiz-adv-x="1729" 
d="M1016 0h-901l307 1443h227l-266 -1237h675zM1591.5 1317.5q-39.5 37.5 -39.5 78.5q0 42 10.5 66t29 42t44 28.5t70.5 10.5t84.5 -37.5t39.5 -78.5q0 -42 -10.5 -66t-40 -52.5t-89 -28.5t-99 37.5zM1130 -200q48 0 85.5 33t54.5 110l245 1146h215l-251 -1173
q-63 -303 -367 -303q-59 0 -99 7l38 184q31 -4 79 -4z" />
    <glyph glyph-name="u01C9" unicode="&#x1c9;" horiz-adv-x="1090" 
d="M419 1514h218l-321 -1514h-219zM952.5 1317.5q-39.5 37.5 -39.5 78.5q0 42 10.5 66t29 42t44 28.5t70.5 10.5t84.5 -37.5t39.5 -78.5q0 -42 -10.5 -66t-40 -52.5t-89 -28.5t-99 37.5zM490 -200q48 0 86 33t55 110l245 1146h215l-251 -1173q-63 -303 -367 -303
q-59 0 -99 7l38 184q30 -4 78 -4z" />
    <glyph glyph-name="u01CA" unicode="&#x1ca;" horiz-adv-x="2687" 
d="M115 0l307 1443h196l514 -1055h17l229 1055h223l-307 -1443h-198l-514 1051h-17l-228 -1051h-222zM1853 370v-4q2 -87 57 -137t150 -50q193 0 246 243l218 1021h223l-225 -1063q-42 -201 -163.5 -308t-312.5 -107t-308 111t-107 281v13h222z" />
    <glyph glyph-name="u01CB" unicode="&#x1cb;" horiz-adv-x="2085" 
d="M115 0l307 1443h196l514 -1055h17l229 1055h223l-307 -1443h-198l-514 1051h-17l-228 -1051h-222zM1947.5 1317.5q-39.5 37.5 -39.5 78.5q0 42 10.5 66t29 42t44 28.5t70.5 10.5t84.5 -37.5t39.5 -78.5q0 -42 -10.5 -66t-40 -52.5t-89 -28.5t-99 37.5zM1486 -200
q48 0 85.5 33t54.5 110l245 1146h215l-251 -1173q-63 -303 -367 -303q-59 0 -99 7l38 184q31 -4 79 -4z" />
    <glyph glyph-name="u01CC" unicode="&#x1cc;" horiz-adv-x="1798" 
d="M859 1110q143 0 238 -93.5t95 -228.5q0 -60 -15 -127l-139 -661h-217l132 623q12 54 12 97q0 88 -59.5 142t-164.5 54t-188.5 -72.5t-107.5 -185.5l-140 -658h-217l231 1093h209l-35 -167h17q118 184 349 184zM1660.5 1317.5q-39.5 37.5 -39.5 78.5q0 42 10.5 66t29 42
t44 28.5t70.5 10.5t84.5 -37.5t39.5 -78.5q0 -42 -10.5 -66t-40 -52.5t-89 -28.5t-99 37.5zM1198 -200q48 0 86 33t55 110l245 1146h215l-251 -1173q-63 -303 -367 -303q-59 0 -99 7l38 184q30 -4 78 -4z" />
    <glyph glyph-name="Acaron" unicode="&#x1cd;" horiz-adv-x="1423" 
d="M696 1896h208l101 -188h16l179 188h232l-317 -314h-234zM554 571h440l-82 608h-16zM1012 383h-554l-215 -383h-237l836 1443h232l212 -1443h-224z" />
    <glyph glyph-name="acaron" unicode="&#x1ce;" horiz-adv-x="1153" 
d="M635 1238l-206 346h208l120 -219h16l214 219h235l-353 -346h-234zM674 923q-173 0 -222 -119h-215q37 142 159 224t301 82t292.5 -85t113.5 -227q0 -46 -9 -88l-150 -710h-209l30 139h-17q-54 -73 -139 -115t-169 -42q-154 0 -248 85.5t-94 213.5q0 163 124 258t350 103
l295 12l15 71q6 32 6 46q0 72 -56.5 112t-157.5 40zM381 432.5q-67 -46.5 -67 -117.5t53.5 -112.5t123.5 -41.5q125 0 210.5 63t107.5 160l25 112l-265 -12q-121 -5 -188 -51.5z" />
    <glyph glyph-name="Icaron" unicode="&#x1cf;" horiz-adv-x="587" 
d="M274 1896h208l101 -188h16l179 188h232l-317 -314h-234zM115 0l307 1443h227l-307 -1443h-227z" />
    <glyph glyph-name="icaron" unicode="&#x1d0;" horiz-adv-x="546" 
d="M331 1089h215l-231 -1089h-215zM367 1238l-206 346h208l120 -219h16l214 219h235l-353 -346h-234z" />
    <glyph glyph-name="Ocaron" unicode="&#x1d1;" horiz-adv-x="1593" 
d="M1341 828q0 211 -104 324.5t-272 113.5q-114 0 -212.5 -52t-212 -194.5t-113.5 -432.5q0 -184 104 -297.5t276 -113.5q230 0 341.5 142t152 266.5t40.5 243.5zM317.5 182q-123.5 126 -123.5 386t101.5 467t280 325t402.5 118q263 0 429.5 -170.5t166.5 -433.5
q0 -397 -221 -653t-570 -256q-122 0 -232 45.5t-233.5 171.5zM714 1894h208l101 -188h16l179 188h232l-317 -314h-234z" />
    <glyph glyph-name="ocaron" unicode="&#x1d2;" horiz-adv-x="1238" 
d="M624 -21q-223 0 -349.5 128t-126.5 334q0 283 162 476t428 193q206 0 331.5 -127.5t125.5 -333.5q0 -279 -116.5 -420t-225.5 -195.5t-229 -54.5zM374 474q0 -146 68 -224.5t195 -78.5t229 130t102 332t-95 244t-163 42t-132.5 -35.5t-109.5 -98t-69.5 -147t-24.5 -164.5
zM662 1238l-206 346h208l120 -219h16l214 219h235l-353 -346h-234z" />
    <glyph glyph-name="Ucaron" unicode="&#x1d3;" horiz-adv-x="1538" 
d="M754 -35q-248 0 -387.5 127.5t-141.5 330.5q-2 59 13 127l187 893h228l-186 -882q-46 -213 55 -299t255 -86q229 0 303 124t91 201l201 942h227l-210 -992q-78 -355 -291.5 -420.5t-343.5 -65.5zM748 1896h208l101 -188h16l179 188h232l-317 -314h-234z" />
    <glyph glyph-name="ucaron" unicode="&#x1d4;" horiz-adv-x="1247" 
d="M385 365q0 -189 207 -189q180 0 240.5 104t73.5 163l138 646h216l-230 -1089h-208l34 155h-17q-73 -123 -178 -149.5t-172 -26.5q-141 0 -235 88.5t-94 228.5q0 65 15 140l136 653h218l-131 -618q-13 -68 -13 -106zM708 1238l-206 346h208l120 -219h16l214 219h235
l-353 -346h-234z" />
    <glyph glyph-name="Udieresismacron" unicode="&#x1d5;" horiz-adv-x="1538" 
d="M1282 1577q-28 0 -51.5 10t-41 27.5t-27.5 41.5t-10 52t10 52t27.5 42t41 28t51.5 10t51.5 -10t41 -28t27.5 -42t10 -52t-10 -52t-27.5 -41.5t-41 -27.5t-51.5 -10zM854 1577q-28 0 -51 10t-40.5 27.5t-27.5 41.5t-10 65.5t37 80t79 38.5q41 0 65 -10t41.5 -28t27.5 -42
t10 -52t-10 -52t-27.5 -41.5t-41.5 -27.5t-52 -10zM799 2107h700l-31 -147h-700zM754 -35q-248 0 -387.5 127.5t-141.5 330.5q-2 59 13 127l187 893h228l-186 -882q-46 -213 55 -299t255 -86q229 0 303 124t91 201l201 942h227l-210 -992q-78 -355 -291.5 -420.5
t-343.5 -65.5z" />
    <glyph glyph-name="udieresismacron" unicode="&#x1d6;" horiz-adv-x="1247" 
d="M549 1645l32 155h696l-32 -155h-696zM1046 1238q-27 0 -50.5 10t-40.5 27.5t-26.5 41t-9.5 50.5t9.5 51t26.5 41.5t40.5 27.5t50.5 10t50 -10t40.5 -27.5t27 -41.5t9.5 -51t-9.5 -50.5t-27 -41t-40.5 -27.5t-50 -10zM628 1238q-27 0 -50 10t-40.5 27.5t-27 41t-9.5 50.5
t9.5 51t27 41.5t40.5 27.5t50 10t50.5 -10t40.5 -27.5t26.5 -41.5t9.5 -51t-9.5 -50.5t-26.5 -41t-40.5 -27.5t-50.5 -10zM385 365q0 -189 207 -189q180 0 240.5 104t73.5 163l138 646h216l-230 -1089h-208l34 155h-17q-73 -123 -178 -149.5t-172 -26.5q-141 0 -235 88.5
t-94 228.5q0 65 15 140l136 653h218l-131 -618q-13 -68 -13 -106z" />
    <glyph glyph-name="Udieresisacute" unicode="&#x1d7;" horiz-adv-x="1538" 
d="M754 -35q-248 0 -387.5 127.5t-141.5 330.5q-2 59 13 127l187 893h228l-186 -882q-46 -213 55 -299t255 -86q229 0 303 124t91 201l201 942h227l-210 -992q-78 -355 -291.5 -420.5t-343.5 -65.5zM1280 1577q-57 0 -95 38t-38 81t10 68t28 43t42.5 28.5t66.5 10.5t81 -39
t39 -82t-10.5 -67.5t-38.5 -52.5t-85 -28zM853 1577q-57 0 -95 38t-38 81t10 68t28 43t42.5 28.5t66.5 10.5t81 -39t39 -82t-10.5 -67.5t-38.5 -52.5t-85 -28zM1224 2132h250l-306 -231h-199z" />
    <glyph glyph-name="udieresisacute" unicode="&#x1d8;" horiz-adv-x="1247" 
d="M385 365q0 -189 207 -189q180 0 240.5 104t73.5 163l138 646h216l-230 -1089h-208l34 155h-17q-73 -123 -178 -149.5t-172 -26.5q-141 0 -235 88.5t-94 228.5q0 65 15 140l136 653h218l-131 -618q-13 -68 -13 -106zM1052 1241q-57 0 -95 38t-38 81t10 68t28 43t42.5 28.5
t66.5 10.5t81 -39t39 -82t-10.5 -67.5t-38.5 -52.5t-85 -28zM625 1241q-57 0 -95 38t-38 81t10 68t28 43t42.5 28.5t66.5 10.5t81 -39t39 -82t-10.5 -67.5t-38.5 -52.5t-85 -28zM1007 1910h228l-293 -299h-195z" />
    <glyph glyph-name="Udieresiscaron" unicode="&#x1d9;" horiz-adv-x="1538" 
d="M754 -35q-248 0 -387.5 127.5t-141.5 330.5q-2 59 13 127l187 893h228l-186 -882q-46 -213 55 -299t255 -86q229 0 303 124t91 201l201 942h227l-210 -992q-78 -355 -291.5 -420.5t-343.5 -65.5zM762 2145h230l125 -150h17l186 150h253l-343 -262h-234zM1278 1570
q-27 0 -51 10t-41 27.5t-27 41t-10 50.5t10 51t27 41t41 27t51 10t51 -10t41 -27t27 -41t10 -51t-10 -50.5t-27 -41t-41 -27.5t-51 -10zM851 1570q-27 0 -51 10t-41 27.5t-27 41t-10 50.5t10 51t27 41t41 27t51 10t51 -10t41 -27t27 -41t10 -51t-10 -50.5t-27 -41t-41 -27.5
t-51 -10z" />
    <glyph glyph-name="udieresiscaron" unicode="&#x1da;" horiz-adv-x="1247" 
d="M385 365q0 -189 207 -189q180 0 240.5 104t73.5 163l138 646h216l-230 -1089h-208l34 155h-17q-73 -123 -178 -149.5t-172 -26.5q-141 0 -235 88.5t-94 228.5q0 65 15 140l136 653h218l-131 -618q-13 -68 -13 -106zM541 1926h207l111 -204h17l197 204h235l-336 -331h-234
zM1046 1238q-27 0 -50 10t-40.5 27.5t-27 41t-9.5 50.5t9.5 51t27 41.5t40.5 27.5t50 10t50.5 -10t41 -27.5t27 -41.5t9.5 -51t-9.5 -50.5t-27 -41t-41 -27.5t-50.5 -10zM629 1238q-27 0 -50.5 10t-41 27.5t-27 41t-9.5 50.5t9.5 51t27 41.5t41 27.5t50.5 10t50 -10
t40.5 -27.5t27 -41.5t9.5 -51t-9.5 -50.5t-27 -41t-40.5 -27.5t-50 -10z" />
    <glyph glyph-name="Udieresisgrave" unicode="&#x1db;" horiz-adv-x="1538" 
d="M754 -35q-248 0 -387.5 127.5t-141.5 330.5q-2 59 13 127l187 893h228l-186 -882q-46 -213 55 -299t255 -86q229 0 303 124t91 201l201 942h227l-210 -992q-78 -355 -291.5 -420.5t-343.5 -65.5zM1280 1577q-57 0 -95 38t-38 81t10 68t28 43t42.5 28.5t66.5 10.5t81 -39
t39 -82t-10.5 -67.5t-38.5 -52.5t-85 -28zM853 1577q-57 0 -95 38t-38 81t10 68t28 43t42.5 28.5t66.5 10.5t81 -39t39 -82t-10.5 -67.5t-38.5 -52.5t-85 -28zM975 1901l-210 231h251l158 -231h-199z" />
    <glyph glyph-name="udieresisgrave" unicode="&#x1dc;" horiz-adv-x="1247" 
d="M385 365q0 -189 207 -189q180 0 240.5 104t73.5 163l138 646h216l-230 -1089h-208l34 155h-17q-73 -123 -178 -149.5t-172 -26.5q-141 0 -235 88.5t-94 228.5q0 65 15 140l136 653h218l-131 -618q-13 -68 -13 -106zM1052 1241q-57 0 -95 38t-38 81t10 68t28 43t42.5 28.5
t66.5 10.5t81 -39t39 -82t-10.5 -67.5t-38.5 -52.5t-85 -28zM625 1241q-57 0 -95 38t-38 81t10 68t28 43t42.5 28.5t66.5 10.5t81 -39t39 -82t-10.5 -67.5t-38.5 -52.5t-85 -28zM754 1611l-164 299h228l131 -299h-195z" />
    <glyph glyph-name="Adieresismacron" unicode="&#x1de;" horiz-adv-x="1423" 
d="M1230 1577q-28 0 -51.5 10t-41 27.5t-27.5 41.5t-10 52t10 52t27.5 42t41 28t51.5 10t51.5 -10t41 -28t27.5 -42t10 -52t-10 -52t-27.5 -41.5t-41 -27.5t-51.5 -10zM802 1577q-28 0 -51 10t-40.5 27.5t-27.5 41.5t-10 65.5t37 80t79 38.5q41 0 65 -10t41.5 -28t27.5 -42
t10 -52t-10 -52t-27.5 -41.5t-41.5 -27.5t-52 -10zM747 2107h700l-31 -147h-700zM554 571h440l-82 608h-16zM1012 383h-554l-215 -383h-237l836 1443h232l212 -1443h-224z" />
    <glyph glyph-name="adieresismacron" unicode="&#x1df;" horiz-adv-x="1153" 
d="M476 1645l32 155h696l-32 -155h-696zM973 1238q-27 0 -50.5 10t-40.5 27.5t-26.5 41t-9.5 50.5t9.5 51t26.5 41.5t40.5 27.5t50.5 10t50 -10t40.5 -27.5t27 -41.5t9.5 -51t-9.5 -50.5t-27 -41t-40.5 -27.5t-50 -10zM555 1238q-27 0 -50 10t-40.5 27.5t-27 41t-9.5 50.5
t9.5 51t27 41.5t40.5 27.5t50 10t50.5 -10t40.5 -27.5t26.5 -41.5t9.5 -51t-9.5 -50.5t-26.5 -41t-40.5 -27.5t-50.5 -10zM674 923q-173 0 -222 -119h-215q37 142 159 224t301 82t292.5 -85t113.5 -227q0 -46 -9 -88l-150 -710h-209l30 139h-17q-54 -73 -139 -115t-169 -42
q-154 0 -248 85.5t-94 213.5q0 163 124 258t350 103l295 12l15 71q6 32 6 46q0 72 -56.5 112t-157.5 40zM381 432.5q-67 -46.5 -67 -117.5t53.5 -112.5t123.5 -41.5q125 0 210.5 63t107.5 160l25 112l-265 -12q-121 -5 -188 -51.5z" />
    <glyph glyph-name="Adotmacron" unicode="&#x1e0;" horiz-adv-x="1423" 
d="M1014 1576q-28 0 -52 10t-42 28t-28 42t-10 52t10 52t28 42t42 28t52 10t52 -10t42 -28t28 -42t10 -52t-10 -52t-28 -42t-42 -28t-52 -10zM716 1960l31 147h700l-31 -147h-700zM554 571h440l-82 608h-16zM1012 383h-554l-215 -383h-237l836 1443h232l212 -1443h-224z" />
    <glyph glyph-name="adotmacron" unicode="&#x1e1;" horiz-adv-x="1153" 
d="M476 1645l32 155h696l-32 -155h-696zM762 1238q-28 0 -51.5 10t-41 28t-27.5 42t-10 52t10 52.5t27.5 42.5t41 28t51.5 10t52 -10t41.5 -28t27.5 -42.5t10 -52.5t-10 -52t-27.5 -42t-41.5 -28t-52 -10zM674 923q-173 0 -222 -119h-215q37 142 159 224t301 82t292.5 -85
t113.5 -227q0 -46 -9 -88l-150 -710h-209l30 139h-17q-54 -73 -139 -115t-169 -42q-154 0 -248 85.5t-94 213.5q0 163 124 258t350 103l295 12l15 71q6 32 6 46q0 72 -56.5 112t-157.5 40zM381 432.5q-67 -46.5 -67 -117.5t53.5 -112.5t123.5 -41.5q125 0 210.5 63
t107.5 160l25 112l-265 -12q-121 -5 -188 -51.5z" />
    <glyph glyph-name="AEmacron" unicode="&#x1e2;" horiz-adv-x="1999" 
d="M1147 1625l32 156h699l-32 -156h-699zM1020 417h-505l-280 -417h-230l938 1443h1163l-42 -204h-655l-91 -415h619l-40 -195h-618l-95 -425h656l-41 -204h-871zM1056 1253l-427 -647h429l139 647h-141z" />
    <glyph glyph-name="aemacron" unicode="&#x1e3;" horiz-adv-x="1893" 
d="M741 1299l32 155h696l-32 -155h-696zM513 158q105 0 190 64.5t107 161.5l25 112l-266 -12q-121 -5 -188 -51t-67 -123q0 -103 75 -127.5t124 -24.5zM1624 702q0 91 -61 158t-169 67q-174 0 -238 -107t-81 -169h547q2 11 2 51zM456 -21q-153 0 -255.5 87.5t-102.5 216.5
q0 167 122.5 260.5t352.5 101.5l294 12l16 68q5 25 5 46q0 72 -56.5 112t-156.5 40q-173 0 -222 -119h-216q36 143 158 224.5t294 81.5q120 0 209.5 -42.5t133.5 -120.5h17q142 163 363 163q180 0 303 -121.5t123 -325.5q0 -85 -15 -170h-774q-2 -22 -2 -71t22 -102.5
t76 -103t159 -49.5q184 0 251 126h218q-35 -139 -166.5 -226.5t-325.5 -87.5q-195 0 -279 86t-106 137h-16q-94 -151 -222 -187t-202 -36z" />
    <glyph glyph-name="Gcaron" unicode="&#x1e6;" horiz-adv-x="1542" 
d="M784 -35q-267 0 -428 165t-161 437q0 398 160.5 586.5t301.5 256.5t283 68q256 0 414 -129.5t170 -328.5q1 -6 1 -8v-27h-223q-10 129 -105.5 205.5t-226.5 76.5q-243 0 -393.5 -195t-150.5 -485q0 -191 102.5 -301t271.5 -110t286 93t149 248l9 42h-367l39 188h590
l-40 -191q-91 -437 -319.5 -514t-362.5 -77zM694 1896h208l101 -188h16l179 188h232l-317 -314h-234z" />
    <glyph glyph-name="gcaron" unicode="&#x1e7;" horiz-adv-x="1276" 
d="M626 198q66 0 131 33t140 124.5t75 286.5q0 124 -69 197t-185 73q-152 0 -249 -121.5t-97 -317.5t94 -235.5t160 -39.5zM149 443q0 287 154.5 475.5t385.5 188.5q179 0 247.5 -83.5t84.5 -130.5h17l42 196h209l-245 -1138q-37 -170 -175.5 -268t-346.5 -98
q-207 0 -334.5 92.5t-133.5 226.5h221q16 -99 106.5 -121t152.5 -22q123 0 199 57.5t101 161.5l46 197l-17 1q-113 -160 -325 -160q-167 0 -278 119.5t-111 305.5zM676 1238l-206 346h208l120 -219h16l214 219h235l-353 -346h-234z" />
    <glyph glyph-name="Kcaron" unicode="&#x1e8;" horiz-adv-x="1387" 
d="M648 1896h208l101 -188h16l179 188h232l-317 -314h-234zM115 0l307 1443h223l-145 -672h17l731 672h279l-690 -643l425 -800h-257l-349 657l-216 -194l-102 -463h-223z" />
    <glyph glyph-name="kcaron" unicode="&#x1e9;" horiz-adv-x="1152" 
d="M220 1967h208l101 -188h16l179 188h232l-317 -314h-234zM980 1089h268l-552 -472l350 -617h-244l-280 490l-123 -94l-85 -396h-217l322 1514h216l-182 -854h17z" />
    <glyph glyph-name="Oogonek" unicode="&#x1ea;" horiz-adv-x="1596" 
d="M1343 829q0 210 -104.5 324t-272.5 114q-114 0 -212.5 -52.5t-211.5 -196t-113 -431.5q0 -183 104.5 -297t274.5 -114q230 0 342 142.5t152.5 267t40.5 243.5zM933 -200q0 -96 125 -96q32 0 44 3l-28 -140q-28 -10 -88 -10q-112 0 -174.5 53t-62.5 156t103 187l-1 17
q-19 -4 -65 -4q-255 2 -423 172t-168 431q0 392 222.5 651t570.5 259q122 0 231.5 -44.5t233 -169t123.5 -390.5q0 -521 -410 -811q-110 -81 -171.5 -143t-61.5 -121z" />
    <glyph glyph-name="oogonek" unicode="&#x1eb;" horiz-adv-x="1238" 
d="M374 474q0 -148 68.5 -225.5t197.5 -77.5t228.5 132.5t99.5 315.5q0 139 -65 219.5t-181 80.5q-154 0 -225.5 -95.5t-97 -180.5t-25.5 -169zM682 -201q0 -95 125 -95q35 0 44 3l-28 -140q-28 -10 -88 -10q-112 0 -174.5 53t-62.5 157t116 196l-1 16h-14
q-203 4 -327 131.5t-124 330.5q0 291 166.5 480t423.5 189q206 0 331.5 -127.5t125.5 -327.5t-84 -362t-228 -244q-141 -85 -171 -152t-30 -98z" />
    <glyph glyph-name="Oogonekmacron" unicode="&#x1ec;" horiz-adv-x="1596" 
d="M665 1623l32 156h699l-32 -156h-699zM1343 829q0 210 -104.5 324t-272.5 114q-114 0 -212.5 -52.5t-211.5 -196t-113 -431.5q0 -183 104.5 -297t274.5 -114q230 0 342 142.5t152.5 267t40.5 243.5zM933 -200q0 -96 125 -96q32 0 44 3l-28 -140q-28 -10 -88 -10
q-112 0 -174.5 53t-62.5 156t103 187l-1 17q-19 -4 -65 -4q-255 2 -423 172t-168 431q0 392 222.5 651t570.5 259q122 0 231.5 -44.5t233 -169t123.5 -390.5q0 -521 -410 -811q-110 -81 -171.5 -143t-61.5 -121z" />
    <glyph glyph-name="oogonekmacron" unicode="&#x1ed;" horiz-adv-x="1238" 
d="M374 474q0 -148 68.5 -225.5t197.5 -77.5t228.5 132.5t99.5 315.5q0 139 -65 219.5t-181 80.5q-154 0 -225.5 -95.5t-97 -180.5t-25.5 -169zM682 -201q0 -95 125 -95q35 0 44 3l-28 -140q-28 -10 -88 -10q-112 0 -174.5 53t-62.5 157t116 196l-1 16h-14
q-203 4 -327 131.5t-124 330.5q0 291 166.5 480t423.5 189q206 0 331.5 -127.5t125.5 -327.5t-84 -362t-228 -244q-141 -85 -171 -152t-30 -98zM430 1299l32 155h696l-32 -155h-696z" />
    <glyph glyph-name="u01F1" unicode="&#x1f1;" horiz-adv-x="2874" 
d="M725 202q228 0 375.5 172t147.5 437q0 202 -110.5 316t-307.5 114h-221l-226 -1039h342zM864 1443q292 0 453.5 -163t161.5 -449q0 -179 -57 -331.5t-157.5 -263.5t-237.5 -173.5t-297 -62.5h-614l306 1443h442zM1616 161l1000 1061l3 17h-746l41 204h1041l-32 -161
l-998 -1061l-2 -17h785l-41 -204h-1083z" />
    <glyph glyph-name="u01F2" unicode="&#x1f2;" horiz-adv-x="2632" 
d="M725 202q228 0 375.5 172t147.5 437q0 202 -110.5 316t-307.5 114h-221l-226 -1039h342zM864 1443q292 0 453.5 -163t161.5 -449q0 -179 -57 -331.5t-157.5 -263.5t-237.5 -173.5t-297 -62.5h-614l306 1443h442zM1604 146l737 744l2 17h-571l38 182h852l-34 -157
l-719 -733l-3 -17h567l-37 -182h-862z" />
    <glyph glyph-name="u01F3" unicode="&#x1f3;" horiz-adv-x="2410" 
d="M980 642q0 126 -68 198t-182 72q-154 0 -258 -130.5t-104 -329.5q0 -127 69 -202.5t189 -75.5q66 0 133 36.5t144 136.5t77 295zM546 -18q-180 0 -291 119.5t-111 314.5q0 298 161 494.5t396 196.5q180 0 243 -83t77 -129h17l131 619h218l-322 -1514h-208l32 150h-17
q-58 -78 -145 -123t-181 -45zM1382 146l737 744l2 17h-571l38 182h852l-34 -157l-719 -733l-3 -17h567l-37 -182h-862z" />
    <glyph glyph-name="Gacute" unicode="&#x1f4;" horiz-adv-x="1542" 
d="M784 -35q-267 0 -428 165t-161 437q0 398 160.5 586.5t301.5 256.5t283 68q256 0 414 -129.5t170 -328.5q1 -6 1 -8v-27h-223q-10 129 -105.5 205.5t-226.5 76.5q-243 0 -393.5 -195t-150.5 -485q0 -191 102.5 -301t271.5 -110t286 93t149 248l9 42h-367l39 188h590
l-40 -191q-91 -437 -319.5 -514t-362.5 -77zM1236 1888h258l-390 -306h-230z" />
    <glyph glyph-name="gacute" unicode="&#x1f5;" horiz-adv-x="1276" 
d="M626 198q66 0 131 33t140 124.5t75 286.5q0 124 -69 197t-185 73q-152 0 -249 -121.5t-97 -317.5t94 -235.5t160 -39.5zM149 443q0 287 154.5 475.5t385.5 188.5q179 0 247.5 -83.5t84.5 -130.5h17l42 196h209l-245 -1138q-37 -170 -175.5 -268t-346.5 -98
q-207 0 -334.5 92.5t-133.5 226.5h221q16 -99 106.5 -121t152.5 -22q123 0 199 57.5t101 161.5l46 197l-17 1q-113 -160 -325 -160q-167 0 -278 119.5t-111 305.5zM989 1615h252l-354 -344h-222z" />
    <glyph glyph-name="Ngrave" unicode="&#x1f8;" horiz-adv-x="1539" 
d="M115 0l307 1443h196l514 -1055h17l229 1055h223l-307 -1443h-198l-514 1051h-17l-228 -1051h-222zM1141 1582h-213l-210 306h242z" />
    <glyph glyph-name="ngrave" unicode="&#x1f9;" horiz-adv-x="1247" 
d="M859 1110q143 0 238 -93.5t95 -228.5q0 -60 -15 -127l-139 -661h-217l132 623q12 54 12 97q0 88 -59.5 142t-164.5 54t-188.5 -72.5t-107.5 -185.5l-140 -658h-217l231 1093h209l-35 -167h17q118 184 349 184zM669 1273l-222 344h247l191 -344h-216z" />
    <glyph glyph-name="Aringacute" unicode="&#x1fa;" horiz-adv-x="1423" 
d="M1292 2191l-167 -186h-188l141 186h214zM873 1590.5q-60 58.5 -60 145.5q0 86 60.5 144t146.5 58t146 -58t60 -144t-60 -145t-146.5 -59t-146.5 58.5zM971 1802q-27 -18 -33 -50t14 -60t55 -36t62 11t33 51t-14 59t-55 35t-62 -10zM554 571h440l-82 608h-16zM1012 383
h-554l-215 -383h-237l836 1443h232l212 -1443h-224z" />
    <glyph glyph-name="aringacute" unicode="&#x1fb;" horiz-adv-x="1153" 
d="M912 1938h218l-244 -231h-186zM718 1345q28 -28 70 -28t69 28t27 70t-27 69.5t-69 27.5t-70 -27.5t-28 -69.5t28 -70zM788 1207q-89 0 -150.5 60t-61.5 148.5t62 148.5t150 60q89 0 149.5 -59.5t60.5 -149t-60.5 -149t-149.5 -59.5zM674 923q-173 0 -222 -119h-215
q37 142 159 224t301 82t292.5 -85t113.5 -227q0 -46 -9 -88l-150 -710h-209l30 139h-17q-54 -73 -139 -115t-169 -42q-154 0 -248 85.5t-94 213.5q0 163 124 258t350 103l295 12l15 71q6 32 6 46q0 72 -56.5 112t-157.5 40zM381 432.5q-67 -46.5 -67 -117.5t53.5 -112.5
t123.5 -41.5q125 0 210.5 63t107.5 160l25 112l-265 -12q-121 -5 -188 -51.5z" />
    <glyph glyph-name="AEacute" unicode="&#x1fc;" horiz-adv-x="1999" 
d="M1020 417h-505l-280 -417h-230l938 1443h1163l-42 -204h-655l-91 -415h619l-40 -195h-618l-95 -425h656l-41 -204h-871zM1056 1253l-427 -647h429l139 647h-141zM1738 1888h258l-390 -306h-230z" />
    <glyph glyph-name="aeacute" unicode="&#x1fd;" horiz-adv-x="1893" 
d="M513 158q105 0 190 64.5t107 161.5l25 112l-266 -12q-121 -5 -188 -51t-67 -123q0 -103 75 -127.5t124 -24.5zM1624 702q0 91 -61 158t-169 67q-174 0 -238 -107t-81 -169h547q2 11 2 51zM456 -21q-153 0 -255.5 87.5t-102.5 216.5q0 167 122.5 260.5t352.5 101.5l294 12
l16 68q5 25 5 46q0 72 -56.5 112t-156.5 40q-173 0 -222 -119h-216q36 143 158 224.5t294 81.5q120 0 209.5 -42.5t133.5 -120.5h17q142 163 363 163q180 0 303 -121.5t123 -325.5q0 -85 -15 -170h-774q-2 -22 -2 -71t22 -102.5t76 -103t159 -49.5q184 0 251 126h218
q-35 -139 -166.5 -226.5t-325.5 -87.5q-195 0 -279 86t-106 137h-16q-94 -151 -222 -187t-202 -36zM1286 1615h252l-354 -344h-222z" />
    <glyph glyph-name="Oslashacute" unicode="&#x1fe;" horiz-adv-x="1566" 
d="M1574 874q0 -397 -181.5 -607t-334.5 -256t-265 -46q-182 0 -323 86l-78 -107l-101 71l81 111q-178 170 -178 436t101.5 473t280 325t380.5 118t342 -84l74 102l101 -64l-80 -110q181 -170 181 -448zM965 1266q-114 0 -212.5 -52t-212 -194.5t-113.5 -432.5
q0 -162 83 -272l655 897q-86 54 -200 54zM1341 855q0 166 -86 277l-654 -900q89 -56 205 -56q231 0 383 193.5t152 485.5zM1089 1580h-230l362 306h258z" />
    <glyph glyph-name="oslashacute" unicode="&#x1ff;" horiz-adv-x="1233" 
d="M1195 649q0 -279 -161.5 -474.5t-426.5 -195.5q-164 0 -282 85l-101 -117l-89 67l110 127q-97 122 -97 280q0 304 162 496.5t428 192.5q162 0 277 -82l99 114l88 -62l-108 -125q101 -124 101 -306zM728 919q-164 0 -259 -132t-95 -331q0 -76 26 -137l475 548
q-61 52 -147 52zM612 171q152 0 254 130t102 318q0 90 -28 157l-474 -549q64 -56 146 -56zM838 1271h-222l324 344h252z" />
    <glyph glyph-name="Adblgrave" unicode="&#x200;" horiz-adv-x="1423" 
d="M1118 1582l-197 306h242l173 -306h-218zM695 1582l-196 306h242l173 -306h-219zM554 571h440l-82 608h-16zM1012 383h-554l-215 -383h-237l836 1443h232l212 -1443h-224z" />
    <glyph glyph-name="adblgrave" unicode="&#x201;" horiz-adv-x="1153" 
d="M828 1271l-194 344h222l165 -344h-193zM415 1271l-193 344h221l165 -344h-193zM674 923q-173 0 -222 -119h-215q37 142 159 224t301 82t292.5 -85t113.5 -227q0 -46 -9 -88l-150 -710h-209l30 139h-17q-54 -73 -139 -115t-169 -42q-154 0 -248 85.5t-94 213.5
q0 163 124 258t350 103l295 12l15 71q6 32 6 46q0 72 -56.5 112t-157.5 40zM381 432.5q-67 -46.5 -67 -117.5t53.5 -112.5t123.5 -41.5q125 0 210.5 63t107.5 160l25 112l-265 -12q-121 -5 -188 -51.5z" />
    <glyph glyph-name="Ainvertedbreve" unicode="&#x202;" horiz-adv-x="1423" 
d="M1389 1577h-170v17q0 65 -54 107.5t-137 42.5q-82 0 -138 -44t-76 -123h-172q24 142 131 228t262 86t254.5 -82.5t99.5 -212.5v-19zM554 571h440l-82 608h-16zM1012 383h-554l-215 -383h-237l836 1443h232l212 -1443h-224z" />
    <glyph glyph-name="ainvertedbreve" unicode="&#x203;" horiz-adv-x="1153" 
d="M984 1278q0 64 -53 107.5t-139 43.5q-201 0 -229 -191h-174q14 154 125 246t277 92t265.5 -84t99.5 -210q0 -24 -4 -44h-170q2 12 2 40zM674 923q-173 0 -222 -119h-215q37 142 159 224t301 82t292.5 -85t113.5 -227q0 -46 -9 -88l-150 -710h-209l30 139h-17
q-54 -73 -139 -115t-169 -42q-154 0 -248 85.5t-94 213.5q0 163 124 258t350 103l295 12l15 71q6 32 6 46q0 72 -56.5 112t-157.5 40zM381 432.5q-67 -46.5 -67 -117.5t53.5 -112.5t123.5 -41.5q125 0 210.5 63t107.5 160l25 112l-265 -12q-121 -5 -188 -51.5z" />
    <glyph glyph-name="Edblgrave" unicode="&#x204;" horiz-adv-x="1239" 
d="M1033 0h-918l307 1443h917l-41 -204h-690l-91 -408h654l-40 -194h-653l-96 -433h691zM1040 1582l-197 306h242l173 -306h-218zM617 1582l-196 306h242l173 -306h-219z" />
    <glyph glyph-name="edblgrave" unicode="&#x205;" horiz-adv-x="1198" 
d="M838 1271l-194 344h222l165 -344h-193zM425 1271l-193 344h221l165 -344h-193zM940 704q0 89 -61.5 156t-169.5 67q-174 0 -238 -107t-81 -169h547q3 15 3 53zM619 167q185 0 252 126h218q-37 -141 -166 -227.5t-323 -86.5t-322.5 123t-128.5 338q0 299 160.5 484.5
t413.5 185.5q183 0 306.5 -121.5t123.5 -325.5q0 -91 -14 -170h-775q-1 -11 -1 -14v-62q0 -43 22 -96.5t75 -103.5t159 -50z" />
    <glyph glyph-name="Einvertedbreve" unicode="&#x206;" horiz-adv-x="1239" 
d="M1311 1577h-170v17q0 65 -54 107.5t-137 42.5q-82 0 -138 -44t-76 -123h-172q24 142 131 228t262 86t254.5 -82.5t99.5 -212.5v-19zM1033 0h-918l307 1443h917l-41 -204h-690l-91 -408h654l-40 -194h-653l-96 -433h691z" />
    <glyph glyph-name="einvertedbreve" unicode="&#x207;" horiz-adv-x="1198" 
d="M994 1278q0 64 -53 107.5t-139 43.5q-201 0 -229 -191h-174q14 154 125 246t277 92t265.5 -84t99.5 -210q0 -24 -4 -44h-170q2 12 2 40zM940 704q0 89 -61.5 156t-169.5 67q-174 0 -238 -107t-81 -169h547q3 15 3 53zM619 167q185 0 252 126h218q-37 -141 -166 -227.5
t-323 -86.5t-322.5 123t-128.5 338q0 299 160.5 484.5t413.5 185.5q183 0 306.5 -121.5t123.5 -325.5q0 -91 -14 -170h-775q-1 -11 -1 -14v-62q0 -43 22 -96.5t75 -103.5t159 -50z" />
    <glyph glyph-name="Idblgrave" unicode="&#x208;" horiz-adv-x="587" 
d="M696 1582l-197 306h242l173 -306h-218zM273 1582l-196 306h242l173 -306h-219zM115 0l307 1443h227l-307 -1443h-227z" />
    <glyph glyph-name="idblgrave" unicode="&#x209;" horiz-adv-x="546" 
d="M560 1271l-194 344h222l165 -344h-193zM147 1271l-193 344h221l165 -344h-193zM331 1089h215l-231 -1089h-215z" />
    <glyph glyph-name="Iinvertedbreve" unicode="&#x20a;" horiz-adv-x="587" 
d="M967 1577h-170v17q0 65 -54 107.5t-137 42.5q-82 0 -138 -44t-76 -123h-172q24 142 131 228t262 86t254.5 -82.5t99.5 -212.5v-19zM115 0l307 1443h227l-307 -1443h-227z" />
    <glyph glyph-name="iinvertedbreve" unicode="&#x20b;" horiz-adv-x="546" 
d="M716 1278q0 64 -53 107.5t-139 43.5q-201 0 -229 -191h-174q14 154 125 246t277 92t265.5 -84t99.5 -210q0 -24 -4 -44h-170q2 12 2 40zM331 1089h215l-231 -1089h-215z" />
    <glyph glyph-name="Odblgrave" unicode="&#x20c;" horiz-adv-x="1593" 
d="M1341 828q0 211 -104 324.5t-272 113.5q-114 0 -212.5 -52t-212 -194.5t-113.5 -432.5q0 -184 104 -297.5t276 -113.5q230 0 341.5 142t152 266.5t40.5 243.5zM317.5 182q-123.5 126 -123.5 386t101.5 467t280 325t402.5 118q263 0 429.5 -170.5t166.5 -433.5
q0 -397 -221 -653t-570 -256q-122 0 -232 45.5t-233.5 171.5zM1136 1580l-197 306h242l173 -306h-218zM713 1580l-196 306h242l173 -306h-219z" />
    <glyph glyph-name="odblgrave" unicode="&#x20d;" horiz-adv-x="1238" 
d="M855 1271l-194 344h222l165 -344h-193zM442 1271l-193 344h221l165 -344h-193zM624 -21q-223 0 -349.5 128t-126.5 334q0 283 162 476t428 193q206 0 331.5 -127.5t125.5 -333.5q0 -279 -116.5 -420t-225.5 -195.5t-229 -54.5zM374 474q0 -146 68 -224.5t195 -78.5
t229 130t102 332t-95 244t-163 42t-132.5 -35.5t-109.5 -98t-69.5 -147t-24.5 -164.5z" />
    <glyph glyph-name="Oinvertedbreve" unicode="&#x20e;" horiz-adv-x="1593" 
d="M1341 828q0 211 -104 324.5t-272 113.5q-114 0 -212.5 -52t-212 -194.5t-113.5 -432.5q0 -184 104 -297.5t276 -113.5q230 0 341.5 142t152 266.5t40.5 243.5zM317.5 182q-123.5 126 -123.5 386t101.5 467t280 325t402.5 118q263 0 429.5 -170.5t166.5 -433.5
q0 -397 -221 -653t-570 -256q-122 0 -232 45.5t-233.5 171.5zM1407 1575h-170v17q0 65 -54 107.5t-137 42.5q-82 0 -138 -44t-76 -123h-172q24 142 131 228t262 86t254.5 -82.5t99.5 -212.5v-19z" />
    <glyph glyph-name="oinvertedbreve" unicode="&#x20f;" horiz-adv-x="1238" 
d="M1011 1278q0 64 -53 107.5t-139 43.5q-201 0 -229 -191h-174q14 154 125 246t277 92t265.5 -84t99.5 -210q0 -24 -4 -44h-170q2 12 2 40zM624 -21q-223 0 -349.5 128t-126.5 334q0 283 162 476t428 193q206 0 331.5 -127.5t125.5 -333.5q0 -279 -116.5 -420
t-225.5 -195.5t-229 -54.5zM374 474q0 -146 68 -224.5t195 -78.5t229 130t102 332t-95 244t-163 42t-132.5 -35.5t-109.5 -98t-69.5 -147t-24.5 -164.5z" />
    <glyph glyph-name="Rdblgrave" unicode="&#x210;" horiz-adv-x="1367" 
d="M816 741q150 0 243.5 80.5t93.5 193.5t-63 172t-172 59h-309l-111 -505h318zM946 1443q197 0 318 -108t121 -279t-101.5 -299t-274.5 -176l204 -581h-243l-182 550h-328l-118 -550h-227l307 1443h524zM993 1582l-197 306h242l173 -306h-218zM570 1582l-196 306h242
l173 -306h-219z" />
    <glyph glyph-name="rdblgrave" unicode="&#x211;" horiz-adv-x="804" 
d="M703 1271l-194 344h222l165 -344h-193zM290 1271l-193 344h221l165 -344h-193zM710 899q-102 0 -175 -67t-104 -207l-133 -625h-217l232 1089h208l-30 -143h17q101 161 283 161q87 0 132 -18l-45 -210q-65 20 -168 20z" />
    <glyph glyph-name="Rinvertedbreve" unicode="&#x212;" horiz-adv-x="1367" 
d="M1264 1577h-170v17q0 65 -54 107.5t-137 42.5q-82 0 -138 -44t-76 -123h-172q24 142 131 228t262 86t254.5 -82.5t99.5 -212.5v-19zM816 741q150 0 243.5 80.5t93.5 193.5t-63 172t-172 59h-309l-111 -505h318zM946 1443q197 0 318 -108t121 -279t-101.5 -299
t-274.5 -176l204 -581h-243l-182 550h-328l-118 -550h-227l307 1443h524z" />
    <glyph glyph-name="rinvertedbreve" unicode="&#x213;" horiz-adv-x="804" 
d="M859 1278q0 64 -53 107.5t-139 43.5q-201 0 -229 -191h-174q14 154 125 246t277 92t265.5 -84t99.5 -210q0 -24 -4 -44h-170q2 12 2 40zM710 899q-102 0 -175 -67t-104 -207l-133 -625h-217l232 1089h208l-30 -143h17q101 161 283 161q87 0 132 -18l-45 -210
q-65 20 -168 20z" />
    <glyph glyph-name="Udblgrave" unicode="&#x214;" horiz-adv-x="1538" 
d="M754 -35q-248 0 -387.5 127.5t-141.5 330.5q-2 59 13 127l187 893h228l-186 -882q-46 -213 55 -299t255 -86q229 0 303 124t91 201l201 942h227l-210 -992q-78 -355 -291.5 -420.5t-343.5 -65.5zM1170 1582l-197 306h242l173 -306h-218zM747 1582l-196 306h242l173 -306
h-219z" />
    <glyph glyph-name="udblgrave" unicode="&#x215;" horiz-adv-x="1247" 
d="M901 1271l-194 344h222l165 -344h-193zM488 1271l-193 344h221l165 -344h-193zM385 365q0 -189 207 -189q180 0 240.5 104t73.5 163l138 646h216l-230 -1089h-208l34 155h-17q-73 -123 -178 -149.5t-172 -26.5q-141 0 -235 88.5t-94 228.5q0 65 15 140l136 653h218
l-131 -618q-13 -68 -13 -106z" />
    <glyph glyph-name="Uinvertedbreve" unicode="&#x216;" horiz-adv-x="1538" 
d="M1441 1577h-170v17q0 65 -54 107.5t-137 42.5q-82 0 -138 -44t-76 -123h-172q24 142 131 228t262 86t254.5 -82.5t99.5 -212.5v-19zM754 -35q-248 0 -387.5 127.5t-141.5 330.5q-2 59 13 127l187 893h228l-186 -882q-46 -213 55 -299t255 -86q229 0 303 124t91 201
l201 942h227l-210 -992q-78 -355 -291.5 -420.5t-343.5 -65.5z" />
    <glyph glyph-name="uinvertedbreve" unicode="&#x217;" horiz-adv-x="1247" 
d="M1057 1278q0 64 -53 107.5t-139 43.5q-201 0 -229 -191h-174q14 154 125 246t277 92t265.5 -84t99.5 -210q0 -24 -4 -44h-170q2 12 2 40zM385 365q0 -189 207 -189q180 0 240.5 104t73.5 163l138 646h216l-230 -1089h-208l34 155h-17q-73 -123 -178 -149.5t-172 -26.5
q-141 0 -235 88.5t-94 228.5q0 65 15 140l136 653h218l-131 -618q-13 -68 -13 -106z" />
    <glyph glyph-name="Scommaaccent" unicode="&#x218;" horiz-adv-x="1307" 
d="M369 -514l178 368h222l-200 -368h-200zM874 198.5q121 34.5 121 197.5q0 108 -90 153.5t-156 67.5l-142 48q-152 51 -235.5 150t-83.5 231q0 186 151 309t373 123t368 -120.5t160 -311.5h-219q-34 165 -143 199.5t-201.5 34.5t-174.5 -59.5t-82 -139.5t52.5 -132
t165.5 -90l137 -47q352 -120 352 -372q0 -222 -155.5 -348.5t-397.5 -126.5q-241 0 -388 117.5t-171 322.5h221q22 -110 116.5 -175.5t231.5 -65.5q69 0 190 34.5z" />
    <glyph glyph-name="scommaaccent" unicode="&#x219;" horiz-adv-x="1087" 
d="M216 -514l178 368h222l-200 -368h-200zM706.5 193.5q62.5 40.5 62.5 94.5q0 53 -28 85t-99 55l-167 56q-254 85 -254 273q0 167 119.5 260t301.5 93t295 -84t131 -225h-206q-14 62 -73 98t-125 36q-112 0 -171.5 -39t-59.5 -93q0 -53 35.5 -84t105.5 -54l157 -54
q257 -83 257 -275q0 -166 -126.5 -261.5t-319.5 -95.5t-316.5 88.5t-133.5 233.5h215q17 -65 78.5 -106.5t159.5 -41.5q99 0 161.5 40.5z" />
    <glyph glyph-name="Tcommaaccent" unicode="&#x21a;" horiz-adv-x="1318" 
d="M477 0l266 1239h-452l41 204h1131l-41 -204h-452l-265 -1239h-228zM290 -514l178 368h222l-200 -368h-200z" />
    <glyph glyph-name="tcommaaccent" unicode="&#x21b;" horiz-adv-x="781" 
d="M449 282q0 -108 142 -108q40 0 63 3l-37 -179q-51 -8 -111 -8q-131 0 -208.5 57.5t-77.5 167.5q0 41 11 94l128 590h-179l37 181h179l56 269h217l-57 -269h244l-36 -181h-244l-116 -535q-11 -49 -11 -82zM91 -514l178 368h222l-200 -368h-200z" />
    <glyph glyph-name="Hcaron" unicode="&#x21e;" horiz-adv-x="1552" 
d="M755 1896h208l101 -188h16l179 188h232l-317 -314h-234zM1078 0l137 633h-738l-136 -633h-226l307 1443h227l-130 -606h737l130 606h228l-307 -1443h-229z" />
    <glyph glyph-name="hcaron" unicode="&#x21f;" horiz-adv-x="1267" 
d="M265 1963h208l101 -188h16l179 188h232l-317 -314h-234zM864 1109q154 0 249.5 -93.5t95.5 -227.5q0 -57 -14 -127l-140 -661h-217l133 623q12 62 12 102q0 84 -60 137.5t-162 53.5q-175 0 -235 -101t-72 -157l-140 -658h-217l323 1510h217l-127 -584h17q124 183 337 183
z" />
    <glyph glyph-name="Adotaccent" unicode="&#x226;" horiz-adv-x="1423" 
d="M1016 1577q-28 0 -53 10.5t-43 29t-28 43.5t-10 68.5t38 83t81 39.5t67.5 -10.5t42.5 -29t28.5 -43.5t10.5 -54t-10.5 -54t-28.5 -43.5t-42.5 -29t-52.5 -10.5zM554 571h440l-82 608h-16zM1012 383h-554l-215 -383h-237l836 1443h232l212 -1443h-224z" />
    <glyph glyph-name="adotaccent" unicode="&#x227;" horiz-adv-x="1153" 
d="M778 1281q-29 0 -54.5 11t-44.5 30.5t-30 46t-11 56.5t11 56t30 45.5t44.5 30.5t54.5 11t54.5 -11t44.5 -30.5t30 -45.5t11 -56t-11 -56.5t-30 -46t-44.5 -30.5t-54.5 -11zM674 923q-173 0 -222 -119h-215q37 142 159 224t301 82t292.5 -85t113.5 -227q0 -46 -9 -88
l-150 -710h-209l30 139h-17q-54 -73 -139 -115t-169 -42q-154 0 -248 85.5t-94 213.5q0 163 124 258t350 103l295 12l15 71q6 32 6 46q0 72 -56.5 112t-157.5 40zM381 432.5q-67 -46.5 -67 -117.5t53.5 -112.5t123.5 -41.5q125 0 210.5 63t107.5 160l25 112l-265 -12
q-121 -5 -188 -51.5z" />
    <glyph glyph-name="Ecedilla" unicode="&#x228;" horiz-adv-x="1238" 
d="M494 -365q93 -1 93 65t-127 66h-54l14 102l85 132h-390l307 1443h917l-41 -204h-690l-91 -408h654l-40 -194h-653l-96 -433h691l-40 -204h-372l-83 -131q172 -23 172 -160q0 -89 -70 -145.5t-178 -56.5t-184 36l25 119q58 -27 151 -27z" />
    <glyph glyph-name="ecedilla" unicode="&#x229;" horiz-adv-x="1198" 
d="M1153 670q0 -98 -14 -177h-775q-1 -11 -1 -14v-62q0 -43 22 -96.5t75 -103.5t159 -50q185 0 252 126h218q-32 -126 -142 -210.5t-272 -100.5l-72 -113q172 -23 172 -160q0 -89 -70 -145.5t-178 -56.5t-184 36l25 119q58 -27 151 -27q93 -1 93 65t-127 66h-54l14 102
l76 117q-166 25 -269 145.5t-103 289.5q0 318 160.5 504t413.5 186q183 0 306.5 -121.5t123.5 -318.5zM940 704q0 89 -61.5 156t-169.5 67q-174 0 -238 -107t-81 -169h547q3 15 3 53z" />
    <glyph glyph-name="Odieresismacron" unicode="&#x22a;" horiz-adv-x="1593" 
d="M1248 1575q-28 0 -51.5 10t-41 27.5t-27.5 41.5t-10 52t10 52t27.5 42t41 28t51.5 10t51.5 -10t41 -28t27.5 -42t10 -52t-10 -52t-27.5 -41.5t-41 -27.5t-51.5 -10zM820 1575q-28 0 -51 10t-40.5 27.5t-27.5 41.5t-10 65.5t37 80t79 38.5q41 0 65 -10t41.5 -28t27.5 -42
t10 -52t-10 -52t-27.5 -41.5t-41.5 -27.5t-52 -10zM765 2105h700l-31 -147h-700zM1341 828q0 211 -104 324.5t-272 113.5q-114 0 -212.5 -52t-212 -194.5t-113.5 -432.5q0 -184 104 -297.5t276 -113.5q230 0 341.5 142t152 266.5t40.5 243.5zM317.5 182
q-123.5 126 -123.5 386t101.5 467t280 325t402.5 118q263 0 429.5 -170.5t166.5 -433.5q0 -397 -221 -653t-570 -256q-122 0 -232 45.5t-233.5 171.5z" />
    <glyph glyph-name="odieresismacron" unicode="&#x22b;" horiz-adv-x="1238" 
d="M624 -21q-223 0 -349.5 128t-126.5 334q0 283 162 476t428 193q206 0 331.5 -127.5t125.5 -333.5q0 -279 -116.5 -420t-225.5 -195.5t-229 -54.5zM374 474q0 -146 68 -224.5t195 -78.5t229 130t102 332t-95 244t-163 42t-132.5 -35.5t-109.5 -98t-69.5 -147t-24.5 -164.5
zM503 1645l32 155h696l-32 -155h-696zM1000 1238q-27 0 -50.5 10t-40.5 27.5t-26.5 41t-9.5 50.5t9.5 51t26.5 41.5t40.5 27.5t50.5 10t50 -10t40.5 -27.5t27 -41.5t9.5 -51t-9.5 -50.5t-27 -41t-40.5 -27.5t-50 -10zM582 1238q-27 0 -50 10t-40.5 27.5t-27 41t-9.5 50.5
t9.5 51t27 41.5t40.5 27.5t50 10t50.5 -10t40.5 -27.5t26.5 -41.5t9.5 -51t-9.5 -50.5t-26.5 -41t-40.5 -27.5t-50.5 -10z" />
    <glyph glyph-name="Otildemacron" unicode="&#x22c;" horiz-adv-x="1593" 
d="M1341 828q0 211 -104 324.5t-272 113.5q-114 0 -212.5 -52t-212 -194.5t-113.5 -432.5q0 -184 104 -297.5t276 -113.5q230 0 341.5 142t152 266.5t40.5 243.5zM317.5 182q-123.5 126 -123.5 386t101.5 467t280 325t402.5 118q263 0 429.5 -170.5t166.5 -433.5
q0 -397 -221 -653t-570 -256q-122 0 -232 45.5t-233.5 171.5zM1165 1725q81 0 108 97h156q-19 -118 -92 -183.5t-159 -65.5t-139 43t-79 62.5t-56 19.5q-82 0 -109 -96h-155q17 115 91 181.5t159 66.5t139 -43t80 -62.5t56 -19.5zM734 1954l31 151h699l-31 -151h-699z" />
    <glyph glyph-name="otildemacron" unicode="&#x22d;" horiz-adv-x="1238" 
d="M624 -21q-223 0 -349.5 128t-126.5 334q0 283 162 476t428 193q206 0 331.5 -127.5t125.5 -333.5q0 -279 -116.5 -420t-225.5 -195.5t-229 -54.5zM374 474q0 -146 68 -224.5t195 -78.5t229 130t102 332t-95 244t-163 42t-132.5 -35.5t-109.5 -98t-69.5 -147t-24.5 -164.5
zM493 1650l32 155h696l-32 -155h-696zM966 1230q-47 0 -79.5 13t-58 32.5t-46 42t-52 55t-68.5 32.5q-83 0 -107 -132h-157q16 133 88 208.5t175 75.5t167 -72t87.5 -87.5t47.5 -15.5q84 0 108 132h157q-24 -203 -119.5 -243.5t-142.5 -40.5z" />
    <glyph glyph-name="Odotaccent" unicode="&#x22e;" horiz-adv-x="1593" 
d="M1341 828q0 211 -104 324.5t-272 113.5q-114 0 -212.5 -52t-212 -194.5t-113.5 -432.5q0 -184 104 -297.5t276 -113.5q230 0 341.5 142t152 266.5t40.5 243.5zM317.5 182q-123.5 126 -123.5 386t101.5 467t280 325t402.5 118q263 0 429.5 -170.5t166.5 -433.5
q0 -397 -221 -653t-570 -256q-122 0 -232 45.5t-233.5 171.5zM1034 1575q-28 0 -53 10.5t-43 29t-28 43.5t-10 68.5t38 83t81 39.5t67.5 -10.5t42.5 -29t28.5 -43.5t10.5 -54t-10.5 -54t-28.5 -43.5t-42.5 -29t-52.5 -10.5z" />
    <glyph glyph-name="odotaccent" unicode="&#x22f;" horiz-adv-x="1238" 
d="M624 -21q-223 0 -349.5 128t-126.5 334q0 283 162 476t428 193q206 0 331.5 -127.5t125.5 -333.5q0 -279 -116.5 -420t-225.5 -195.5t-229 -54.5zM374 474q0 -146 68 -224.5t195 -78.5t229 130t102 332t-95 244t-163 42t-132.5 -35.5t-109.5 -98t-69.5 -147t-24.5 -164.5
zM805 1281q-29 0 -54.5 11t-44.5 30.5t-30 46t-11 56.5t11 56t30 45.5t44.5 30.5t54.5 11t54.5 -11t44.5 -30.5t30 -45.5t11 -56t-11 -56.5t-30 -46t-44.5 -30.5t-54.5 -11z" />
    <glyph glyph-name="Odotaccentmacron" unicode="&#x230;" horiz-adv-x="1593" 
d="M1341 828q0 211 -104 324.5t-272 113.5q-114 0 -212.5 -52t-212 -194.5t-113.5 -432.5q0 -184 104 -297.5t276 -113.5q230 0 341.5 142t152 266.5t40.5 243.5zM317.5 182q-123.5 126 -123.5 386t101.5 467t280 325t402.5 118q263 0 429.5 -170.5t166.5 -433.5
q0 -397 -221 -653t-570 -256q-122 0 -232 45.5t-233.5 171.5zM1032 1574q-28 0 -52 10t-42 28t-28 42t-10 52t10 52t28 42t42 28t52 10t52 -10t42 -28t28 -42t10 -52t-10 -52t-28 -42t-42 -28t-52 -10zM734 1958l31 147h700l-31 -147h-700z" />
    <glyph glyph-name="odotaccentmacron" unicode="&#x231;" horiz-adv-x="1238" 
d="M503 1645l32 155h696l-32 -155h-696zM789 1238q-28 0 -51.5 10t-41 28t-27.5 42t-10 52t10 52.5t27.5 42.5t41 28t51.5 10t52 -10t41.5 -28t27.5 -42.5t10 -52.5t-10 -52t-27.5 -42t-41.5 -28t-52 -10zM624 -21q-223 0 -349.5 128t-126.5 334q0 283 162 476t428 193
q206 0 331.5 -127.5t125.5 -333.5q0 -279 -116.5 -420t-225.5 -195.5t-229 -54.5zM374 474q0 -146 68 -224.5t195 -78.5t229 130t102 332t-95 244t-163 42t-132.5 -35.5t-109.5 -98t-69.5 -147t-24.5 -164.5z" />
    <glyph glyph-name="Ymacron" unicode="&#x232;" horiz-adv-x="1383" 
d="M621 1625l32 156h699l-32 -156h-699zM513 0l126 582l-327 861h234l242 -631h17l497 631h251l-693 -881l-120 -562h-227z" />
    <glyph glyph-name="ymacron" unicode="&#x233;" horiz-adv-x="1146" 
d="M435 1299l32 155h696l-32 -155h-696zM264 -177.5q49 34.5 96 120.5l33 60l-164 1086h216l105 -842h17l448 842h233l-666 -1173q-98 -178 -194.5 -245.5t-239.5 -67.5q-51 0 -123 9l33 185q29 -9 93 -9t113 34.5z" />
    <glyph glyph-name="dotlessj" unicode="&#x237;" horiz-adv-x="546" 
d="M-53 -200q48 0 85.5 33t54.5 110l245 1146h215l-251 -1173q-63 -303 -367 -303q-59 0 -99 7l38 184q31 -4 79 -4z" />
    <glyph glyph-name="circumflex" unicode="&#x2c6;" horiz-adv-x="1086" 
d="M1137 1238h-210l-120 219h-17l-213 -219h-233l352 346h234z" />
    <glyph glyph-name="caron" unicode="&#x2c7;" horiz-adv-x="1086" 
d="M623 1238l-206 346h208l120 -219h16l214 219h235l-353 -346h-234z" />
    <glyph glyph-name="breve" unicode="&#x2d8;" horiz-adv-x="1086" 
d="M610 1536q0 -64 53 -107.5t139 -43.5q201 0 229 191h174q-25 -238 -173.5 -288t-234.5 -50q-167 0 -263 83.5t-96 210.5q0 21 3 44h171q-2 -12 -2 -40z" />
    <glyph glyph-name="dotaccent" unicode="&#x2d9;" horiz-adv-x="1086" 
d="M780 1281q-29 0 -54.5 11t-44.5 30.5t-30 46t-11 56.5t11 56t30 45.5t44.5 30.5t54.5 11t54.5 -11t44.5 -30.5t30 -45.5t11 -56t-11 -56.5t-30 -46t-44.5 -30.5t-54.5 -11z" />
    <glyph glyph-name="ring" unicode="&#x2da;" horiz-adv-x="1086" 
d="M790 1357q51 0 83.5 32.5t32.5 69.5t-9 58t-24.5 36.5t-36.5 24t-59 8.5t-70.5 -32t-32.5 -82t32.5 -82.5t83.5 -32.5zM553 1472q0 99 68.5 166t168.5 67t168.5 -67t68.5 -166t-69 -166.5t-168 -67.5t-168 67.5t-69 166.5z" />
    <glyph glyph-name="ogonek" unicode="&#x2db;" horiz-adv-x="1086" 
d="M433 -199q0 -95 125 -95q30 0 44 2l-28 -139q-31 -11 -88 -11q-112 0 -174.5 52.5t-62.5 142.5t65.5 175.5t174.5 138.5l136 -24q-84 -48 -138 -114.5t-54 -127.5z" />
    <glyph glyph-name="tilde" unicode="&#x2dc;" horiz-adv-x="1086" 
d="M946 1254q-47 0 -79.5 13t-58 32.5t-46 42t-52 55t-68.5 32.5q-83 0 -107 -132h-157q16 133 88 208.5t175 75.5t167 -72t87.5 -87.5t47.5 -15.5q84 0 108 132h157q-24 -203 -119.5 -243.5t-142.5 -40.5z" />
    <glyph glyph-name="hungarumlaut" unicode="&#x2dd;" horiz-adv-x="1085" 
d="M618 1615h228l-339 -344h-200zM1031 1615h228l-339 -344h-200z" />
    <glyph glyph-name="gravecmb" unicode="&#x300;" 
d="M66 1271l-222 344h247l191 -344h-216z" />
    <glyph glyph-name="acutecmb" unicode="&#x301;" 
d="M407 1615h252l-354 -344h-222z" />
    <glyph glyph-name="circumflexcmb" unicode="&#x302;" 
d="M582 1238h-210l-120 219h-17l-213 -219h-233l352 346h234z" />
    <glyph glyph-name="tildecmb" unicode="&#x303;" 
d="M399 1230q-47 0 -79.5 13t-58 32.5t-46 42t-52 55t-68.5 32.5q-83 0 -107 -132h-157q16 133 88 208.5t175 75.5t167 -72t87.5 -87.5t47.5 -15.5q84 0 108 132h157q-24 -203 -119.5 -243.5t-142.5 -40.5z" />
    <glyph glyph-name="macroncmb" unicode="&#x304;" 
d="M-138 1299l32 155h696l-32 -155h-696z" />
    <glyph glyph-name="brevecmb" unicode="&#x306;" 
d="M30 1536q0 -64 53 -107.5t139 -43.5q201 0 229 191h174q-25 -238 -173.5 -288t-234.5 -50q-167 0 -263 83.5t-96 210.5q0 21 3 44h171q-2 -12 -2 -40z" />
    <glyph glyph-name="dotaccentcmb" unicode="&#x307;" 
d="M237 1281q-29 0 -54.5 11t-44.5 30.5t-30 46t-11 56.5t11 56t30 45.5t44.5 30.5t54.5 11t54.5 -11t44.5 -30.5t30 -45.5t11 -56t-11 -56.5t-30 -46t-44.5 -30.5t-54.5 -11z" />
    <glyph glyph-name="dieresiscmb" unicode="&#x308;" 
d="M438 1238q-57 0 -95 38t-38 81t10 68t28 43t42.5 28.5t66.5 10.5t81 -39t39 -82t-10.5 -67.5t-38.5 -52.5t-85 -28zM11 1238q-57 0 -95 38t-38 81t10 68t28 43t42.5 28.5t66.5 10.5t81 -39t39 -82t-10.5 -67.5t-38.5 -52.5t-85 -28z" />
    <glyph glyph-name="hookabovecmb" unicode="&#x309;" 
d="M212 1631q116 0 179.5 -52t63.5 -138t-60 -148.5t-169 -94.5l-62 113q60 14 93.5 42.5t33.5 64.5t-29.5 56t-77.5 20t-96 -12l20 134q44 15 104 15z" />
    <glyph glyph-name="ringcmb" unicode="&#x30a;" 
d="M247 1357q51 0 83.5 32.5t32.5 69.5t-9 58t-24.5 36.5t-36.5 24t-59 8.5t-70.5 -32t-32.5 -82t32.5 -82.5t83.5 -32.5zM10 1472q0 99 68.5 166t168.5 67t168.5 -67t68.5 -166t-69 -166.5t-168 -67.5t-168 67.5t-69 166.5z" />
    <glyph glyph-name="hungarumlautcmb" unicode="&#x30b;" 
d="M207 1615h228l-339 -344h-200zM620 1615h228l-339 -344h-200z" />
    <glyph glyph-name="caroncmb" unicode="&#x30c;" 
d="M94 1238l-206 346h208l120 -219h16l214 219h235l-353 -346h-234z" />
    <glyph glyph-name="dblgravecmb" unicode="&#x30f;" 
d="M287 1271l-194 344h222l165 -344h-193zM-126 1271l-193 344h221l165 -344h-193z" />
    <glyph glyph-name="invertedbrevecmb" unicode="&#x311;" 
d="M443 1278q0 64 -53 107.5t-139 43.5q-201 0 -229 -191h-174q14 154 125 246t277 92t265.5 -84t99.5 -210q0 -24 -4 -44h-170q2 12 2 40z" />
    <glyph glyph-name="horncmb" unicode="&#x31b;" 
d="M152.5 1112.5q31.5 31.5 46.5 104.5l37 173h184l-48 -224q-28 -131 -106.5 -194.5t-178.5 -63.5t-144 37l34 169q29 -33 86 -33q58 0 89.5 31.5z" />
    <glyph glyph-name="dotbelowcmb" unicode="&#x323;" 
d="M-126 -409q-28 0 -52.5 10t-42.5 27t-28 41t-10 65.5t38.5 78t81.5 36.5q42 0 66.5 -10t42.5 -27t28 -41t10 -51t-10 -51t-28 -41t-43 -27t-53 -10z" />
    <glyph glyph-name="dieresisbelowcmb" unicode="&#x324;" 
d="M83 -432q-29 0 -53.5 10t-42.5 27t-28 41t-10 51t10 51t28 41t42.5 27t53.5 10t53.5 -10t42.5 -27t28 -41t10 -51t-10 -51t-28 -41t-42.5 -27t-53.5 -10zM-344 -432q-28 0 -52.5 10t-42.5 27t-28 41t-10 65.5t38.5 78t81.5 36.5q42 0 66.5 -10t42.5 -27t28 -41t10 -51
t-10 -51t-28 -41t-43 -27t-53 -10z" />
    <glyph glyph-name="ringbelowcmb" unicode="&#x325;" 
d="M-137 -453q51 0 83.5 32.5t32.5 69.5t-9 58t-24.5 36.5t-36.5 24t-59 8.5t-70.5 -32t-32.5 -82t32.5 -82.5t83.5 -32.5zM-374 -338q0 99 68.5 166t168.5 67t168.5 -67t68.5 -166t-69 -166.5t-168 -67.5t-168 67.5t-69 166.5z" />
    <glyph glyph-name="commabelowcmb" unicode="&#x326;" 
d="M-369 -514l178 368h222l-200 -368h-200z" />
    <glyph glyph-name="cedillacmb" unicode="&#x327;" 
d="M-149 -365q93 -1 93 65t-127 66h-54l14 102l107 166h156l-105 -165q172 -23 172 -160q0 -89 -70 -145.5t-178 -56.5t-184 36l25 119q58 -27 151 -27z" />
    <glyph glyph-name="ogonekcmb" unicode="&#x328;" 
d="M-160 -200q0 -95 125 -95q30 0 44 2l-28 -139q-31 -11 -88 -11q-112 0 -174.5 52.5t-62.5 142.5t65.5 175.5t174.5 138.5l136 -24q-84 -48 -138 -114.5t-54 -127.5z" />
    <glyph glyph-name="circumflexbelowcmb" unicode="&#x32d;" 
d="M235 -432h-224l-124 167h-16l-198 -167h-230l350 286h218z" />
    <glyph glyph-name="brevebelowcmb" unicode="&#x32e;" 
d="M-408.5 -349.5q-99.5 82.5 -99.5 212.5v12h172q4 -72 55 -116t133 -44t138.5 42t75.5 118h173q-23 -139 -130.5 -223t-262.5 -84t-254.5 82.5z" />
    <glyph glyph-name="tildebelowcmb" unicode="&#x330;" 
d="M27 -281q88 0 109 117h156q-32 -198 -124 -232.5t-136 -34.5t-76 11.5t-58 28.5t-47 37.5t-54.5 49t-70.5 28.5t-67 -25t-41 -90h-156q29 193 121.5 229.5t136.5 36.5t76.5 -11.5t58 -29t47 -37.5t54 -49t71.5 -29z" />
    <glyph glyph-name="macronbelowcmb" unicode="&#x331;" 
d="M-493 -372l32 156h699l-32 -156h-699z" />
    <glyph glyph-name="greekquestionmark" unicode="&#x37e;" horiz-adv-x="645" 
d="M319 781q-43 43 -43 89t11 74t31 48t46.5 32t74.5 12t89.5 -43.5t41.5 -89.5q0 -45 -11 -72.5t-42 -60t-93 -32.5t-105 43zM-20 -376l215 598h233l-268 -598h-180z" />
    <glyph glyph-name="tonosgreek" unicode="&#x384;" horiz-adv-x="937" 
d="M508 1265l162 355h239l-210 -355h-191z" />
    <glyph glyph-name="dieresistonosgreek" unicode="&#x385;" horiz-adv-x="1388" 
d="M1228 1265q-42 0 -74.5 33t-32.5 73q0 70 40 111.5t98 41.5t90.5 -32.5t32.5 -72.5t-10.5 -66t-29.5 -45.5t-45.5 -31t-68.5 -11.5zM568 1265q-42 0 -74.5 33t-32.5 73q0 70 40 111.5t98 41.5t90.5 -32.5t32.5 -72.5t-10.5 -66t-29.5 -45.5t-45.5 -31t-68.5 -11.5z
M782 1265l105 355h224l-154 -355h-175z" />
    <glyph glyph-name="Alphatonosgreek" unicode="&#x386;" horiz-adv-x="1455" 
d="M238 1087l162 356h239l-210 -356h-191zM586 571h440l-82 608h-16zM1044 383h-554l-215 -383h-237l836 1443h232l212 -1443h-224z" />
    <glyph glyph-name="anoteleia" unicode="&#x387;" horiz-adv-x="663" 
d="M353 821q-44 44 -44 95t11.5 80.5t32 51t49.5 33.5t81 12t95 -44.5t43 -95.5t-11 -80.5t-43 -62.5t-101 -33t-113 44z" />
    <glyph glyph-name="Epsilontonosgreek" unicode="&#x388;" horiz-adv-x="1643" 
d="M1436 0h-918l307 1443h917l-41 -204h-690l-91 -408h654l-40 -194h-653l-96 -433h691zM246 1087l162 356h239l-210 -356h-191z" />
    <glyph glyph-name="Etatonosgreek" unicode="&#x389;" horiz-adv-x="1954" 
d="M1481 0l137 633h-738l-136 -633h-226l307 1443h227l-130 -606h737l130 606h228l-307 -1443h-229zM246 1087l162 356h239l-210 -356h-191z" />
    <glyph glyph-name="Iotatonosgreek" unicode="&#x38a;" horiz-adv-x="989" 
d="M246 1087l162 356h239l-210 -356h-191zM518 0l307 1443h227l-307 -1443h-227z" />
    <glyph glyph-name="Omicrontonosgreek" unicode="&#x38c;" horiz-adv-x="1897" 
d="M246 1087l162 356h239l-210 -356h-191zM1643 828q0 211 -104 324.5t-272 113.5q-114 0 -212.5 -52t-212 -194.5t-113.5 -432.5q0 -184 104 -297.5t276 -113.5q230 0 341.5 142t152 266.5t40.5 243.5zM619.5 182q-123.5 126 -123.5 386t101.5 467t280 325t402.5 118
q263 0 429.5 -170.5t166.5 -433.5q0 -397 -221 -653t-570 -256q-122 0 -232 45.5t-233.5 171.5z" />
    <glyph glyph-name="Upsilontonosgreek" unicode="&#x38e;" horiz-adv-x="1783" 
d="M914 0l126 582l-327 861h234l242 -631h17l497 631h251l-693 -881l-120 -562h-227zM246 1087l162 356h239l-210 -356h-191z" />
    <glyph glyph-name="Omegatonosgreek" unicode="&#x38f;" horiz-adv-x="1950" 
d="M246 1087l162 356h239l-210 -356h-191zM537 696q0 349 212.5 565.5t556.5 216.5q275 0 436 -155t161 -414q0 -213 -106.5 -400.5t-288.5 -291.5l-4 -18h306l-41 -199h-550l52 251q400 215 400 635q0 177 -104.5 279.5t-287.5 102.5q-233 0 -373.5 -158t-140.5 -419
q0 -295 252 -440l-51 -251h-545l41 199h302l4 18q-231 162 -231 479z" />
    <glyph glyph-name="iotadieresistonosgreek" unicode="&#x390;" horiz-adv-x="617" 
d="M804 1265q-42 0 -75 33t-33 73q0 70 40 111.5t98 41.5t90.5 -32.5t32.5 -72.5t-10.5 -66t-29.5 -45.5t-45 -31t-68 -11.5zM144 1265q-42 0 -75 33t-33 73q0 70 40 111.5t98 41.5t90.5 -32.5t32.5 -72.5t-10.5 -66t-29.5 -45.5t-45 -31t-68 -11.5zM357 1265l105 355h224
l-154 -355h-175zM355 286q0 -107 130 -107q50 0 84 4l-37 -179q-64 -10 -129 -10q-134 0 -206 58t-72 167q0 35 11 94l166 776h217l-154 -722q-10 -44 -10 -81z" />
    <glyph glyph-name="Alphagreek" unicode="&#x391;" horiz-adv-x="1423" 
d="M554 571h440l-82 608h-16zM1012 383h-554l-215 -383h-237l836 1443h232l212 -1443h-224z" />
    <glyph glyph-name="Betagreek" unicode="&#x392;" horiz-adv-x="1373" 
d="M1063 455q0 203 -274 203h-308l-101 -465h339q149 0 246.5 74.5t97.5 187.5zM795 834q150 0 244.5 68t94.5 176q0 177 -262 177h-262l-92 -421h277zM1042 742q253 -47 253 -307q0 -78 -41 -162t-156 -178.5t-357 -94.5h-626l307 1443h532q186 0 297.5 -86.5t111.5 -226.5
t-87.5 -242.5t-229.5 -128.5z" />
    <glyph glyph-name="Gammagreek" unicode="&#x393;" horiz-adv-x="1161" 
d="M115 0l307 1443h882l-42 -204h-654l-265 -1239h-228z" />
    <glyph glyph-name="Deltagreek" unicode="&#x394;" horiz-adv-x="1416" 
d="M331 220l-3 -16h723l4 14l-148 974h-9zM34 0l30 148l773 1295h233l211 -1296l-30 -147h-1217z" />
    <glyph glyph-name="Epsilongreek" unicode="&#x395;" horiz-adv-x="1239" 
d="M1033 0h-918l307 1443h917l-41 -204h-690l-91 -408h654l-40 -194h-653l-96 -433h691z" />
    <glyph glyph-name="Zetagreek" unicode="&#x396;" horiz-adv-x="1365" 
d="M108 161l1000 1061l3 17h-746l41 204h1041l-32 -161l-998 -1061l-2 -17h785l-41 -204h-1083z" />
    <glyph glyph-name="Etagreek" unicode="&#x397;" horiz-adv-x="1552" 
d="M1078 0l137 633h-738l-136 -633h-226l307 1443h227l-130 -606h737l130 606h228l-307 -1443h-229z" />
    <glyph glyph-name="Thetagreek" unicode="&#x398;" horiz-adv-x="1619" 
d="M1369 849q0 208 -98 315t-290 107q-243 0 -400 -193t-157 -491q0 -200 99.5 -307.5t286.5 -107.5q242 0 400.5 192.5t158.5 484.5zM800 -35q-299 0 -452 158.5t-153 442.5q0 407 166 593t315.5 252.5t311.5 66.5q305 0 457.5 -158t152.5 -449q0 -401 -168 -587.5
t-319 -252.5t-311 -66zM590 617l41 202h571l-41 -202h-571z" />
    <glyph glyph-name="Iotagreek" unicode="&#x399;" horiz-adv-x="587" 
d="M115 0l307 1443h227l-307 -1443h-227z" />
    <glyph glyph-name="Kappagreek" unicode="&#x39a;" horiz-adv-x="1387" 
d="M115 0l307 1443h223l-145 -672h17l731 672h279l-690 -643l425 -800h-257l-349 657l-216 -194l-102 -463h-223z" />
    <glyph glyph-name="Lambdagreek" unicode="&#x39b;" horiz-adv-x="1406" 
d="M254 0h-237l816 1443h233l192 -1443h-225l-129 1179h-17z" />
    <glyph glyph-name="Mugreek" unicode="&#x39c;" horiz-adv-x="1824" 
d="M115 0l307 1443h252l223 -1096h17l696 1096h275l-307 -1443h-212l225 1042h-14l-639 -1000h-170l-204 1000h-13l-225 -1042h-211z" />
    <glyph glyph-name="Nugreek" unicode="&#x39d;" horiz-adv-x="1539" 
d="M115 0l307 1443h196l514 -1055h17l229 1055h223l-307 -1443h-198l-514 1051h-17l-228 -1051h-222z" />
    <glyph glyph-name="Xigreek" unicode="&#x39e;" horiz-adv-x="1353" 
d="M1189 210l-42 -210h-1070l42 210h1070zM299 631l42 201h895l-42 -201h-895zM1453 1443l-42 -210h-1070l42 210h1070z" />
    <glyph glyph-name="Omicrongreek" unicode="&#x39f;" horiz-adv-x="1595" 
d="M1342 828q0 211 -104 324.5t-272 113.5q-114 0 -212.5 -52t-212 -194.5t-113.5 -432.5q0 -184 104 -297.5t276 -113.5q230 0 341.5 142t152 266.5t40.5 243.5zM318.5 182q-123.5 126 -123.5 386t101.5 467t280 325t402.5 118q263 0 429.5 -170.5t166.5 -433.5
q0 -397 -221 -653t-570 -256q-122 0 -232 45.5t-233.5 171.5z" />
    <glyph glyph-name="Pigreek" unicode="&#x3a0;" horiz-adv-x="1532" 
d="M1059 0l266 1239h-717l-267 -1239h-226l307 1443h1172l-307 -1443h-228z" />
    <glyph glyph-name="Rhogreek" unicode="&#x3a1;" horiz-adv-x="1330" 
d="M770 683q169 0 269.5 89t100.5 246q0 108 -72 167.5t-198 59.5h-261l-123 -562h284zM936 1443q190 0 312.5 -111t122.5 -293q0 -255 -167 -404t-425 -149h-333l-104 -486h-227l307 1443h514z" />
    <glyph glyph-name="Sigmagreek" unicode="&#x3a3;" horiz-adv-x="1365" 
d="M402 204h798l-41 -204h-1083l31 155l519 587l-252 531l34 170h1038l-40 -204h-758l-3 -10l219 -468l-8 -38l-451 -509z" />
    <glyph glyph-name="Taugreek" unicode="&#x3a4;" horiz-adv-x="1318" 
d="M477 0l266 1239h-452l41 204h1131l-41 -204h-452l-265 -1239h-228z" />
    <glyph glyph-name="Upsilongreek" unicode="&#x3a5;" horiz-adv-x="1383" 
d="M513 0l126 582l-327 861h234l242 -631h17l497 631h251l-693 -881l-120 -562h-227z" />
    <glyph glyph-name="Phigreek" unicode="&#x3a6;" horiz-adv-x="1777" 
d="M1529 803q0 162 -90 255.5t-257 107.5l-194 -904q244 8 392.5 155t148.5 386zM421 628q0 -161 89.5 -255t257.5 -109l194 905q-242 -8 -391.5 -155.5t-149.5 -385.5zM194 636q0 138 58 273t224 291t527 168l32 147h218l-31 -150q255 -28 394.5 -171.5t139.5 -379.5
q0 -318 -223.5 -528.5t-584.5 -222.5l-31 -144h-219l30 146q-255 28 -394.5 172.5t-139.5 398.5z" />
    <glyph glyph-name="Chigreek" unicode="&#x3a7;" horiz-adv-x="1427" 
d="M670 749l-318 694h254l236 -539h16l469 539h253l-644 -729l329 -714h-245l-251 542h-16l-478 -542h-250z" />
    <glyph glyph-name="Psigreek" unicode="&#x3a8;" horiz-adv-x="1725" 
d="M277 757q0 57 14 127l116 559h222l-114 -543q-16 -77 -16 -132q0 -118 75.5 -174.5t223.5 -64.5l195 914h222l-196 -918q285 6 355 141.5t88 219.5l117 557h222l-119 -574q-58 -268 -220 -400t-484 -148l-69 -321h-222l69 324q-479 47 -479 433z" />
    <glyph glyph-name="Omegagreek" unicode="&#x3a9;" horiz-adv-x="1617" 
d="M204 696q0 349 212.5 565.5t556.5 216.5q275 0 436 -155t161 -414q0 -213 -106.5 -400.5t-288.5 -291.5l-4 -18h306l-41 -199h-550l52 251q400 215 400 635q0 177 -104.5 279.5t-287.5 102.5q-233 0 -373.5 -158t-140.5 -419q0 -295 252 -440l-51 -251h-545l41 199h302
l4 18q-231 162 -231 479z" />
    <glyph glyph-name="Iotadieresisgreek" unicode="&#x3aa;" horiz-adv-x="586" 
d="M806 1577q-57 0 -95 38t-38 81t10 68t28 43t42.5 28.5t66.5 10.5t81 -39t39 -82t-10.5 -67.5t-38.5 -52.5t-85 -28zM379 1577q-57 0 -95 38t-38 81t10 68t28 43t42.5 28.5t66.5 10.5t81 -39t39 -82t-10.5 -67.5t-38.5 -52.5t-85 -28zM115 0l307 1443h227l-307 -1443h-227
z" />
    <glyph glyph-name="Upsilondieresisgreek" unicode="&#x3ab;" horiz-adv-x="1383" 
d="M1202 1577q-57 0 -95 38t-38 81t10 68t28 43t42.5 28.5t66.5 10.5t81 -39t39 -82t-10.5 -67.5t-38.5 -52.5t-85 -28zM775 1577q-57 0 -95 38t-38 81t10 68t28 43t42.5 28.5t66.5 10.5t81 -39t39 -82t-10.5 -67.5t-38.5 -52.5t-85 -28zM513 0l126 582l-327 861h234
l242 -631h17l497 631h251l-693 -881l-120 -562h-227z" />
    <glyph glyph-name="alphatonosgreek" unicode="&#x3ac;" horiz-adv-x="1304" 
d="M644 1265l162 355h239l-210 -355h-191zM588 175q63 0 128.5 34.5t142.5 129t77 282.5q0 136 -65 214.5t-179 78.5q-144 0 -240.5 -132.5t-96.5 -328.5t85 -237t148 -41zM1085 238q-1 -62 77 -62q38 0 63 5l-36 -178q-50 -13 -104 -13q-111 0 -161.5 44.5t-50.5 146.5v11
h-17q-52 -100 -146.5 -155t-194.5 -55q-183 0 -284.5 118.5t-101.5 312.5q0 296 111.5 442t208.5 199t210 53q264 0 331 -221l17 -1l43 204h211l-168 -788q-8 -31 -8 -63z" />
    <glyph glyph-name="epsilontonosgreek" unicode="&#x3ad;" horiz-adv-x="1143" 
d="M938 773q-36 149 -232 149q-146 0 -208.5 -43t-62.5 -111q0 -128 198 -128h157l-37 -181h-183q-114 0 -173.5 -41.5t-59.5 -109.5t60 -104t145 -36q283 0 350 175h222q-40 -166 -193 -265t-376 -99q-300 0 -368.5 111t-68.5 175q0 115 66 186t177 100l4 17
q-140 66 -140 213t128 238t336 91q338 0 403 -131t73 -206h-217zM620 1265l162 355h239l-210 -355h-191z" />
    <glyph glyph-name="etatonosgreek" unicode="&#x3ae;" horiz-adv-x="1309" 
d="M666 1265l162 355h239l-210 -355h-191zM943 1110q145 0 234 -93t89 -245q0 -59 -12 -120l-214 -1005h-217l208 983q8 35 8 82q0 93 -55.5 148.5t-161.5 55.5t-185 -71.5t-108 -201.5l-137 -643h-217l168 786q8 38 8 68q0 60 -87 59q-37 0 -55 -5l37 178q50 13 128 13
q162 0 187 -162l5 -29h17q121 202 360 202z" />
    <glyph glyph-name="iotatonosgreek" unicode="&#x3af;" horiz-adv-x="609" 
d="M351 1265l162 355h239l-210 -355h-191zM355 286q0 -107 130 -107q50 0 84 4l-37 -179q-64 -10 -129 -10q-134 0 -206 58t-72 167q0 35 11 94l166 776h217l-154 -722q-10 -44 -10 -81z" />
    <glyph glyph-name="upsilondieresistonosgreek" unicode="&#x3b0;" horiz-adv-x="1187" 
d="M1153 789q0 -376 -167.5 -593t-449.5 -217q-283 0 -336.5 130t-53.5 204t18 163l129 613h209l-129 -614q-18 -74 -17 -147q3 -150 192 -150q188 0 289 169t101 455q0 168 -28 287h213q30 -115 30 -300zM1074 1265q-42 0 -75 33t-33 73q0 70 40 111.5t98 41.5t90.5 -32.5
t32.5 -72.5t-10.5 -66t-29.5 -45.5t-45 -31t-68 -11.5zM414 1265q-42 0 -75 33t-33 73q0 70 40 111.5t98 41.5t90.5 -32.5t32.5 -72.5t-10.5 -66t-29.5 -45.5t-45 -31t-68 -11.5zM627 1265l105 355h224l-154 -355h-175z" />
    <glyph glyph-name="alphagreek" unicode="&#x3b1;" horiz-adv-x="1304" 
d="M588 175q63 0 128.5 34.5t142.5 129t77 282.5q0 136 -65 214.5t-179 78.5q-144 0 -240.5 -132.5t-96.5 -328.5t85 -237t148 -41zM1085 238q-1 -62 77 -62q38 0 63 5l-36 -178q-50 -13 -104 -13q-111 0 -161.5 44.5t-50.5 146.5v11h-17q-52 -100 -146.5 -155t-194.5 -55
q-183 0 -284.5 118.5t-101.5 312.5q0 296 111.5 442t208.5 199t210 53q264 0 331 -221l17 -1l43 204h211l-168 -788q-8 -31 -8 -63z" />
    <glyph glyph-name="betagreek" unicode="&#x3b2;" horiz-adv-x="1283" 
d="M733 902q128 0 206 70t78 169q0 203 -211 203q-221 0 -282 -284l-111 -514q-16 -68 -16 -118q0 -112 78.5 -182.5t212.5 -70.5t223 85t89 207q0 123 -74.5 187t-214.5 64h-100l38 184h84zM307 1052q51 247 174 365t324 118t313 -95t112 -252q0 -257 -251 -357l-4 -18
q249 -86 249 -334q0 -213 -145.5 -355t-365.5 -142q-275 0 -356 217h-17l-118 -552h-215z" />
    <glyph glyph-name="gammagreek" unicode="&#x3b3;" horiz-adv-x="1135" 
d="M1170 988q0 -80 -76.5 -307t-533.5 -715l-67 -312h-216l66 304l-141 1131h224l85 -883h19q431 488 431 822q0 39 -5 61h209q5 -21 5 -101z" />
    <glyph glyph-name="deltagreek" unicode="&#x3b4;" horiz-adv-x="1200" 
d="M937 584q0 124 -68.5 198t-185.5 74q-146 0 -246.5 -120.5t-100.5 -311.5q0 -120 66 -192t192 -72q66 0 131 32t138.5 121t73.5 271zM829 1354q-85 0 -130.5 -29t-45.5 -76t31.5 -80t130.5 -88q188 -114 267.5 -225t79.5 -267q0 -254 -172 -432t-422 -178
q-208 0 -332 118.5t-124 330.5t128 370.5t353 190.5l4 19q-165 91 -165 229t109.5 218t294.5 80q184 0 268.5 -38.5t111.5 -60.5l-44 -176q-155 94 -343 94z" />
    <glyph glyph-name="epsilongreek" unicode="&#x3b5;" horiz-adv-x="1143" 
d="M938 773q-36 149 -232 149q-146 0 -208.5 -43t-62.5 -111q0 -128 198 -128h157l-37 -181h-183q-114 0 -173.5 -41.5t-59.5 -109.5t60 -104t145 -36q283 0 350 175h222q-40 -166 -193 -265t-376 -99q-300 0 -368.5 111t-68.5 175q0 115 66 186t177 100l4 17
q-140 66 -140 213t128 238t336 91q338 0 403 -131t73 -206h-217z" />
    <glyph glyph-name="zetagreek" unicode="&#x3b6;" horiz-adv-x="959" 
d="M667 -103q0 49 -34.5 83.5t-132.5 75.5q-203 85 -294.5 192t-91.5 268q0 428 639 787l4 17h-434l40 194h748l9 -183q-570 -279 -676 -478t-106 -303t53.5 -167.5t170.5 -113.5q203 -87 261.5 -150.5t58.5 -155.5t-38 -172t-121 -167l-155 61q99 120 99 212z" />
    <glyph glyph-name="etagreek" unicode="&#x3b7;" horiz-adv-x="1309" 
d="M943 1110q145 0 234 -93t89 -245q0 -59 -12 -120l-214 -1005h-217l208 983q8 35 8 82q0 93 -55.5 148.5t-161.5 55.5t-185 -71.5t-108 -201.5l-137 -643h-217l168 786q8 38 8 68q0 60 -87 59q-37 0 -55 -5l37 178q50 13 128 13q162 0 187 -162l5 -29h17q121 202 360 202z
" />
    <glyph glyph-name="thetagreek" unicode="&#x3b8;" horiz-adv-x="1256" 
d="M1045 1024q0 326 -235 326q-276 0 -382 -491h605q12 81 12 165zM380 482q0 -149 57 -233.5t174 -84.5q217 0 290 187.5t101 318.5h-606q-16 -114 -16 -188zM165 503q0 125 30 291q64 354 227.5 547.5t406.5 193.5q213 0 323 -133t110 -390q0 -120 -29 -290
q-60 -353 -223.5 -548t-408.5 -195q-214 0 -325 133.5t-111 390.5z" />
    <glyph glyph-name="iotagreek" unicode="&#x3b9;" horiz-adv-x="609" 
d="M355 286q0 -107 130 -107q50 0 84 4l-37 -179q-64 -10 -129 -10q-134 0 -206 58t-72 167q0 35 11 94l166 776h217l-154 -722q-10 -44 -10 -81z" />
    <glyph glyph-name="kappagreek" unicode="&#x3ba;" horiz-adv-x="1159" 
d="M986 836l-201 -196l281 -640h-216l-217 504l-289 -274l-48 -230h-215l230 1089h216l-114 -525h17l377 368q101 101 162.5 134t134.5 33t118 -13l-36 -178q-43 5 -68 5q-55 0 -132 -77z" />
    <glyph glyph-name="lambdagreek" unicode="&#x3bb;" horiz-adv-x="1138" 
d="M974 -10q-116 0 -169.5 52t-69.5 179l-66 487h-16l-430 -708h-241l645 1028l-14 92q-24 149 -49.5 181.5t-54 40t-58.5 7.5t-67 -5l36 178q46 13 110 13q136 0 194 -77t92 -315l121 -856q8 -64 44 -97.5t129 -10.5l-36 -176q-38 -13 -100 -13z" />
    <glyph glyph-name="mugreek" unicode="&#x3bc;" horiz-adv-x="1310" 
d="M386 372q0 -194 198 -194q112 0 203.5 83t119.5 211l130 617h215l-168 -788q-7 -33 -7 -64q0 -61 88 -61q30 0 52 4l-36 -179q-47 -11 -104 -11q-206 0 -206 190v6h-17q-82 -139 -177 -173t-139 -34q-79 0 -133 33t-68 87h-16l-99 -452h-215l304 1442h218l-126 -594
q-17 -78 -17 -123z" />
    <glyph glyph-name="nugreek" unicode="&#x3bd;" horiz-adv-x="1135" 
d="M1170 989q0 -79 -38 -194.5t-141.5 -291t-399.5 -503.5h-253l-136 1089h224l85 -883h19q431 488 431 822q0 39 -5 61h209q5 -21 5 -100z" />
    <glyph glyph-name="xigreek" unicode="&#x3be;" horiz-adv-x="973" 
d="M662 -108q0 50 -34.5 86.5t-137.5 79.5q-218 90 -307.5 177t-89.5 208q0 260 340 341l3 16q-168 71 -168 230q0 198 245 274l3 16h-204l39 194h726l9 -176l-139 -13q-465 -47 -465 -251q0 -85 87.5 -129t245.5 -44h114l-38 -189h-131q-314 0 -376 -82t-62 -126
q0 -79 55 -129.5t174 -102.5q203 -89 264.5 -151.5t61.5 -158.5t-36.5 -174.5t-120.5 -163.5l-156 61q98 119 98 207z" />
    <glyph glyph-name="omicrongreek" unicode="&#x3bf;" horiz-adv-x="1206" 
d="M870 333q76 96 76 297t-91 245t-159 44t-132.5 -35.5t-134 -130.5t-69.5 -288q0 -139 69 -217t183 -78q58 0 120 33.5t138 129.5zM602 -21q-212 0 -340 126.5t-128 340.5q0 277 163.5 470.5t439.5 193.5q195 0 315.5 -131t120.5 -324q0 -298 -124.5 -438.5t-230.5 -189
t-216 -48.5z" />
    <glyph glyph-name="pigreek" unicode="&#x3c0;" horiz-adv-x="1413" 
d="M1087 235q0 -59 92 -59q25 0 57 5l-37 -178q-41 -13 -134 -13q-94 0 -144 51t-50 139q0 34 17 119l128 596h-412l-192 -895h-206l191 895h-197l40 194h1243l-39 -194h-221l-126 -580q-10 -54 -10 -80z" />
    <glyph glyph-name="rhogreek" unicode="&#x3c1;" horiz-adv-x="1236" 
d="M744 1110q214 0 339 -130t125 -338q0 -279 -158.5 -469.5t-388.5 -190.5q-118 0 -209 61.5t-118 155.5h-16l-118 -552h-216l192 898q89 434 274.5 499.5t293.5 65.5zM984 624q0 138 -69 216.5t-187 78.5q-152 0 -248.5 -129t-96.5 -328q0 -132 72 -209.5t190 -77.5
q61 0 123 31t139 123t77 295z" />
    <glyph glyph-name="sigmafinalgreek" unicode="&#x3c2;" horiz-adv-x="1135" 
d="M692 -104q0 50 -34.5 84.5t-132.5 75.5q-206 86 -296 196t-90 284q0 246 150 410t420 164q198 0 317.5 -110t127.5 -271h-210q-26 131 -109 160t-151 29t-131.5 -29.5t-126 -104t-62.5 -228.5q0 -108 57 -174.5t166 -113.5q196 -84 258 -146.5t62 -155.5
q0 -92 -37.5 -173t-121.5 -169l-156 61q100 122 100 211z" />
    <glyph glyph-name="sigmagreek" unicode="&#x3c3;" horiz-adv-x="1302" 
d="M574 168q175 0 270 129.5t95 331.5q0 129 -55 197t-148 68q-175 0 -277.5 -129.5t-102.5 -332.5q0 -129 60 -196.5t158 -67.5zM1153 637q0 -145 -41 -261t-115 -204.5t-178.5 -140.5t-220.5 -52q-217 0 -341.5 125.5t-124.5 332.5q0 279 162.5 465.5t436.5 186.5h642
l-39 -194h-279l-3 -17q101 -96 101 -241z" />
    <glyph glyph-name="taugreek" unicode="&#x3c4;" horiz-adv-x="1085" 
d="M592 286q0 -107 131 -107q55 0 109 6l-37 -180q-59 -11 -138 -11q-146 0 -220 57.5t-74 167.5q0 46 11 94l126 582h-338l39 194h953l-39 -194h-398l-115 -528q-10 -44 -10 -81z" />
    <glyph glyph-name="upsilongreek" unicode="&#x3c5;" horiz-adv-x="1187" 
d="M1153 789q0 -376 -167.5 -593t-449.5 -217q-283 0 -336.5 130t-53.5 204t18 163l129 613h209l-129 -614q-18 -74 -17 -147q3 -150 192 -150q188 0 289 169t101 455q0 168 -28 287h213q30 -115 30 -300z" />
    <glyph glyph-name="phigreek" unicode="&#x3c6;" horiz-adv-x="1556" 
d="M1305 631q0 114 -76 193t-217 97l-166 -763q211 8 335 133.5t124 339.5zM351 456q0 -116 76 -193.5t220 -96.5l166 764q-207 -4 -334.5 -130.5t-127.5 -343.5zM136 474q0 122 52.5 243.5t198.5 257.5t460 136l60 280h206l-62 -288q215 -20 342.5 -146t127.5 -319
q0 -289 -199 -475t-509 -186l-71 -330h-205l72 338q-219 22 -346 145.5t-127 343.5z" />
    <glyph glyph-name="chigreek" unicode="&#x3c7;" horiz-adv-x="1158" 
d="M370 802q-22 67 -49 89.5t-68 22.5t-65 -6l37 178q48 13 101 13q101 0 149.5 -39.5t78.5 -134.5l110 -355h16l382 519h224l-556 -739l128 -413q22 -70 49 -92.5t64 -22.5t72 5l-37 -177q-39 -13 -95 -13q-104 0 -156 38.5t-77 126.5l-111 354h-16l-380 -509h-223l556 730
z" />
    <glyph glyph-name="psigreek" unicode="&#x3c8;" horiz-adv-x="1522" 
d="M147 316q0 72 19 171l127 602h209l-129 -607q-17 -83 -17 -130q0 -87 62.5 -129t201.5 -47l262 1215h206l-263 -1220q216 6 331 159.5t115 463.5q0 176 -29 295h212q33 -99 33 -291q0 -392 -174 -608.5t-527 -216.5l-70 -326h-206l71 330q-434 14 -434 339z" />
    <glyph glyph-name="omegagreek" unicode="&#x3c9;" horiz-adv-x="1616" 
d="M1449 1089q111 -171 111 -450t-141.5 -469.5t-349.5 -190.5q-106 0 -168.5 53t-90.5 169h-18q-104 -222 -325 -222q-163 0 -249 102t-86 293t75.5 386.5t200.5 328.5h224q-206 -230 -244.5 -422t-38.5 -287t41.5 -148.5t119.5 -53.5t134.5 55.5t80.5 161.5l83 382h205
l-73 -347q-9 -38 -9 -100t40 -107t105 -45q123 0 195.5 129.5t72.5 360.5q0 232 -119 421h224z" />
    <glyph glyph-name="iotadieresisgreek" unicode="&#x3ca;" horiz-adv-x="617" 
d="M355 286q0 -107 130 -107q50 0 84 4l-37 -179q-64 -10 -129 -10q-134 0 -206 58t-72 167q0 35 11 94l166 776h217l-154 -722q-10 -44 -10 -81zM667 1238q-57 0 -95 38t-38 81t10 68t28 43t42.5 28.5t66.5 10.5t81 -39t39 -82t-10.5 -67.5t-38.5 -52.5t-85 -28zM240 1238
q-57 0 -95 38t-38 81t10 68t28 43t42.5 28.5t66.5 10.5t81 -39t39 -82t-10.5 -67.5t-38.5 -52.5t-85 -28z" />
    <glyph glyph-name="upsilondieresisgreek" unicode="&#x3cb;" horiz-adv-x="1187" 
d="M1153 789q0 -376 -167.5 -593t-449.5 -217q-283 0 -336.5 130t-53.5 204t18 163l129 613h209l-129 -614q-18 -74 -17 -147q3 -150 192 -150q188 0 289 169t101 455q0 168 -28 287h213q30 -115 30 -300zM970 1238q-57 0 -95 38t-38 81t10 68t28 43t42.5 28.5t66.5 10.5
t81 -39t39 -82t-10.5 -67.5t-38.5 -52.5t-85 -28zM543 1238q-57 0 -95 38t-38 81t10 68t28 43t42.5 28.5t66.5 10.5t81 -39t39 -82t-10.5 -67.5t-38.5 -52.5t-85 -28z" />
    <glyph glyph-name="omicrontonosgreek" unicode="&#x3cc;" horiz-adv-x="1205" 
d="M641 1265l162 355h239l-210 -355h-191zM870 333q76 96 76 297t-91 245t-159 44t-132.5 -35.5t-134 -130.5t-69.5 -288q0 -139 69 -217t183 -78q58 0 120 33.5t138 129.5zM602 -21q-212 0 -340 126.5t-128 340.5q0 277 163.5 470.5t439.5 193.5q195 0 315.5 -131
t120.5 -324q0 -298 -124.5 -438.5t-230.5 -189t-216 -48.5z" />
    <glyph glyph-name="upsilontonosgreek" unicode="&#x3cd;" horiz-adv-x="1187" 
d="M1153 789q0 -376 -167.5 -593t-449.5 -217q-283 0 -336.5 130t-53.5 204t18 163l129 613h209l-129 -614q-18 -74 -17 -147q3 -150 192 -150q188 0 289 169t101 455q0 168 -28 287h213q30 -115 30 -300zM634 1265l162 355h239l-210 -355h-191z" />
    <glyph glyph-name="omegatonosgreek" unicode="&#x3ce;" horiz-adv-x="1617" 
d="M869 1265l162 355h239l-210 -355h-191zM1449 1089q111 -171 111 -450t-141.5 -469.5t-349.5 -190.5q-106 0 -168.5 53t-90.5 169h-18q-104 -222 -325 -222q-163 0 -249 102t-86 293t75.5 386.5t200.5 328.5h224q-206 -230 -244.5 -422t-38.5 -287t41.5 -148.5
t119.5 -53.5t134.5 55.5t80.5 161.5l83 382h205l-73 -347q-9 -38 -9 -100t40 -107t105 -45q123 0 195.5 129.5t72.5 360.5q0 232 -119 421h224z" />
    <glyph glyph-name="Iocyrillic" unicode="&#x401;" horiz-adv-x="1259" 
d="M1043 0h-918l307 1443h917l-41 -204h-690l-91 -408h654l-40 -194h-653l-96 -433h691zM1160 1577q-57 0 -95 38t-38 81t10 68t28 43t42.5 28.5t66.5 10.5t81 -39t39 -82t-10.5 -67.5t-38.5 -52.5t-85 -28zM733 1577q-57 0 -95 38t-38 81t10 68t28 43t42.5 28.5t66.5 10.5
t81 -39t39 -82t-10.5 -67.5t-38.5 -52.5t-85 -28z" />
    <glyph glyph-name="Djecyrillic" unicode="&#x402;" horiz-adv-x="1762" 
d="M890 773q134 134 368 134q82 0 164.5 -32t165 -117.5t82.5 -292.5t-154 -356t-393 -149q-116 0 -164 17l41 198q41 -15 118 -15q146 0 234 87t88 214q0 169 -94 203.5t-157 34.5q-117 0 -215.5 -56.5t-149.5 -130.5l-111 -512h-227l265 1239h-448l42 204h1124l-42 -204
h-448l-102 -466h13z" />
    <glyph glyph-name="Gjecyrillic" unicode="&#x403;" horiz-adv-x="1188" 
d="M125 0l307 1443h892l-42 -204h-664l-265 -1239h-228zM1077 1881h258l-390 -306h-230z" />
    <glyph glyph-name="Ecyrillic" unicode="&#x404;" horiz-adv-x="1505" 
d="M988 1478q220 0 376 -134.5t160 -341.5v-19h-224q-6 129 -99.5 207t-251.5 78t-291.5 -119t-186.5 -316h623l-40 -196h-614q-22 -215 71.5 -339t288.5 -124q194 0 276.5 103t105.5 158h224q-67 -218 -238.5 -344t-418.5 -126q-132 0 -247 53t-227 211t-43 528
q53 326 254 523.5t502 197.5z" />
    <glyph glyph-name="Dzecyrillic" unicode="&#x405;" horiz-adv-x="1331" 
d="M886 198.5q121 34.5 121 197.5q0 108 -90 153.5t-156 67.5l-142 48q-152 51 -235.5 150t-83.5 231q0 186 151 309t373 123t368 -120.5t160 -311.5h-219q-34 165 -143 199.5t-201.5 34.5t-174.5 -59.5t-82 -139.5t52.5 -132t165.5 -90l137 -47q352 -120 352 -372
q0 -222 -155.5 -348.5t-397.5 -126.5q-241 0 -388 117.5t-171 322.5h221q22 -110 116.5 -175.5t231.5 -65.5q69 0 190 34.5z" />
    <glyph glyph-name="Icyrillic" unicode="&#x406;" horiz-adv-x="607" 
d="M125 0l307 1443h227l-307 -1443h-227z" />
    <glyph glyph-name="Yicyrillic" unicode="&#x407;" horiz-adv-x="608" 
d="M816 1577q-57 0 -95 38t-38 81t10 68t28 43t42.5 28.5t66.5 10.5t81 -39t39 -82t-10.5 -67.5t-38.5 -52.5t-85 -28zM389 1577q-57 0 -95 38t-38 81t10 68t28 43t42.5 28.5t66.5 10.5t81 -39t39 -82t-10.5 -67.5t-38.5 -52.5t-85 -28zM125 0l307 1443h227l-307 -1443h-227
z" />
    <glyph glyph-name="Jecyrillic" unicode="&#x408;" horiz-adv-x="1168" 
d="M324 370v-4q2 -87 57 -137t150 -50q193 0 246 243l218 1021h223l-225 -1063q-42 -201 -163.5 -308t-312.5 -107t-308 111t-107 281v13h222z" />
    <glyph glyph-name="Ljecyrillic" unicode="&#x409;" horiz-adv-x="2188" 
d="M1545 197q153 0 255 88.5t102 214.5t-77 190t-212 64h-245l-122 -557h299zM94 203q91 0 156 94t112 271l236 875h915l-106 -491h253q213 0 342.5 -114t129.5 -319t-161 -362t-411 -157h-581l266 1239h-484l-190 -685q-78 -290 -190.5 -427.5t-320.5 -137.5q-51 0 -82 12
l42 209q32 -7 74 -7z" />
    <glyph glyph-name="Njecyrillic" unicode="&#x40a;" horiz-adv-x="2209" 
d="M1582 197q151 0 240.5 71t89.5 180q0 147 -101.5 172.5t-159.5 25.5h-271l-98 -449h300zM1695 842q202 0 324.5 -100.5t122.5 -282.5t-151 -320.5t-396 -138.5h-580l137 641h-664l-137 -641h-226l307 1443h227l-129 -601h663l129 601h227l-129 -601h275z" />
    <glyph glyph-name="Tshecyrillic" unicode="&#x40b;" horiz-adv-x="1785" 
d="M1196 699q-116 0 -214 -53.5t-158 -133.5l-111 -512h-227l265 1239h-448l42 204h1124l-42 -204h-448l-102 -465h16q163 133 356 133q231 0 336.5 -145.5t55.5 -381.5l-81 -380h-228l83 385q50 226 -53 270t-166 44z" />
    <glyph glyph-name="Kjecyrillic" unicode="&#x40c;" horiz-adv-x="1390" 
d="M737 725l522 -725h-257l-470 636h-44l-136 -636h-227l307 1443h227l-133 -622h43l691 622h279zM1050 1575h-230l362 306h258z" />
    <glyph glyph-name="Ushortcyrillic" unicode="&#x40e;" horiz-adv-x="1367" 
d="M235 205q31 -9 94 -9q136 0 241 129l-248 1118h235l171 -867h17l535 867h250l-682 -1061q-134 -209 -255.5 -301t-306.5 -92q-65 0 -91 13zM1346 1892q-29 -144 -139 -226t-270 -82t-246 84.5t-56 223.5h178q-15 -75 24 -122t116.5 -47t137.5 46.5t76 122.5h179z" />
    <glyph glyph-name="Dzhecyrillic" unicode="&#x40f;" horiz-adv-x="1550" 
d="M125 0l307 1443h224l-266 -1238h720l265 1238h226l-307 -1443h-480l-61 -285h-209l61 285h-480z" />
    <glyph glyph-name="Acyrillic" unicode="&#x410;" horiz-adv-x="1444" 
d="M564 571h440l-82 608h-16zM1022 383h-554l-215 -383h-237l836 1443h232l212 -1443h-224z" />
    <glyph glyph-name="Becyrillic" unicode="&#x411;" horiz-adv-x="1350" 
d="M691 197q151 0 254 79.5t103 194.5q0 162 -111 190.5t-175 28.5h-262l-108 -493h299zM806 884q213 0 342.5 -103.5t129.5 -294.5t-160.5 -338.5t-411.5 -147.5h-581l307 1443h894l-42 -204h-666l-78 -355h266z" />
    <glyph glyph-name="Vecyrillic" unicode="&#x412;" horiz-adv-x="1393" 
d="M1073 455q0 203 -274 203h-308l-101 -465h339q149 0 246.5 74.5t97.5 187.5zM805 834q150 0 244.5 68t94.5 176q0 177 -262 177h-262l-92 -421h277zM1052 742q253 -47 253 -307q0 -78 -41 -162t-156 -178.5t-357 -94.5h-626l307 1443h532q186 0 297.5 -86.5t111.5 -226.5
t-87.5 -242.5t-229.5 -128.5z" />
    <glyph glyph-name="Gecyrillic" unicode="&#x413;" horiz-adv-x="1188" 
d="M125 0l307 1443h892l-42 -204h-664l-265 -1239h-228z" />
    <glyph glyph-name="Decyrillic" unicode="&#x414;" horiz-adv-x="1543" 
d="M119 -285h-205l101 489h105q122 64 166.5 183.5t64.5 191.5l239 864h948l-266 -1239h180l-102 -489h-205l61 285h-1026zM559 567q-55 -195 -98 -257t-74 -92l-3 -14h661l224 1035h-519z" />
    <glyph glyph-name="Iecyrillic" unicode="&#x415;" horiz-adv-x="1259" 
d="M1043 0h-918l307 1443h917l-41 -204h-690l-91 -408h654l-40 -194h-653l-96 -433h691z" />
    <glyph glyph-name="Zhecyrillic" unicode="&#x416;" horiz-adv-x="2105" 
d="M278 0h-288l816 764l-432 679h246l392 -625h44l134 625h223l-134 -625h44l660 625h279l-767 -721l473 -722h-257l-423 637h-45l-137 -637h-223l138 637h-45z" />
    <glyph glyph-name="Zecyrillic" unicode="&#x417;" horiz-adv-x="1309" 
d="M983 424q0 216 -282 216h-188l40 198h197q140 0 231.5 69t91.5 169q0 206 -238 206q-183 0 -248 -86.5t-81 -139.5h-212q52 199 204 310.5t361 111.5t326.5 -103.5t117.5 -255.5t-91.5 -250t-248.5 -124l-4 -17q120 -23 188 -98.5t68 -187.5q0 -211 -161.5 -344
t-408.5 -133q-246 0 -378.5 121t-134.5 315h214q2 -103 79 -170.5t223 -67.5t240.5 72.5t94.5 188.5z" />
    <glyph glyph-name="Iicyrillic" unicode="&#x418;" horiz-adv-x="1571" 
d="M1321 1057h-17l-957 -1057h-222l307 1443h223l-229 -1060h16l958 1060h222l-307 -1443h-224z" />
    <glyph glyph-name="Iishortcyrillic" unicode="&#x419;" horiz-adv-x="1571" 
d="M1321 1057h-17l-957 -1057h-222l307 1443h223l-229 -1060h16l958 1060h222l-307 -1443h-224zM1441 1892q-29 -144 -139 -226t-270 -82t-246 84.5t-56 223.5h178q-15 -75 24 -122t116.5 -47t137.5 46.5t76 122.5h179z" />
    <glyph glyph-name="Kacyrillic" unicode="&#x41a;" horiz-adv-x="1392" 
d="M737 725l522 -725h-257l-470 636h-44l-136 -636h-227l307 1443h227l-133 -622h43l691 622h279z" />
    <glyph glyph-name="Elcyrillic" unicode="&#x41b;" horiz-adv-x="1470" 
d="M93 203q92 0 156 93.5t113 271.5l236 875h923l-307 -1443h-227l265 1239h-491l-190 -685q-78 -289 -190.5 -427t-320.5 -138q-51 0 -82 12l42 209q31 -7 73 -7z" />
    <glyph glyph-name="Emcyrillic" unicode="&#x41c;" horiz-adv-x="1844" 
d="M125 0l307 1443h252l223 -1096h17l696 1096h275l-307 -1443h-212l225 1042h-14l-639 -1000h-170l-204 1000h-13l-225 -1042h-211z" />
    <glyph glyph-name="Encyrillic" unicode="&#x41d;" horiz-adv-x="1572" 
d="M1088 0l137 633h-738l-136 -633h-226l307 1443h227l-130 -606h737l130 606h228l-307 -1443h-229z" />
    <glyph glyph-name="Ocyrillic" unicode="&#x41e;" horiz-adv-x="1619" 
d="M1353 828q0 211 -104 324.5t-272 113.5q-114 0 -212.5 -52t-212 -194.5t-113.5 -432.5q0 -184 104 -297.5t276 -113.5q230 0 341.5 142t152 266.5t40.5 243.5zM329.5 182q-123.5 126 -123.5 386t101.5 467t280 325t402.5 118q263 0 429.5 -170.5t166.5 -433.5
q0 -397 -221 -653t-570 -256q-122 0 -232 45.5t-233.5 171.5z" />
    <glyph glyph-name="Pecyrillic" unicode="&#x41f;" horiz-adv-x="1550" 
d="M1071 0l265 1238h-720l-265 -1238h-226l307 1443h1169l-307 -1443h-223z" />
    <glyph glyph-name="Ercyrillic" unicode="&#x420;" horiz-adv-x="1349" 
d="M779 683q169 0 269.5 89t100.5 246q0 108 -72 167.5t-198 59.5h-261l-123 -562h284zM945 1443q190 0 312.5 -111t122.5 -293q0 -255 -167 -404t-425 -149h-333l-104 -486h-227l307 1443h514z" />
    <glyph glyph-name="Escyrillic" unicode="&#x421;" horiz-adv-x="1513" 
d="M210 569q0 393 217 651t554 258q237 0 396.5 -141t159.5 -359v-7h-224q-10 136 -104.5 216t-225.5 80q-241 0 -392 -196t-151 -484q0 -191 98.5 -303t251.5 -112t257.5 65t143.5 179h230q-55 -212 -226 -333t-417 -121q-255 0 -411.5 166t-156.5 441z" />
    <glyph glyph-name="Tecyrillic" unicode="&#x422;" horiz-adv-x="1338" 
d="M487 0l266 1239h-452l41 204h1131l-41 -204h-452l-265 -1239h-228z" />
    <glyph glyph-name="Ucyrillic" unicode="&#x423;" horiz-adv-x="1367" 
d="M235 205q31 -9 94 -9q136 0 241 129l-248 1118h235l171 -867h17l535 867h250l-682 -1061q-134 -209 -255.5 -301t-306.5 -92q-65 0 -91 13z" />
    <glyph glyph-name="Efcyrillic" unicode="&#x424;" horiz-adv-x="1760" 
d="M1511 797q0 156 -92 238t-254 88l-173 -795q226 10 333.5 110.5t146.5 187t39 171.5zM427 652q0 -154 91.5 -236t253.5 -88l173 795q-226 -10 -333 -111t-146 -188t-39 -172zM198 647q0 129 58.5 254t220.5 268.5t508 153.5l30 145h222l-31 -145q247 -10 390 -145
t143 -357q0 -293 -220.5 -488.5t-565.5 -204.5l-33 -153h-221l32 153q-248 10 -390.5 144.5t-142.5 374.5z" />
    <glyph glyph-name="Xacyrillic" unicode="&#x425;" horiz-adv-x="1447" 
d="M680 749l-318 694h254l236 -539h16l469 539h253l-644 -729l329 -714h-245l-251 542h-16l-478 -542h-250z" />
    <glyph glyph-name="Tsecyrillic" unicode="&#x426;" horiz-adv-x="1607" 
d="M1209 -285l61 285h-1146l309 1443h223l-265 -1238h719l266 1238h226l-266 -1239h180l-102 -489h-205z" />
    <glyph glyph-name="Checyrillic" unicode="&#x427;" horiz-adv-x="1455" 
d="M1099 650q-167 -132 -394 -132t-342.5 155.5t-65.5 397.5l79 372h224l-79 -373q-33 -154 31 -248t238 -94q175 0 264.5 76.5t116.5 115.5l112 523h224l-307 -1443h-224l140 650h-17z" />
    <glyph glyph-name="Shacyrillic" unicode="&#x428;" horiz-adv-x="2019" 
d="M432 1443h227l-266 -1239h478l266 1239h228l-267 -1239h479l266 1239h227l-307 -1443h-1638z" />
    <glyph glyph-name="Shchacyrillic" unicode="&#x429;" horiz-adv-x="2076" 
d="M1678 -285l61 285h-1613l307 1443h227l-267 -1239h479l266 1239h227l-266 -1239h478l267 1239h227l-266 -1239h180l-102 -489h-205z" />
    <glyph glyph-name="Hardsigncyrillic" unicode="&#x42a;" horiz-adv-x="1540" 
d="M897 197q152 0 254 88.5t102 214.5t-76.5 190t-211.5 64h-245l-122 -557h299zM1011 952q215 0 344 -114.5t129 -319.5t-161 -361.5t-412 -156.5h-580l266 1239h-332l42 204h558l-106 -491h252z" />
    <glyph glyph-name="Yericyrillic" unicode="&#x42b;" horiz-adv-x="1823" 
d="M805 952q215 0 344 -114.5t129 -319.5t-161 -361.5t-412 -156.5h-580l307 1443h227l-106 -491h252zM691 197q153 0 255 88.5t102 214.5t-77 190t-212 64h-245l-122 -557h299zM1340 0l307 1443h227l-307 -1443h-227z" />
    <glyph glyph-name="Softsigncyrillic" unicode="&#x42c;" horiz-adv-x="1334" 
d="M805 952q215 0 344 -114.5t129 -319.5t-161 -361.5t-412 -156.5h-580l307 1443h227l-106 -491h252zM691 197q153 0 255 88.5t102 214.5t-77 190t-212 64h-245l-122 -557h299z" />
    <glyph glyph-name="Ereversedcyrillic" unicode="&#x42d;" horiz-adv-x="1504" 
d="M716 -35q-241 0 -394 130.5t-165 339.5h225q16 -120 107 -190t204 -70q203 0 339 126.5t184 335.5h-623l40 196h609q14 205 -80 320.5t-271 115.5q-216 0 -299 -111.5t-107 -174.5h-225q66 235 241 365t414 130q301 0 451.5 -210.5t81.5 -581.5q-53 -326 -200 -470.5
t-274.5 -197.5t-257.5 -53z" />
    <glyph glyph-name="IUcyrillic" unicode="&#x42e;" horiz-adv-x="2137" 
d="M1934.5 1310.5q167.5 -167.5 167.5 -424.5t-96.5 -465t-269.5 -332t-392 -124q-263 0 -430 163.5t-167 448.5v28t1 28h-261l-136 -633h-226l307 1443h227l-130 -606h247q67 287 267 464t462 177t429.5 -167.5zM1872 850q0 194 -104 306.5t-264 112.5q-111 0 -207.5 -51.5
t-208 -192t-111.5 -423.5q0 -199 104 -313.5t282 -114.5q95 0 190.5 54.5t207 200t111.5 421.5z" />
    <glyph glyph-name="IAcyrillic" unicode="&#x42f;" horiz-adv-x="1393" 
d="M288 948q0 84 41.5 177t162 205.5t370.5 112.5h582l-307 -1443h-227l112 523h-230l-481 -523h-281l516 563q-258 95 -258 385zM875 1246q-153 0 -255 -85t-102 -235.5t111.5 -181t176.5 -30.5h255l116 532h-302z" />
    <glyph glyph-name="acyrillic" unicode="&#x430;" horiz-adv-x="1173" 
d="M684 923q-173 0 -222 -119h-215q37 142 159 224t301 82t292.5 -85t113.5 -227q0 -46 -9 -88l-150 -710h-209l30 139h-17q-54 -73 -139 -115t-169 -42q-154 0 -248 85.5t-94 213.5q0 163 124 258t350 103l295 12l15 71q6 32 6 46q0 72 -56.5 112t-157.5 40zM391 432.5
q-67 -46.5 -67 -117.5t53.5 -112.5t123.5 -41.5q125 0 210.5 63t107.5 160l25 112l-265 -12q-121 -5 -188 -51.5z" />
    <glyph glyph-name="becyrillic" unicode="&#x431;" horiz-adv-x="1260" 
d="M424 876q133 184 338 184t319.5 -125t114.5 -322q0 -271 -155.5 -454t-429.5 -183q-196 0 -345.5 148t-77 551.5t241 588t447.5 195.5l139 5q162 8 273 46l22 7l-38 -190q-88 -49 -285 -57l-137 -5q-263 -11 -338 -157t-105 -232h16zM722 874q-155 0 -250.5 -122
t-95.5 -312t99 -230t163 -40q134 0 233.5 118t99.5 273q0 156 -65 234.5t-184 78.5z" />
    <glyph glyph-name="vecyrillic" unicode="&#x432;" horiz-adv-x="1161" 
d="M882 808q0 116 -152 116h-218l-62 -282h210q161 0 191.5 66.5t30.5 99.5zM604 165q165 0 199.5 70.5t34.5 111.5q0 73 -49 105t-143 32h-229l-68 -319h255zM786 1089q152 0 235.5 -66t83.5 -171t-68 -178t-175 -92l-3 -17q99 -13 150 -69t51 -136q0 -160 -126 -260
t-336 -100h-500l231 1089h457z" />
    <glyph glyph-name="gecyrillic" unicode="&#x433;" horiz-adv-x="958" 
d="M511 908l-195 -908h-218l231 1089h704l-36 -181h-486z" />
    <glyph glyph-name="decyrillic" unicode="&#x434;" horiz-adv-x="1304" 
d="M-91 -285l98 466h88q125 73 195 328l165 580h793l-194 -908h169l-98 -466h-199l61 285h-817l-61 -285h-200zM994 908h-387l-121 -410q-60 -208 -147 -300l-4 -17h501z" />
    <glyph glyph-name="iecyrillic" unicode="&#x435;" horiz-adv-x="1218" 
d="M949 704q0 89 -61.5 156t-169.5 67q-174 0 -238 -107t-81 -169h547q3 15 3 53zM628 167q185 0 252 126h218q-37 -141 -166 -227.5t-323 -86.5t-322.5 123t-128.5 338q0 299 160.5 484.5t413.5 185.5q183 0 306.5 -121.5t123.5 -325.5q0 -91 -14 -170h-775q-1 -11 -1 -14
v-62q0 -43 22 -96.5t75 -103.5t159 -50z" />
    <glyph glyph-name="zhecyrillic" unicode="&#x436;" horiz-adv-x="1675" 
d="M1232 560l332 -560h-240l-289 480h-50l-103 -480h-214l103 480h-55l-467 -480h-266l572 597l-285 492h224l256 -446h54l95 446h214l-95 -446h49l450 446h259z" />
    <glyph glyph-name="zecyrillic" unicode="&#x437;" horiz-adv-x="1120" 
d="M702 1110q179 0 277 -77t94 -204q-2 -89 -61.5 -157.5t-151.5 -86.5l-4 -17q82 -21 124.5 -76.5t40.5 -137.5q-4 -162 -139 -268.5t-329 -106.5t-313 103.5t-121 267.5h209q2 -81 64 -130.5t138 -49.5q128 0 196.5 49.5t71.5 122.5t-42 105t-146 32h-160l37 167h157
q89 0 146 41t59 105q4 130 -167 130q-197 0 -274 -173h-208q88 259 249 310t253 51z" />
    <glyph glyph-name="iicyrillic" unicode="&#x438;" horiz-adv-x="1280" 
d="M98 0l231 1089h215l-163 -749h16l669 749h216l-231 -1089h-214l163 754h-16l-669 -754h-217z" />
    <glyph glyph-name="iishortcyrillic" unicode="&#x439;" horiz-adv-x="1280" 
d="M98 0l231 1089h215l-163 -749h16l669 749h216l-231 -1089h-214l163 754h-16l-669 -754h-217zM979.5 1440.5q59.5 57.5 78.5 141.5h178q-48 -239 -189 -288.5t-225 -49.5q-162 0 -244 95.5t-52 242.5h174q-17 -83 19 -141t118 -58q83 0 142.5 57.5z" />
    <glyph glyph-name="kacyrillic" unicode="&#x43a;" horiz-adv-x="1122" 
d="M657 567l354 -567h-248l-300 476h-45l-102 -476h-218l231 1089h218l-95 -442h45l463 442h261z" />
    <glyph glyph-name="elcyrillic" unicode="&#x43b;" horiz-adv-x="1215" 
d="M500 492q-80 -280 -175.5 -391.5t-246.5 -111.5q-66 0 -94 12l40 201q22 -8 56 -8q71 0 125 76.5t98 233.5l164 585h750l-231 -1089h-218l195 908h-342z" />
    <glyph glyph-name="emcyrillic" unicode="&#x43c;" horiz-adv-x="1582" 
d="M98 0l231 1089h269l182 -779h17l521 779h265l-230 -1089h-212l160 751h-19l-470 -707h-159l-167 707h-19l-160 -751h-209z" />
    <glyph glyph-name="encyrillic" unicode="&#x43d;" horiz-adv-x="1258" 
d="M329 1089h218l-93 -436h494l94 436h218l-231 -1089h-218l101 472h-494l-102 -472h-218z" />
    <glyph glyph-name="ocyrillic" unicode="&#x43e;" horiz-adv-x="1262" 
d="M636 -21q-223 0 -349.5 128t-126.5 334q0 283 162 476t428 193q206 0 331.5 -127.5t125.5 -333.5q0 -279 -116.5 -420t-225.5 -195.5t-229 -54.5zM386 474q0 -146 68 -224.5t195 -78.5t229 130t102 332t-95 244t-163 42t-132.5 -35.5t-109.5 -98t-69.5 -147t-24.5 -164.5
z" />
    <glyph glyph-name="pecyrillic" unicode="&#x43f;" horiz-adv-x="1248" 
d="M996 908h-485l-195 -908h-218l231 1089h921l-231 -1089h-218z" />
    <glyph glyph-name="ercyrillic" unicode="&#x440;" horiz-adv-x="1294" 
d="M853 1107q178 0 286 -117.5t108 -285.5q0 -167 -42.5 -296t-117 -223.5t-175.5 -148.5t-218 -54q-179 0 -242.5 84.5t-77.5 132.5h-16l-120 -552h-216l307 1442h208l-31 -150h16q59 78 148 123t183 45zM674 177q66 0 132 36t141.5 136.5t75.5 302.5q0 127 -64.5 195
t-158.5 68q-173 0 -279 -136.5t-106 -330.5t96.5 -232.5t162.5 -38.5z" />
    <glyph glyph-name="escyrillic" unicode="&#x441;" horiz-adv-x="1189" 
d="M380 499q0 -327 252 -327q131 0 186.5 68.5t73.5 106.5h219q-96 -264 -247.5 -316t-255.5 -52q-215 0 -330.5 129.5t-115.5 377.5t158.5 435.5t418.5 187.5q186 0 305.5 -108t129.5 -263h-211q-12 77 -77.5 128t-150.5 51q-163 0 -259 -126.5t-96 -291.5z" />
    <glyph glyph-name="tecyrillic" unicode="&#x442;" horiz-adv-x="996" 
d="M1073 908h-337l-194 -908h-219l195 908h-337l36 181h892z" />
    <glyph glyph-name="ucyrillic" unicode="&#x443;" horiz-adv-x="1166" 
d="M274 -177.5q49 34.5 96 120.5l33 60l-164 1086h216l105 -842h17l448 842h233l-666 -1173q-98 -178 -194.5 -245.5t-239.5 -67.5q-51 0 -123 9l33 185q29 -9 93 -9t113 34.5z" />
    <glyph glyph-name="efcyrillic" unicode="&#x444;" horiz-adv-x="1615" 
d="M454 248.5q79 -80.5 213 -82.5l163 757q-211 -8 -333 -139.5t-122 -293.5q0 -161 79 -241.5zM1256.5 839.5q-77.5 79.5 -213.5 83.5l-164 -757q211 8 333 139.5t122 292.5q0 162 -77.5 241.5zM153 462q0 121 47.5 240.5t191.5 260.5t475 145l73 341h214l-73 -341
q210 -8 343 -133.5t133 -331.5q0 -283 -191.5 -470.5t-522.5 -191.5l-72 -334h-214l71 334q-209 8 -342 133.5t-133 347.5z" />
    <glyph glyph-name="hacyrillic" unicode="&#x445;" horiz-adv-x="1137" 
d="M581 383l-316 -383h-246l476 550l-248 539h235l160 -382h17l313 382h248l-475 -545l248 -544h-226l-169 383h-17z" />
    <glyph glyph-name="tsecyrillic" unicode="&#x446;" horiz-adv-x="1306" 
d="M928 -285l61 285h-891l231 1089h218l-195 -908h485l195 908h218l-195 -908h170l-97 -466h-200z" />
    <glyph glyph-name="checyrillic" unicode="&#x447;" horiz-adv-x="1181" 
d="M819 478q-131 -110 -294 -110t-247 115.5t-44 306.5l63 299h218l-63 -297q-24 -109 16 -168.5t147 -59.5q153 0 265 124l85 401h218l-231 -1089h-218l102 478h-17z" />
    <glyph glyph-name="shacyrillic" unicode="&#x448;" horiz-adv-x="1721" 
d="M329 1089h219l-194 -908h369l194 908h218l-194 -908h370l194 908h218l-231 -1089h-1394z" />
    <glyph glyph-name="shchacyrillic" unicode="&#x449;" horiz-adv-x="1778" 
d="M1400 -285l61 285h-1363l231 1089h219l-194 -908h369l194 908h218l-194 -908h370l194 908h218l-194 -908h168l-97 -466h-200z" />
    <glyph glyph-name="hardsigncyrillic" unicode="&#x44a;" horiz-adv-x="1265" 
d="M712 181q117 0 190 71t73 157q0 166 -177 166h-190l-86 -394h190zM843 755q163 0 257 -84.5t94 -220.5q0 -197 -139.5 -323.5t-362.5 -126.5h-425l193 908h-284l36 181h503l-71 -334h199z" />
    <glyph glyph-name="yericyrillic" unicode="&#x44b;" horiz-adv-x="1510" 
d="M672 755q162 0 256 -84.5t94 -220.5q0 -197 -139.5 -323.5t-362.5 -126.5h-422l231 1089h218l-71 -334h196zM540 181q117 0 190.5 71.5t73.5 156.5q0 166 -178 166h-187l-86 -394h187zM1294 1089h218l-231 -1089h-218z" />
    <glyph glyph-name="softsigncyrillic" unicode="&#x44c;" horiz-adv-x="1093" 
d="M672 755q162 0 256 -84.5t94 -220.5q0 -197 -139.5 -323.5t-362.5 -126.5h-422l231 1089h218l-71 -334h196zM540 181q117 0 190.5 71.5t73.5 156.5q0 166 -178 166h-187l-86 -394h187z" />
    <glyph glyph-name="ereversedcyrillic" unicode="&#x44d;" horiz-adv-x="1215" 
d="M672 918q-185 0 -270 -180h-210q55 173 185 272.5t327 99.5t319 -125t122 -335q0 -288 -158 -479.5t-425 -191.5q-199 0 -310.5 103t-117.5 265h211q6 -77 66.5 -126.5t141.5 -49.5q146 0 236.5 84t117.5 221h-462l34 167h447q3 196 -95.5 235.5t-158.5 39.5z" />
    <glyph glyph-name="iucyrillic" unicode="&#x44e;" horiz-adv-x="1733" 
d="M1102 170q130 0 230 126t100 316q0 142 -65 224.5t-179 82.5q-154 0 -247.5 -132.5t-93.5 -331.5t96.5 -242t158.5 -43zM650 653q51 204 198 330.5t354 126.5t331 -129t124 -337q0 -277 -156 -472.5t-429 -195.5q-197 0 -320.5 123.5t-127.5 325.5q0 23 2 47h-208
l-102 -472h-218l231 1089h218l-93 -436h196z" />
    <glyph glyph-name="iacyrillic" unicode="&#x44f;" horiz-adv-x="1132" 
d="M214 680q0 176 132.5 292.5t365.5 116.5h425l-231 -1089h-218l80 373h-147l-343 -373h-267l387 415q-86 35 -135 106t-49 159zM692 908q-115 0 -187 -60.5t-72 -140.5t47 -120.5t132 -40.5h191l80 362h-191z" />
    <glyph glyph-name="iocyrillic" unicode="&#x451;" horiz-adv-x="1218" 
d="M998 1238q-57 0 -95 38t-38 81t10 68t28 43t42.5 28.5t66.5 10.5t81 -39t39 -82t-10.5 -67.5t-38.5 -52.5t-85 -28zM571 1238q-57 0 -95 38t-38 81t10 68t28 43t42.5 28.5t66.5 10.5t81 -39t39 -82t-10.5 -67.5t-38.5 -52.5t-85 -28zM949 704q0 89 -61.5 156t-169.5 67
q-174 0 -238 -107t-81 -169h547q3 15 3 53zM628 167q185 0 252 126h218q-37 -141 -166 -227.5t-323 -86.5t-322.5 123t-128.5 338q0 299 160.5 484.5t413.5 185.5q183 0 306.5 -121.5t123.5 -325.5q0 -91 -14 -170h-775q-1 -11 -1 -14v-62q0 -43 22 -96.5t75 -103.5t159 -50
z" />
    <glyph glyph-name="djecyrillic" unicode="&#x452;" horiz-adv-x="1302" 
d="M677 -196q129 0 159 137l146 685q33 158 -37.5 224t-168.5 66q-177 0 -237 -101.5t-75 -171.5l-137 -643h-218l273 1275h-158l29 139h158l21 96h215l-21 -96h230l-29 -139h-231l-73 -338h17q130 173 341 173q147 0 243 -92t96 -245q0 -59 -13 -115l-157 -735
q-32 -155 -116.5 -233t-242.5 -78h-5h-27l-77 1l42 192h2l13 -1h38z" />
    <glyph glyph-name="gjecyrillic" unicode="&#x453;" horiz-adv-x="971" 
d="M519 908l-195 -908h-218l231 1089h704l-36 -181h-486zM886 1615h252l-354 -344h-222z" />
    <glyph glyph-name="ecyrillic" unicode="&#x454;" horiz-adv-x="1190" 
d="M624 172q186 0 269 175h219q-96 -264 -248 -316t-256 -52q-215 0 -330.5 130t-115.5 378t159.5 435t418.5 187q186 0 305.5 -108t129.5 -263h-211q-12 77 -77.5 128t-140.5 51q-138 0 -226.5 -76t-117.5 -195h465l-34 -167h-453q-3 -223 93 -265t151 -42z" />
    <glyph glyph-name="dzecyrillic" unicode="&#x455;" horiz-adv-x="1106" 
d="M716.5 193.5q62.5 40.5 62.5 94.5q0 53 -28 85t-99 55l-167 56q-254 85 -254 273q0 167 119.5 260t301.5 93t295 -84t131 -225h-206q-14 62 -73 98t-125 36q-112 0 -171.5 -39t-59.5 -93q0 -53 35.5 -84t105.5 -54l157 -54q257 -83 257 -275q0 -166 -126.5 -261.5
t-319.5 -95.5t-316.5 88.5t-133.5 233.5h215q17 -65 78.5 -106.5t159.5 -41.5q99 0 161.5 40.5z" />
    <glyph glyph-name="icyrillic" unicode="&#x456;" horiz-adv-x="566" 
d="M418.5 1317.5q-39.5 37.5 -39.5 78.5q0 42 10.5 66t29 42t44 28.5t70.5 10.5t84.5 -37.5t39.5 -78.5q0 -42 -10.5 -66t-40 -52.5t-89 -28.5t-99 37.5zM341 1089h218l-232 -1089h-219z" />
    <glyph glyph-name="yicyrillic" unicode="&#x457;" horiz-adv-x="553" 
d="M737 1238q-57 0 -95 38t-38 81t10 68t28 43t42.5 28.5t66.5 10.5t81 -39t39 -82t-10.5 -67.5t-38.5 -52.5t-85 -28zM310 1238q-57 0 -95 38t-38 81t10 68t28 43t42.5 28.5t66.5 10.5t81 -39t39 -82t-10.5 -67.5t-38.5 -52.5t-85 -28zM357 1089h215l-231 -1089h-215z" />
    <glyph glyph-name="jecyrillic" unicode="&#x458;" horiz-adv-x="560" 
d="M418.5 1317.5q-39.5 37.5 -39.5 78.5q0 42 10.5 66t29 42t44 28.5t70.5 10.5t84.5 -37.5t39.5 -78.5q0 -42 -10.5 -66t-40 -52.5t-89 -28.5t-99 37.5zM-61 -387q-59 0 -99 7l38 184q30 -4 79 -4q48 0 85.5 33t54.5 110l245 1146h215l-251 -1173q-63 -303 -367 -303z" />
    <glyph glyph-name="ljecyrillic" unicode="&#x459;" horiz-adv-x="1762" 
d="M1210 181q117 0 190 71t73 157q0 166 -177 166h-187l-86 -394h187zM500 492q-80 -281 -175 -392t-247 -111q-66 0 -94 12l40 201q22 -8 56 -8q72 0 125 75.5t98 231.5l164 588h750l-72 -334h196q161 0 256 -84.5t95 -220.5q0 -197 -139.5 -323.5t-363.5 -126.5h-422
l194 908h-340z" />
    <glyph glyph-name="njecyrillic" unicode="&#x45a;" horiz-adv-x="1805" 
d="M1376 679q161 0 255 -80t94 -205q0 -169 -136.5 -281.5t-357.5 -112.5h-422l107 499h-493l-107 -499h-218l231 1089h218l-88 -411h493l88 411h218l-88 -410h206zM1506 367q0 134 -169 134h-203l-70 -322h187q114 0 184.5 55.5t70.5 132.5z" />
    <glyph glyph-name="tshecyrillic" unicode="&#x45b;" horiz-adv-x="1298" 
d="M874 1109q154 0 249.5 -93.5t95.5 -227.5q0 -57 -14 -127l-140 -661h-217l133 623q12 62 12 102q0 84 -60 137.5t-162 53.5q-175 0 -235 -101t-72 -157l-140 -658h-217l273 1275h-156l29 139h156l21 96h217l-21 -96h228l-29 -139h-229l-76 -349h17q124 183 337 183z" />
    <glyph glyph-name="kjecyrillic" unicode="&#x45c;" horiz-adv-x="1123" 
d="M657 567l354 -567h-248l-300 476h-45l-102 -476h-218l231 1089h218l-95 -442h45l463 442h261zM858 1271h-222l324 344h252z" />
    <glyph glyph-name="ushortcyrillic" unicode="&#x45e;" horiz-adv-x="1166" 
d="M274 -177.5q49 34.5 96 120.5l33 60l-164 1086h216l105 -842h17l448 842h233l-666 -1173q-98 -178 -194.5 -245.5t-239.5 -67.5q-51 0 -123 9l33 185q29 -9 93 -9t113 34.5zM765 1244q-162 0 -244 95.5t-52 242.5h174q-17 -83 19 -141t118 -58q83 0 142.5 57.5
t78.5 141.5h178q-48 -239 -189 -288.5t-225 -49.5z" />
    <glyph glyph-name="dzhecyrillic" unicode="&#x45f;" horiz-adv-x="1248" 
d="M658 0l-61 -285h-199l61 285h-361l231 1089h218l-195 -908h485l195 908h218l-231 -1089h-361z" />
    <glyph glyph-name="Geupturncyrillic" unicode="&#x490;" horiz-adv-x="1188" 
d="M353 0h-228l307 1443h683l60 285h209l-101 -489h-665z" />
    <glyph glyph-name="geupturncyrillic" unicode="&#x491;" horiz-adv-x="958" 
d="M511 908l-195 -908h-218l231 1089h505l60 285h200l-97 -466h-486z" />
    <glyph glyph-name="baht" unicode="&#xe3f;" horiz-adv-x="1359" 
d="M1215 435q0 -78 -40 -162t-151 -178.5t-347 -94.5h-55l-30 -140h-136l30 140h-385l307 1443h385l32 152h136l-33 -153q163 -10 259 -94.5t96 -221.5t-87.5 -239t-229.5 -128l-3 -17q113 -23 182.5 -98.5t69.5 -208.5zM1057 1078q0 148 -169 172l-88 -412q119 14 188 79
t69 161zM502 834h161l90 421h-160zM527 193l99 465h-161l-101 -465h163zM986 455q0 188 -224 202l-99 -464q139 2 231 75.5t92 186.5z" />
    <glyph glyph-name="Aringbelow" unicode="&#x1e00;" horiz-adv-x="1424" 
d="M581 -453q51 0 83.5 32.5t32.5 69.5t-9 58t-24.5 36.5t-36.5 24t-59 8.5t-70.5 -32t-32.5 -82t32.5 -82.5t83.5 -32.5zM344 -338q0 99 68.5 166t168.5 67t168.5 -67t68.5 -166t-69 -166.5t-168 -67.5t-168 67.5t-69 166.5zM554 571h440l-82 608h-16zM1012 383h-554
l-215 -383h-237l836 1443h232l212 -1443h-224z" />
    <glyph glyph-name="aringbelow" unicode="&#x1e01;" horiz-adv-x="1153" 
d="M474 -453q51 0 83.5 32.5t32.5 69.5t-9 58t-24.5 36.5t-36.5 24t-59 8.5t-70.5 -32t-32.5 -82t32.5 -82.5t83.5 -32.5zM237 -338q0 99 68.5 166t168.5 67t168.5 -67t68.5 -166t-69 -166.5t-168 -67.5t-168 67.5t-69 166.5zM674 923q-173 0 -222 -119h-215q37 142 159 224
t301 82t292.5 -85t113.5 -227q0 -46 -9 -88l-150 -710h-209l30 139h-17q-54 -73 -139 -115t-169 -42q-154 0 -248 85.5t-94 213.5q0 163 124 258t350 103l295 12l15 71q6 32 6 46q0 72 -56.5 112t-157.5 40zM381 432.5q-67 -46.5 -67 -117.5t53.5 -112.5t123.5 -41.5
q125 0 210.5 63t107.5 160l25 112l-265 -12q-121 -5 -188 -51.5z" />
    <glyph glyph-name="Bdotaccent" unicode="&#x1e02;" horiz-adv-x="1373" 
d="M1063 455q0 203 -274 203h-308l-101 -465h339q149 0 246.5 74.5t97.5 187.5zM795 834q150 0 244.5 68t94.5 176q0 177 -262 177h-262l-92 -421h277zM1042 742q253 -47 253 -307q0 -78 -41 -162t-156 -178.5t-357 -94.5h-626l307 1443h532q186 0 297.5 -86.5t111.5 -226.5
t-87.5 -242.5t-229.5 -128.5zM910 1577q-28 0 -53 10.5t-43 29t-28 43.5t-10 68.5t38 83t81 39.5t67.5 -10.5t42.5 -29t28.5 -43.5t10.5 -54t-10.5 -54t-28.5 -43.5t-42.5 -29t-52.5 -10.5z" />
    <glyph glyph-name="bdotaccent" unicode="&#x1e03;" horiz-adv-x="1287" 
d="M674 177q66 0 131.5 36t141 136.5t75.5 302.5q0 127 -64 195t-158 68q-173 0 -279.5 -136.5t-106.5 -330.5t97 -232.5t163 -38.5zM866 1107q165 0 272.5 -117t107.5 -285t-42.5 -297t-117 -223.5t-175 -148.5t-215.5 -54t-208 61t-123 156h-17l-43 -199h-208l322 1514
h215l-121 -575h17q122 168 336 168zM582 1648q-28 0 -52.5 10.5t-42.5 29t-28 43.5t-10 68.5t38 83t81 39.5t67.5 -10.5t42.5 -29t28.5 -43.5t10.5 -54t-10.5 -54t-28.5 -43.5t-43 -29t-53 -10.5z" />
    <glyph glyph-name="Bdotbelow" unicode="&#x1e04;" horiz-adv-x="1373" 
d="M1063 455q0 203 -274 203h-308l-101 -465h339q149 0 246.5 74.5t97.5 187.5zM795 834q150 0 244.5 68t94.5 176q0 177 -262 177h-262l-92 -421h277zM1042 742q253 -47 253 -307q0 -78 -41 -162t-156 -178.5t-357 -94.5h-626l307 1443h532q186 0 297.5 -86.5t111.5 -226.5
t-87.5 -242.5t-229.5 -128.5zM520 -409q-28 0 -52.5 10t-42.5 27t-28 41t-10 65.5t38.5 78t81.5 36.5q42 0 66.5 -10t42.5 -27t28 -41t10 -51t-10 -51t-28 -41t-43 -27t-53 -10z" />
    <glyph glyph-name="bdotbelow" unicode="&#x1e05;" horiz-adv-x="1287" 
d="M674 177q66 0 131.5 36t141 136.5t75.5 302.5q0 127 -64 195t-158 68q-173 0 -279.5 -136.5t-106.5 -330.5t97 -232.5t163 -38.5zM866 1107q165 0 272.5 -117t107.5 -285t-42.5 -297t-117 -223.5t-175 -148.5t-215.5 -54t-208 61t-123 156h-17l-43 -199h-208l322 1514
h215l-121 -575h17q122 168 336 168zM532 -408q-28 0 -53 10t-43 27t-28 41t-10 65.5t38.5 78t81.5 36.5q42 0 66.5 -10t42.5 -27t28 -41t10 -51t-10 -51t-28 -41t-42.5 -27t-52.5 -10z" />
    <glyph glyph-name="Blinebelow" unicode="&#x1e06;" horiz-adv-x="1373" 
d="M153 -372l32 156h699l-32 -156h-699zM1063 455q0 203 -274 203h-308l-101 -465h339q149 0 246.5 74.5t97.5 187.5zM795 834q150 0 244.5 68t94.5 176q0 177 -262 177h-262l-92 -421h277zM1042 742q253 -47 253 -307q0 -78 -41 -162t-156 -178.5t-357 -94.5h-626l307 1443
h532q186 0 297.5 -86.5t111.5 -226.5t-87.5 -242.5t-229.5 -128.5z" />
    <glyph glyph-name="blinebelow" unicode="&#x1e07;" horiz-adv-x="1287" 
d="M674 177q66 0 131.5 36t141 136.5t75.5 302.5q0 127 -64 195t-158 68q-173 0 -279.5 -136.5t-106.5 -330.5t97 -232.5t163 -38.5zM866 1107q165 0 272.5 -117t107.5 -285t-42.5 -297t-117 -223.5t-175 -148.5t-215.5 -54t-208 61t-123 156h-17l-43 -199h-208l322 1514
h215l-121 -575h17q122 168 336 168zM164 -371l32 156h699l-32 -156h-699z" />
    <glyph glyph-name="Ccedillaacute" unicode="&#x1e08;" horiz-adv-x="1490" 
d="M698 -365q93 -1 93 65t-127 66h-54l14 102l65 101q-225 24 -360.5 183t-135.5 414t126.5 520.5t330.5 328.5t320 63q236 0 395 -140.5t159 -349.5v-8q0 -8 -1 -14h-223q0 2 -2 38t-29 90t-98 113.5t-202 59.5q-242 0 -393.5 -198t-151.5 -489q0 -187 99 -296t250 -109
q152 0 259.5 66t145.5 175h229q-74 -291 -264 -364.5t-298 -83.5l-63 -99q172 -23 172 -160q0 -89 -70 -145.5t-178 -56.5t-184 36l25 119q58 -27 151 -27zM1107 1584h-230l362 306h258z" />
    </font>
</defs>
</svg>
